<svg width="24" height="24" viewBox="0 0 24 24" fill="none" xmlns="http://www.w3.org/2000/svg"><path d="M4 5C4 3.34315 5.34315 2 7 2H13.0801C13.3402 2 13.5901 2.10135 13.7767 2.28253L19.6966 8.03021C19.8906 8.21852 20 8.47734 20 8.74767V19C20 20.6569 18.6569 22 17 22H7C5.34315 22 4 20.6569 4 19V5Z" stroke="black" stroke-width="1.5"></path><path d="M9 14H12.25H15.5C15.5 12.5 14.8 10 12 10C9.2 10 8.5 12.5 8.5 14C8.5 15.3333 9.2 18 12 18C14.2164 18 14.8194 17.0924 15.2277 16.5" stroke="black" stroke-width="1.5" stroke-linecap="round" stroke-linejoin="round"></path></svg>