<svg width="51" height="20" fill="none" xmlns="http://www.w3.org/2000/svg"><path d="M24.737 5.01v2.324h4.29v7.658h3.124V7.449h4.326V5.01h-11.74ZM40.012 5.01h-3.16l5.155 9.982h3.839L51 5.01h-3.31l-3.764 7.428-3.914-7.428ZM11.495 7.457v5.135s.3 1.98 2.634 2.4h7.818s1.768.153 2.41-1.868v-1.91h-3.006s.34 1.091-.79 1.332h-5.079a1.19 1.19 0 0 1-.658-.51 1.216 1.216 0 0 1-.17-.822V8.59s.114-.953 1.316-1.133H20.6s.677.153.677 1.18h3.086V7.218S24.136 5 21.427 5H14.39s-2.895.085-2.895 2.457Z" fill="#0093DE"/><path d="M0 5h3.046v4.087L7.618 5h4.063L6.602 9.657l5.729 5.201H7.985l-4.909-4.286L3.046 15H0V5Z" fill="#0093DE"/></svg>