<svg width="67" height="20" fill="none" xmlns="http://www.w3.org/2000/svg"><path d="m7.138 14.047-2.366-2.873 3.441-4.178h-1.88a2.338 2.338 0 0 0-1.07.196c-.336.148-.63.374-.86.657l-1.81 2.198V4H.774a.782.782 0 0 0-.547.226.761.761 0 0 0-.226.54v11.269h1.817c.206 0 .403-.081.549-.225a.761.761 0 0 0 .228-.542V12.27l1.472 1.785 1.256 1.522a1.164 1.164 0 0 0 .926.455h2.537l-1.647-1.984Z" fill="url(#a)"/><path d="M8.16 15.657c-.149-.161-.734-.92-1.465-1.771-.969-1.127-1.959-2.418-2.203-2.705.38-.459 2.838-3.458 3.14-3.811l.13-.15H6.238a2.311 2.311 0 0 0-1.625.738l-2.16 2.624a.046.046 0 0 1-.032.018.046.046 0 0 1-.03-.013.045.045 0 0 1-.013-.03V4.225H.773a.554.554 0 0 0-.386.16.539.539 0 0 0-.16.382v11.045h1.59a.553.553 0 0 0 .505-.335.533.533 0 0 0 .04-.208v-3.57c0-.01.005-.021.013-.029a.043.043 0 0 1 .03-.012.035.035 0 0 1 .032 0l1.82 2.229 1.27 1.54a1.062 1.062 0 0 0 .76.385H8.28l-.12-.154Z" fill="url(#b)"/><path d="M11.804 16.035a2.285 2.285 0 0 1-1.71-.648 2.224 2.224 0 0 1-.66-1.687V4.763c0-.203.083-.397.229-.54A.783.783 0 0 1 10.21 4h1.82v9.221c0 .186.075.364.208.495a.714.714 0 0 0 .502.205h1.848v1.347a.76.76 0 0 1-.226.54.782.782 0 0 1-.547.227h-2.012Z" fill="url(#c)"/><path d="M11.804 15.81a2.053 2.053 0 0 1-1.537-.583 2 2 0 0 1-.592-1.516V4.763c.001-.141.057-.277.157-.378.1-.101.236-.16.379-.165h1.593v9.001c0 .241.097.473.27.643a.93.93 0 0 0 .652.267h1.622v1.137a.53.53 0 0 1-.16.383.544.544 0 0 1-.387.16h-1.997Z" fill="url(#d)"/><path style="mix-blend-mode:screen" opacity=".5" d="M.259 7.905H.227v7.891H.26v-7.89Z" fill="url(#e)"/><path style="mix-blend-mode:screen" opacity=".25" d="M.422 15.81h1.42a.556.556 0 0 0 .378-.178.541.541 0 0 0 .143-.388v-3.5h-.028v3.5a.524.524 0 0 1-.14.364.538.538 0 0 1-.354.171H.422v.031Z" fill="url(#f)"/><path style="mix-blend-mode:screen" opacity=".25" d="M9.693 7.85V4.727a.515.515 0 0 1 .153-.324.528.528 0 0 1 .33-.149h1.596l.032-.035h-1.629a.564.564 0 0 0-.352.16.55.55 0 0 0-.162.348v3.121h.032Z" fill="url(#g)"/><path style="mix-blend-mode:screen" opacity=".25" d="M9.693 13.75V7.866H9.66v5.882h.032Z" fill="url(#h)"/><path style="mix-blend-mode:screen" opacity=".5" d="M11.768 13.116c-.002.108.009.216.032.322a.887.887 0 0 0 .298.49c.199.162.452.246.71.234h1.536v-.014h-1.572a.956.956 0 0 1-.759-.318.891.891 0 0 1-.198-.385 1.512 1.512 0 0 1-.025-.315l-.022-.014Z" fill="url(#i)"/><path style="mix-blend-mode:screen" opacity=".25" d="M13.773 15.779h-1.998a1.984 1.984 0 0 1-1.491-.56 1.93 1.93 0 0 1-.573-1.47h-.036a1.942 1.942 0 0 0 .585 1.492 1.997 1.997 0 0 0 1.515.57h1.998v-.032Z" fill="url(#j)"/><path style="mix-blend-mode:multiply" d="M9.66 9.879h2.13v-1.35H9.66v1.35Z" fill="url(#k)"/><path style="mix-blend-mode:screen" opacity=".25" d="m4.46 11.18 3.193-3.849h-.04l-3.192 3.85h.039Z" fill="url(#l)"/><path style="mix-blend-mode:multiply" d="M6.223 7.202a2.236 2.236 0 0 0-1.586.7l-2.153 2.631 1.997.63 3.232-3.92c-.39 0-1.49-.041-1.49-.041Z" fill="url(#m)"/><path style="mix-blend-mode:screen" opacity=".25" d="M5.563 15.454c.18.204.436.33.71.35h1.752l-.028-.032H6.283a1.182 1.182 0 0 1-.71-.325l-.01.007Z" fill="url(#n)"/><path style="mix-blend-mode:screen" opacity=".25" d="M2.171 4.224H.752a.557.557 0 0 0-.38.177.542.542 0 0 0-.145.39v3.59H.26v-3.59a.524.524 0 0 1 .14-.364c.09-.1.217-.16.353-.172h1.42v-.031Z" fill="url(#o)"/><path d="M12.9 7.296H6.11a2.388 2.388 0 0 0-1.079.187c-.34.145-.64.366-.876.646L2.838 9.732a3.055 3.055 0 0 1 1.803-.57h8.26c1.063 0 2.05-.315 2.05-1.127a6.693 6.693 0 0 0-.096-1.264s-.49.525-1.955.525Z" fill="url(#p)"/><path d="m2.86 9.711 1.518-1.862c.22-.29.51-.522.843-.674.333-.152.7-.22 1.066-.197H12.9c1.398 0 1.884-.49 1.888-.493l.163-.168v1.7a.695.695 0 0 1-.21.49c-.319.35-.936.518-1.84.518H4.63c-.653.017-1.28.26-1.77.686Z" fill="url(#q)"/><path style="mix-blend-mode:screen" opacity=".7" d="M14.94 8.115c0 .165-.227.886-2.04.886H4.758c-.7-.022-1.38.23-1.891.7a2.823 2.823 0 0 1 1.905-.676h8.16c2.044 0 2.04-.917 2.04-.917l-.032.007Z" fill="url(#r)"/><path d="M26.176 6.586a1.166 1.166 0 0 0-.631.13 1.104 1.104 0 0 0-.323.402l-2.019 4.101c-.092.2-.191.196-.294 0l-2.015-4.182a.91.91 0 0 0-.277-.332.803.803 0 0 0-.483-.119h-1.163a.496.496 0 0 0-.408.157.651.651 0 0 0-.114.406v8.892h.954a.606.606 0 0 0 .466-.169.59.59 0 0 0 .177-.457V9.32a.208.208 0 0 1 .032-.14l.067-.038c.057 0 .11.035.17.136l1.47 2.88c.121.25.286.477.485.672.218.188.502.284.791.27.554 0 .994-.33 1.317-.994l1.419-2.866c.05-.08.103-.116.17-.109.068.007.082.063.082.165v6.746h.968a.598.598 0 0 0 .632-.626V6.586h-1.473ZM39.108 15.272c.016.206-.031.411-.134.591-.085.119-.277.178-.568.178h-.798v-4.549a.655.655 0 0 0-.15-.48.715.715 0 0 0-.457-.17 3.2 3.2 0 0 0-.71 0c-.255.03-.49.066-.71.108.045.132.067.27.065.41v3.912a.99.99 0 0 1-.139.591.714.714 0 0 1-.574.178h-.802v-4.549a.597.597 0 0 0-.224-.542 1 1 0 0 0-.557-.144c-.174 0-.355.028-.582.053l-.581.077v4.325c.016.207-.03.414-.132.595a.677.677 0 0 1-.57.185h-.82V9.858a8.39 8.39 0 0 1 .652-.147c.242-.045.486-.09.731-.13.245-.038.472-.07.688-.094.178-.024.357-.037.536-.038a4.14 4.14 0 0 1 .852.031c.245.037.484.107.71.21.13-.031.29-.066.475-.094a12.392 12.392 0 0 1 1.199-.13c.21-.014.39 0 .546 0a2.18 2.18 0 0 1 1.505.483 2.007 2.007 0 0 1 .55 1.564v3.759ZM45.608 11.128a.766.766 0 0 1 .632.256c.14.182.22.402.23.63v1.718a2.25 2.25 0 0 1-.71 1.596 2.971 2.971 0 0 1-1.805.7 7.757 7.757 0 0 1-.667.027c-.241 0-.454 0-.632-.028a2.725 2.725 0 0 1-1.745-.759 2.898 2.898 0 0 1-.674-1.844c0-.22-.029-.476-.029-.763 0-.287 0-.539.029-.763-.001-.698.268-1.37.752-1.88a2.762 2.762 0 0 1 1.948-.699h1.043c.298 0 .592 0 .876.025.313.02.627.007.937-.042.238-.042.469-.119.684-.228v.875a.64.64 0 0 1-.266.546c-.195.14-.433.21-.674.2h-2.302c-.363-.008-.718.099-1.015.304a1.38 1.38 0 0 0-.475 1.092c0 .185-.025.395-.025.626 0 .231 0 .44.025.63-.003.334.114.659.33.917.21.203.486.327.78.35.07.013.142.02.213.02h.607c.322-.006.63-.127.87-.34a1.31 1.31 0 0 0 .428-.821 2.552 2.552 0 0 0 0-.308v-.717a2.636 2.636 0 0 0 0-.308 4.178 4.178 0 0 0-.078-.48 1.114 1.114 0 0 0-.29-.532h1.003ZM49.067 9.382l.39-.031.444-.035H50.721c.855 0 1.49.203 1.898.605.446.47.699 1.088.71 1.732 0 .126 0 .294.02.5.022.207 0 .42 0 .641v.64c0 .203 0 .375-.02.5a2.121 2.121 0 0 1-.735 1.562c-.533.409-1.2.612-1.873.57-.185 0-.398-.007-.639-.021-.245 0-.49-.032-.738-.056a8.246 8.246 0 0 1-.71-.098c-.223-.042-.429-.077-.596-.119a.96.96 0 0 1-.312-.154.518.518 0 0 1-.152-.423v-7.16c-.001-.176.014-.352.046-.525a1.91 1.91 0 0 1 .145-.462.935.935 0 0 1 .26-.329.62.62 0 0 1 .383-.122h.993a1.654 1.654 0 0 0-.21.461c-.081.28-.117.57-.106.861v1.463h-.018Zm.018 5.106.355.052.444.046.457.031h.412a.97.97 0 0 0 .798-.287c.163-.213.254-.471.259-.738.042-.619.042-1.24 0-1.858a1.277 1.277 0 0 0-.27-.76 1.203 1.203 0 0 0-.922-.308c-.25-.006-.5.001-.749.021-.266.021-.528.05-.784.084v3.717ZM55.95 7.64a.583.583 0 0 1-.384.561.632.632 0 0 1-.25.04h-.873v-1.05a.53.53 0 0 1 .148-.456.547.547 0 0 1 .458-.16h.901V7.64Zm0 1.385v6.271a.87.87 0 0 1-.145.578.755.755 0 0 1-.582.167h-.78v-6.4a.572.572 0 0 1 .16-.43.583.583 0 0 1 .446-.161l.901-.025ZM58.587 6.597v7.467a.693.693 0 0 0 .134.438.467.467 0 0 0 .394.168h.106c.22 0 .423 0 .604-.028.176-.015.348-.057.51-.126.036-.018.05 0 .05.024v.658a.692.692 0 0 1-.323.623 1.5 1.5 0 0 1-.826.21h-.355a1.941 1.941 0 0 1-.84-.161 1.394 1.394 0 0 1-.54-.43 1.575 1.575 0 0 1-.291-.616 2.814 2.814 0 0 1-.089-.718V7.202a.577.577 0 0 1 .174-.43.583.583 0 0 1 .436-.175h.859M63.553 14.67c.203.017.437.02.71.017l.71-.017a3.27 3.27 0 0 0 .454-.035c.17-.021.355-.042.51-.07.157-.023.313-.054.466-.095.112-.029.222-.07.326-.122.035-.018.057 0 .057.024v.7a.627.627 0 0 1-.199.48c-.169.143-.37.246-.585.3-.162.05-.329.086-.497.105-.188.025-.39.046-.6.056-.21.01-.429.021-.656.021h-.642a2.666 2.666 0 0 1-1.827-.622 2.345 2.345 0 0 1-.742-1.75c0-.315-.025-.669-.025-1.05s0-.742.025-1.05a2.215 2.215 0 0 1 .756-1.634c.479-.423 1.195-.637 2.157-.637h.475c.34-.002.676.047 1 .144.296.086.574.22.824.395.229.169.416.386.546.637.134.26.202.548.199.84v.525a1.435 1.435 0 0 1-.529 1.238 2.791 2.791 0 0 1-1.667.378h-2.306v.217c.001.11.018.218.05.322.03.114.086.219.163.308.09.102.2.185.322.245.166.073.344.112.526.116v.014Zm1.959-3.3a.601.601 0 0 0-.316-.532 1.528 1.528 0 0 0-.823-.2h-.436a2.41 2.41 0 0 0-.689.084c-.16.045-.31.118-.443.217a.78.78 0 0 0-.312.623v.525h2.277c.178.004.355-.009.53-.038a.252.252 0 0 0 .165-.096.242.242 0 0 0 .047-.184v-.4Z" fill="#EC2126"/><defs><radialGradient id="e" cx="0" cy="0" r="1" gradientUnits="userSpaceOnUse" gradientTransform="matrix(3.24189 0 0 3.19759 .468 11.97)"><stop stop-color="#fff"/><stop offset="1" stop-color="#221E1F"/></radialGradient><radialGradient id="f" cx="0" cy="0" r="1" gradientUnits="userSpaceOnUse" gradientTransform="matrix(7.31812 0 0 15.33 371.472 1287.96)"><stop stop-color="#fff"/><stop offset="1" stop-color="#221E1F"/></radialGradient><radialGradient id="g" cx="0" cy="0" r="1" gradientUnits="userSpaceOnUse" gradientTransform="matrix(12.0004 0 0 20.3218 455.969 1048.98)"><stop stop-color="#fff"/><stop offset="1" stop-color="#221E1F"/></radialGradient><radialGradient id="h" cx="0" cy="0" r="1" gradientUnits="userSpaceOnUse" gradientTransform="matrix(.17403 0 0 32.0597 16.307 1786.21)"><stop stop-color="#fff"/><stop offset="1" stop-color="#221E1F"/></radialGradient><radialGradient id="i" cx="0" cy="0" r="1" gradientUnits="userSpaceOnUse" gradientTransform="matrix(7.08429 0 0 2.88041 564.523 338.068)"><stop stop-color="#fff"/><stop offset="1" stop-color="#221E1F"/></radialGradient><radialGradient id="j" cx="0" cy="0" r="1" gradientUnits="userSpaceOnUse" gradientTransform="matrix(20.7474 0 0 10.4443 879.546 661.709)"><stop stop-color="#fff"/><stop offset="1" stop-color="#221E1F"/></radialGradient><radialGradient id="l" cx="0" cy="0" r="1" gradientUnits="userSpaceOnUse" gradientTransform="matrix(8.33891 0 0 9.93134 644.351 1167.68)"><stop stop-color="#fff"/><stop offset="1" stop-color="#221E1F"/></radialGradient><radialGradient id="n" cx="0" cy="0" r="1" gradientUnits="userSpaceOnUse" gradientTransform="matrix(8.44549 0 0 1.22431 498.159 127.576)"><stop stop-color="#fff"/><stop offset="1" stop-color="#221E1F"/></radialGradient><radialGradient id="o" cx="0" cy="0" r="1" gradientUnits="userSpaceOnUse" gradientTransform="matrix(-9.23726 0 0 -19.7472 -10428.6 -22730.3)"><stop stop-color="#fff"/><stop offset="1" stop-color="#221E1F"/></radialGradient><radialGradient id="r" cx="0" cy="0" r="1" gradientUnits="userSpaceOnUse" gradientTransform="matrix(11.5839 0 0 11.4256 3.497 9.573)"><stop/><stop offset=".24" stop-color="#fff"/><stop offset=".76" stop-color="#fff"/><stop offset=".78" stop-color="#FAFAFA"/><stop offset=".81" stop-color="#ECECEC"/><stop offset=".85" stop-color="#D4D4D4"/><stop offset=".88" stop-color="#B3B3B3"/><stop offset=".91" stop-color="#898989"/><stop offset=".95" stop-color="#555"/><stop offset=".99" stop-color="#191919"/><stop offset="1"/></radialGradient><linearGradient id="a" x1="4.389" y1="19.429" x2="4.389" y2=".945" gradientUnits="userSpaceOnUse"><stop stop-color="#414041"/><stop offset="1" stop-color="#252A2B"/></linearGradient><linearGradient id="b" x1="4.257" y1="1.627" x2="4.257" y2="18.435" gradientUnits="userSpaceOnUse"><stop stop-color="#333"/><stop offset="1"/></linearGradient><linearGradient id="c" x1="183.975" y1="425.07" x2="183.975" y2="2.556" gradientUnits="userSpaceOnUse"><stop stop-color="#414041"/><stop offset="1" stop-color="#252A2B"/></linearGradient><linearGradient id="d" x1="167.88" y1="11.524" x2="167.88" y2="388.399" gradientUnits="userSpaceOnUse"><stop stop-color="#333"/><stop offset="1"/></linearGradient><linearGradient id="k" x1="10.732" y1="9.876" x2="10.732" y2="9.379" gradientUnits="userSpaceOnUse"><stop stop-color="#fff"/><stop offset="1" stop-color="#211D1E"/></linearGradient><linearGradient id="m" x1="5.095" y1="9.942" x2="5.095" y2="8.724" gradientUnits="userSpaceOnUse"><stop stop-color="#fff"/><stop offset=".53" stop-color="#211D1E"/><stop offset="1" stop-color="#fff"/></linearGradient><linearGradient id="p" x1="14.88" y1="6.859" x2="2.842" y2="10.055" gradientUnits="userSpaceOnUse"><stop stop-color="#CE2027"/><stop offset=".48" stop-color="#A01D20"/><stop offset=".59" stop-color="#A31D21"/><stop offset=".68" stop-color="#AE1E22"/><stop offset=".77" stop-color="#BF1F25"/><stop offset=".83" stop-color="#CE2027"/><stop offset=".93" stop-color="#991B1E"/><stop offset=".95" stop-color="#961B1E"/><stop offset=".96" stop-color="#8D1A1C"/><stop offset=".97" stop-color="#7D181A"/><stop offset=".98" stop-color="#671517"/><stop offset=".99" stop-color="#4A1213"/><stop offset="1" stop-color="#310F0F"/></linearGradient><linearGradient id="q" x1="6.152" y1="5.743" x2="12.451" y2="11.102" gradientUnits="userSpaceOnUse"><stop stop-color="#B71F24"/><stop offset=".02" stop-color="#D61F26"/><stop offset=".03" stop-color="#DC3030"/><stop offset=".07" stop-color="#E85443"/><stop offset=".09" stop-color="#EF6A50"/><stop offset=".11" stop-color="#F27254"/><stop offset=".28" stop-color="#EF4F40"/><stop offset=".48" stop-color="#EC2126"/><stop offset=".71" stop-color="#EC2126"/><stop offset="1" stop-color="#D61F26"/></linearGradient></defs></svg>