<svg width="60" height="20" fill="none" xmlns="http://www.w3.org/2000/svg"><path d="m7.192 13.999-2.385-2.862 3.466-4.153H6.382a2.38 2.38 0 0 0-1.078.19 2.32 2.32 0 0 0-.87.648L2.61 10.009V4H.78a.793.793 0 0 0-.551.224.752.752 0 0 0-.228.538v11.202h1.831a.79.79 0 0 0 .549-.22.75.75 0 0 0 .23-.532v-2.98l1.484 1.774 1.263 1.514a1.197 1.197 0 0 0 .933.444h2.555L7.192 14Z" fill="url(#a)"/><path d="M8.2 15.598c-.148-.157-.738-.912-1.474-1.76-.976-1.121-1.972-2.393-2.218-2.694l3.158-3.79.13-.148H6.28a2.345 2.345 0 0 0-.902.202 2.292 2.292 0 0 0-.747.533l-2.175 2.612a.043.043 0 0 1-.032 0 .043.043 0 0 1-.03-.012.04.04 0 0 1-.012-.03V4.227H.78a.558.558 0 0 0-.39.157.53.53 0 0 0-.161.38v10.993h1.603a.565.565 0 0 0 .391-.16.54.54 0 0 0 .16-.384v-3.551a.04.04 0 0 1 .013-.03.043.043 0 0 1 .03-.011.067.067 0 0 1 .03 0l1.836 2.204 1.28 1.532a1.066 1.066 0 0 0 .765.383h2.01l-.147-.14Z" fill="url(#b)"/><path d="M11.89 15.964a2.325 2.325 0 0 1-.931-.143 2.278 2.278 0 0 1-.791-.5 2.207 2.207 0 0 1-.515-.77 2.16 2.16 0 0 1-.149-.908V4.755a.753.753 0 0 1 .232-.534.793.793 0 0 1 .55-.221h1.832v9.175c0 .181.074.355.206.483.131.129.31.2.496.2h1.863v1.368a.753.753 0 0 1-.238.523.793.793 0 0 1-.545.215h-2.01Z" fill="url(#c)"/><path d="M11.89 15.756a2.098 2.098 0 0 1-.844-.13 2.056 2.056 0 0 1-.716-.452 1.992 1.992 0 0 1-.465-.698 1.95 1.95 0 0 1-.133-.823V4.766a.525.525 0 0 1 .16-.385.552.552 0 0 1 .395-.159h1.603v8.953c0 .24.098.47.272.64.175.17.411.266.658.266h1.635v1.135c0 .143-.059.28-.163.382a.562.562 0 0 1-.392.158h-2.01Z" fill="url(#d)"/><path style="mix-blend-mode:screen" opacity=".5" d="M.26 7.887H.228v7.855H.26V7.887Z" fill="url(#e)"/><path style="mix-blend-mode:screen" opacity=".25" d="M.425 15.756h1.431a.564.564 0 0 0 .382-.177.536.536 0 0 0 .144-.387v-3.5h-.031v3.5a.516.516 0 0 1-.14.36.542.542 0 0 1-.355.17H.425v.034Z" fill="url(#f)"/><path style="mix-blend-mode:screen" opacity=".25" d="M9.764 7.825v-3.1a.51.51 0 0 1 .155-.324.536.536 0 0 1 .333-.148h1.606l.032-.03h-1.638a.568.568 0 0 0-.356.157.541.541 0 0 0-.164.345v3.1h.032Z" fill="url(#g)"/><path style="mix-blend-mode:screen" opacity=".25" d="M9.764 13.701V7.846h-.032V13.7h.032Z" fill="url(#h)"/><path style="mix-blend-mode:screen" opacity=".5" d="M11.855 13.069c-.003.109.008.218.032.325.043.19.149.36.301.485.196.16.446.245.702.236h1.547v-.034H12.88a.953.953 0 0 1-.604-.183.91.91 0 0 1-.347-.515 1.487 1.487 0 0 1-.025-.314h-.049Z" fill="url(#i)"/><path style="mix-blend-mode:screen" opacity=".25" d="M13.876 15.722h-2.014a2.02 2.02 0 0 1-.812-.124 1.982 1.982 0 0 1-.69-.435 1.92 1.92 0 0 1-.449-.67 1.88 1.88 0 0 1-.13-.792h-.035c-.013.273.032.546.133.8.101.255.256.487.454.68.198.193.436.344.697.442.262.099.542.143.822.13h2.013l.01-.031Z" fill="url(#j)"/><path style="mix-blend-mode:multiply" d="M9.732 9.852h2.158V8.505H9.732v1.347Z" fill="url(#k)"/><path style="mix-blend-mode:screen" opacity=".25" d="M4.49 11.148s2.878-3.466 3.229-3.85h-.043l-3.213 3.836.028.014Z" fill="url(#l)"/><path style="mix-blend-mode:multiply" d="M6.27 7.186c-.303.007-.6.073-.875.196a2.233 2.233 0 0 0-.725.515l-2.172 2.598 2.014.629s2.93-3.514 3.256-3.9c-.4.006-1.498-.038-1.498-.038Z" fill="url(#m)"/><path style="mix-blend-mode:screen" opacity=".25" d="M5.614 15.4a1.051 1.051 0 0 0 .726.342h1.754l-.025-.02H6.315a1.214 1.214 0 0 1-.701-.322Z" fill="url(#n)"/><path style="mix-blend-mode:screen" opacity=".25" d="M2.186 4.226H.754a.564.564 0 0 0-.38.175.535.535 0 0 0-.146.385v3.576h.035V4.786a.515.515 0 0 1 .138-.36.542.542 0 0 1 .353-.17h1.432v-.03Z" fill="url(#o)"/><path d="M12.981 7.282H6.154a2.427 2.427 0 0 0-1.085.181 2.368 2.368 0 0 0-.883.639L2.863 9.705a3.107 3.107 0 0 1 1.814-.577h8.304c1.053 0 2.067-.315 2.067-1.125a6.71 6.71 0 0 0-.095-1.255s-.48.534-1.972.534Z" fill="url(#p)"/><path d="m2.88 9.681 1.53-1.835c.22-.29.512-.521.848-.673a2.268 2.268 0 0 1 1.075-.196h6.648c1.404 0 1.898-.485 1.902-.492l.165-.164V8.01a.702.702 0 0 1-.21.489c-.324.341-.948.516-1.857.516H4.666a2.85 2.85 0 0 0-1.786.666Z" fill="url(#q)"/><path style="mix-blend-mode:screen" opacity=".7" d="M15.048 8.102c0 .164-.228.882-2.053.882H4.793a2.722 2.722 0 0 0-1.906.684v.017A2.851 2.851 0 0 1 4.807 9h8.174c2.06 0 2.053-.913 2.053-.913l.014.014Z" fill="url(#r)"/><path d="M19.963 14.529h1.93c.203-.004.405-.041.596-.11a.39.39 0 0 0 .196-.16.374.374 0 0 0 .053-.243.45.45 0 0 0-.108-.304 1.002 1.002 0 0 0-.404-.236l-2.193-.76a2.38 2.38 0 0 1-1.13-.741 1.757 1.757 0 0 1-.308-1.07 1.595 1.595 0 0 1 .146-.748c.108-.235.272-.441.478-.602a2.859 2.859 0 0 1 1.733-.513h1.404c.317.02.636.008.95-.034.245-.033.482-.104.702-.212v.865a.64.64 0 0 1-.122.393.958.958 0 0 1-.351.27c-.155.076-.32.13-.491.157-.194.03-.39.042-.586.034H20.903c-.19-.006-.38.03-.554.106a.394.394 0 0 0-.178.272.381.381 0 0 0 .094.31c.118.088.25.157.39.205l2.15.741c.414.145.79.378 1.098.684a1.59 1.59 0 0 1 .428 1.224c.008.307-.064.61-.21.882a1.73 1.73 0 0 1-.583.595 2.695 2.695 0 0 1-.86.341c-.346.068-.699.101-1.052.1h-1.628a2.353 2.353 0 0 1-.66-.08 1.009 1.009 0 0 1-.392-.225.681.681 0 0 1-.193-.31 1.196 1.196 0 0 1-.05-.343v-.608c0-.055.029-.075.081-.055.174.054.353.092.534.113.213.031.429.052.645.062ZM28.608 12.273c.26.276.533.577.82.899l.867.963c.292.342.58.646.867.961l.803.868H30.44a1.015 1.015 0 0 1-.775-.341l-2.361-2.636v2.352a.604.604 0 0 1-.185.443.636.636 0 0 1-.454.182h-.94V7.688c0-.106 0-.246.017-.417.015-.171.053-.34.113-.502.056-.154.143-.296.256-.417a.586.586 0 0 1 .46-.178h1.052a1.818 1.818 0 0 0-.263.684c-.048.27-.07.543-.07.817v3.88l2.277-2.202a.999.999 0 0 1 .452-.287c.172-.027.346-.04.52-.038h1.389l-3.32 3.245ZM34.555 18.815l1-3.152a1.444 1.444 0 0 1-.66-.31 1.757 1.757 0 0 1-.491-.756l-1.846-5.028a.507.507 0 0 1-.028-.366c.045-.116.162-.175.351-.175h1.109l1.817 5.149c.016.044.035.087.056.13a.105.105 0 0 0 .099.047c.056 0 .101-.058.136-.177l1.155-3.785c.047-.16.105-.318.172-.471.066-.156.15-.304.249-.441.094-.134.213-.25.35-.342a.816.816 0 0 1 .45-.127h1.249c-.23.156-.416.365-.54.609a5.887 5.887 0 0 0-.418.957l-2.456 7.613c-.053.17-.146.327-.27.458a.65.65 0 0 1-.453.15l-1.031.017ZM42.077 6.16v7.863a.722.722 0 0 0 .137.458.491.491 0 0 0 .417.177h.109c.231 0 .442 0 .635-.027.184-.019.364-.065.533-.137.035 0 .056 0 .056.028v.704a.733.733 0 0 1-.086.373.756.756 0 0 1-.264.283c-.261.157-.564.234-.87.222h-.362a2.061 2.061 0 0 1-.884-.17 1.54 1.54 0 0 1-.569-.452 1.862 1.862 0 0 1-.305-.65 3.159 3.159 0 0 1-.087-.755v-7.28a.609.609 0 0 1 .178-.452.608.608 0 0 1 .46-.185h.902ZM46.722 7.541a.612.612 0 0 1-.4.594.65.65 0 0 1-.263.042h-.916v-1.1c0-.431.21-.65.639-.65h.94v1.114Zm0 1.487v6.153a.938.938 0 0 1-.15.609.8.8 0 0 1-.611.174h-.818V9.651a.607.607 0 0 1 .165-.455.631.631 0 0 1 .474-.168h.94ZM50.844 9.028h.555c.831 0 1.354-.085 1.568-.26v.855a.644.644 0 0 1-.107.386.67.67 0 0 1-.318.253 2.545 2.545 0 0 1-1.087.199h-.61v4.878a.547.547 0 0 1-.168.47.579.579 0 0 1-.485.155h-.93v-5.503h-1.456v-.81a.54.54 0 0 1 .166-.472.57.57 0 0 1 .487-.15h.803v-.927c-.005-.277.05-.552.161-.807.1-.228.246-.435.428-.608.184-.166.398-.296.632-.383.247-.093.51-.14.775-.137h1.72v.67a.73.73 0 0 1-.246.581.899.899 0 0 1-.61.202h-.751a.611.611 0 0 0-.383.116.474.474 0 0 0-.144.387v.905ZM56.409 14.679c.21.017.456.024.733.02l.737-.02c.16-.003.319-.014.477-.034l.537-.075c.163-.026.325-.06.484-.103.121-.03.239-.072.35-.126.036-.018.057 0 .057.027v.742a.668.668 0 0 1-.21.509 1.48 1.48 0 0 1-.611.315c-.17.051-.343.088-.52.109-.198.027-.409.048-.63.061-.222 0-.453.02-.703.02h-.673c-.7.031-1.386-.204-1.912-.655a2.483 2.483 0 0 1-.585-.837 2.43 2.43 0 0 1-.194-.996 21.639 21.639 0 0 1-.025-1.114c0-.41 0-.783.025-1.114.003-.326.075-.647.212-.944a2.37 2.37 0 0 1 .58-.783c.499-.455 1.252-.683 2.26-.683h.502c.356-.004.711.046 1.053.147.31.09.6.232.86.42.249.182.45.42.586.694.136.273.203.575.195.879v.553c.022.245-.018.49-.114.717a1.537 1.537 0 0 1-.44.586 2.915 2.915 0 0 1-1.737.413H55.29v.23c0 .115.017.23.049.341.033.12.093.23.175.325.096.11.216.197.351.256.17.077.356.118.544.12Zm2.052-3.463a.632.632 0 0 0-.09-.324.654.654 0 0 0-.243-.236 1.586 1.586 0 0 0-.86-.209h-.46a2.422 2.422 0 0 0-.7.089c-.17.045-.33.122-.468.229a.861.861 0 0 0-.249.311.798.798 0 0 0-.077.342v.554H57.7c.186.003.371-.011.554-.041a.271.271 0 0 0 .176-.103.256.256 0 0 0 .049-.195l-.018-.417Z" fill="#EC1B23"/><defs><radialGradient id="e" cx="0" cy="0" r="1" gradientUnits="userSpaceOnUse" gradientTransform="matrix(3.2597 0 0 3.176 .417 11.668)"><stop stop-color="#fff"/><stop offset="1" stop-color="#221E1F"/></radialGradient><radialGradient id="f" cx="0" cy="0" r="1" gradientUnits="userSpaceOnUse" gradientTransform="matrix(5.75694 0 0 11.9494 614.596 583.922)"><stop stop-color="#fff"/><stop offset="1" stop-color="#221E1F"/></radialGradient><radialGradient id="g" cx="0" cy="0" r="1" gradientUnits="userSpaceOnUse" gradientTransform="matrix(9.42913 0 0 15.7449 715.277 438.558)"><stop stop-color="#fff"/><stop offset="1" stop-color="#221E1F"/></radialGradient><radialGradient id="h" cx="0" cy="0" r="1" gradientUnits="userSpaceOnUse" gradientTransform="matrix(.1342 0 0 24.8865 20.055 779.562)"><stop stop-color="#fff"/><stop offset="1" stop-color="#221E1F"/></radialGradient><radialGradient id="i" cx="0" cy="0" r="1" gradientUnits="userSpaceOnUse" gradientTransform="matrix(5.52672 0 0 2.23986 869.038 157.488)"><stop stop-color="#fff"/><stop offset="1" stop-color="#221E1F"/></radialGradient><radialGradient id="j" cx="0" cy="0" r="1" gradientUnits="userSpaceOnUse" gradientTransform="matrix(16.2792 0 0 8.09 1373.32 302.888)"><stop stop-color="#fff"/><stop offset="1" stop-color="#221E1F"/></radialGradient><radialGradient id="l" cx="0" cy="0" r="1" gradientUnits="userSpaceOnUse" gradientTransform="matrix(6.54424 0 0 7.73664 1042.98 511.951)"><stop stop-color="#fff"/><stop offset="1" stop-color="#221E1F"/></radialGradient><radialGradient id="n" cx="0" cy="0" r="1" gradientUnits="userSpaceOnUse" gradientTransform="matrix(6.62286 0 0 .9127 800.828 63.603)"><stop stop-color="#fff"/><stop offset="1" stop-color="#221E1F"/></radialGradient><radialGradient id="o" cx="0" cy="0" r="1" gradientUnits="userSpaceOnUse" gradientTransform="matrix(-9.44704 0 0 -19.9564 -13370.4 -25955.5)"><stop stop-color="#fff"/><stop offset="1" stop-color="#221E1F"/></radialGradient><radialGradient id="r" cx="0" cy="0" r="1" gradientUnits="userSpaceOnUse" gradientTransform="matrix(11.6548 0 0 11.3556 3.459 9.284)"><stop/><stop offset=".24" stop-color="#fff"/><stop offset=".76" stop-color="#fff"/><stop offset=".78" stop-color="#FAFAFA"/><stop offset=".81" stop-color="#ECECEC"/><stop offset=".85" stop-color="#D4D4D4"/><stop offset=".88" stop-color="#B3B3B3"/><stop offset=".91" stop-color="#898989"/><stop offset=".95" stop-color="#555"/><stop offset=".99" stop-color="#191919"/><stop offset="1"/></radialGradient><linearGradient id="a" x1="4.421" y1="19.355" x2="4.421" y2=".961" gradientUnits="userSpaceOnUse"><stop stop-color="#414041"/><stop offset="1" stop-color="#252A2B"/></linearGradient><linearGradient id="b" x1="4.287" y1="1.641" x2="4.287" y2="18.367" gradientUnits="userSpaceOnUse"><stop stop-color="#333"/><stop offset="1"/></linearGradient><linearGradient id="c" x1="188.104" y1="430.514" x2="188.104" y2="2.444" gradientUnits="userSpaceOnUse"><stop stop-color="#414041"/><stop offset="1" stop-color="#252A2B"/></linearGradient><linearGradient id="d" x1="172.615" y1="11.721" x2="172.615" y2="393.811" gradientUnits="userSpaceOnUse"><stop stop-color="#333"/><stop offset="1"/></linearGradient><linearGradient id="k" x1="10.813" y1="9.849" x2="10.813" y2="9.353" gradientUnits="userSpaceOnUse"><stop stop-color="#fff"/><stop offset="1" stop-color="#211D1E"/></linearGradient><linearGradient id="m" x1="5.133" y1="9.914" x2="5.133" y2="8.704" gradientUnits="userSpaceOnUse"><stop stop-color="#fff"/><stop offset=".53" stop-color="#211D1E"/><stop offset="1" stop-color="#fff"/></linearGradient><linearGradient id="p" x1="14.992" y1="6.844" x2="2.88" y2="10.099" gradientUnits="userSpaceOnUse"><stop stop-color="#CE2027"/><stop offset=".48" stop-color="#A01D20"/><stop offset=".59" stop-color="#A31D21"/><stop offset=".68" stop-color="#AE1E22"/><stop offset=".77" stop-color="#BF1F25"/><stop offset=".83" stop-color="#CE2027"/><stop offset=".93" stop-color="#991B1E"/><stop offset=".95" stop-color="#961B1E"/><stop offset=".96" stop-color="#8D1A1C"/><stop offset=".97" stop-color="#7D181A"/><stop offset=".98" stop-color="#671517"/><stop offset=".99" stop-color="#4A1213"/><stop offset="1" stop-color="#310F0F"/></linearGradient><linearGradient id="q" x1="6.196" y1="5.733" x2="12.478" y2="11.145" gradientUnits="userSpaceOnUse"><stop stop-color="#B71F24"/><stop offset=".02" stop-color="#D61F26"/><stop offset=".03" stop-color="#DC3030"/><stop offset=".07" stop-color="#E85443"/><stop offset=".09" stop-color="#EF6A50"/><stop offset=".11" stop-color="#F27254"/><stop offset=".28" stop-color="#EF4F40"/><stop offset=".48" stop-color="#EC2126"/><stop offset=".71" stop-color="#EC2126"/><stop offset="1" stop-color="#D61F26"/></linearGradient></defs></svg>