<svg width="61" height="20" fill="none" xmlns="http://www.w3.org/2000/svg"><path d="M0 10.233a8.186 8.186 0 0 0 8.275 8.174A8.204 8.204 0 0 0 8.22 2 8.195 8.195 0 0 0 0 10.233Z" fill="#fff"/><path d="M37.642 8.13a2.793 2.793 0 0 0-1.04-2.016c-1.069-.876-2.332-1.072-3.661-1.02-2.09.083-3.657 1.303-4.235 3.31a6.927 6.927 0 0 0 .02 3.765c.573 2.129 2.099 3.257 4.304 3.138a3.232 3.232 0 0 0 2.575-1.373l.129 1.087h1.964V9.733h-4.09v1.425l1.881.096c.018 1.21-.58 2.053-1.542 2.293a2.037 2.037 0 0 1-2.415-1.171 4.873 4.873 0 0 1 0-4.272c.251-.455.64-.818 1.112-1.036.94-.45 1.668-.094 2.479 1.062h2.52ZM42.95 5.378c-.034.088-.059.18-.073.273 0 2.023-.062 4.048.014 6.067.069 1.816 1.013 2.969 2.683 3.39.669.159 1.357.223 2.044.19 2.314-.088 3.641-1.404 3.71-3.707.055-1.899.02-3.801.02-5.7-.014-.17-.041-.34-.084-.505h-2.28c-.016.257-.039.474-.039.69v4.368c-.005.484-.039.967-.101 1.447-.116.902-.651 1.412-1.505 1.465-1.054.06-1.637-.314-1.871-1.239a4.28 4.28 0 0 1-.122-1.016c-.013-1.68 0-3.357-.008-5.036 0-.215-.023-.428-.04-.68l-2.348-.007ZM20.846 5.373v9.636h6.873v-1.934h-4.46V5.373h-2.413ZM58.266 10.164V7.396H61v-2.07h-2.738V2.6h-2.057V5.37h-2.692v2.048h2.725v2.746h2.028Z" fill="#767B7D"/><path d="M0 10.233A8.195 8.195 0 0 1 8.22 2a8.203 8.203 0 1 1 .055 16.407A8.185 8.185 0 0 1 0 10.233Zm14.46.342c.03 2.931-2.675 5.662-5.737 5.863a6.313 6.313 0 0 1-6.712-5.48C1.641 8.082 3.606 4.02 8.54 3.895V3.29C5.933 2.98 3.03 4.775 1.862 7.36a6.913 6.913 0 0 0 1.736 8.031 7.015 7.015 0 0 0 8.262.777c2.117-1.262 3.625-3.89 3.3-6.257h-4.942l.057.666 4.186-.003ZM7.934 6.58v7.231h2.311v-.669H8.565V6.581h-.632Zm-1.314.987a1.023 1.023 0 0 0-2.044-.03A1.037 1.037 0 0 0 5.61 8.575a1.05 1.05 0 0 0 1.008-1.008Z" fill="#C40853"/><path d="M37.642 8.13h-2.511c-.814-1.156-1.539-1.511-2.479-1.062a2.443 2.443 0 0 0-1.112 1.036 4.875 4.875 0 0 0 0 4.272 2.037 2.037 0 0 0 2.415 1.171c.963-.24 1.56-1.083 1.543-2.293l-1.882-.096V9.733h4.093v5.296h-1.972l-.129-1.086a3.23 3.23 0 0 1-2.575 1.373c-2.205.112-3.73-1.01-4.304-3.139a6.927 6.927 0 0 1-.02-3.765c.575-2.002 2.142-3.226 4.235-3.31 1.329-.052 2.592.144 3.66 1.02a2.794 2.794 0 0 1 1.038 2.008ZM42.95 5.378h2.339c.016.25.039.464.039.679 0 1.679 0 3.357.008 5.036 0 .342.04.683.122 1.016.235.925.814 1.303 1.871 1.24.847-.048 1.39-.558 1.505-1.466.062-.48.096-.963.101-1.447.013-1.456 0-2.912 0-4.368 0-.216.023-.433.04-.69h2.28c.042.165.07.334.082.505 0 1.9.036 3.802-.02 5.7-.068 2.303-1.395 3.619-3.71 3.707a7.294 7.294 0 0 1-2.043-.191c-1.67-.42-2.614-1.573-2.682-3.39-.077-2.019-.018-4.043-.015-6.066.018-.091.046-.18.083-.265ZM20.846 5.373h2.414v7.702h4.46v1.934h-6.874V5.373ZM58.266 10.164h-2.028V7.418h-2.725V5.363h2.692V2.594h2.057v2.732H61v2.076h-2.734v2.762Z" fill="#767B7D"/><path d="M14.46 10.575h-4.185l-.057-.666h4.941c.326 2.368-1.176 4.995-3.3 6.257a7.014 7.014 0 0 1-8.261-.774 6.913 6.913 0 0 1-1.73-8.03C3.031 4.774 5.94 2.98 8.545 3.29v.606c-4.94.124-6.905 4.187-6.534 7.061a6.313 6.313 0 0 0 6.712 5.476c3.062-.196 5.772-2.93 5.738-5.858Z" fill="#fff"/><path d="M7.933 6.581h.632v6.562h1.68v.67H7.932V6.58ZM6.619 7.568A1.05 1.05 0 0 1 5.61 8.575a1.037 1.037 0 0 1-1.036-1.038 1.023 1.023 0 0 1 2.044.033v-.002Z" fill="#fff"/></svg>