<svg width="48" height="20" fill="none" xmlns="http://www.w3.org/2000/svg"><g clip-path="url(#a)"><path d="M26.232 10.555c.427-.44.736-.978.903-1.565.35-.925.935-1.377 1.961-1.258.328.039.697 0 1.044 0 .876.03 1.245.579.909 1.394-.21.508-.488.986-.733 1.48-.732 1.456-1.484 2.911-2.194 4.373-.389.821-1.089.925-1.857.925-.769 0-1.472-.11-1.867-.906-.926-1.866-1.88-3.725-2.822-5.597a1.944 1.944 0 0 1-.22-.79.746.746 0 0 1 .411-.776.768.768 0 0 1 .303-.08c.07-.005.14-.005.209 0 2.887 0 2.184-.288 3.42 1.979.123.305.304.583.533.821Z" fill="#FABF07"/><path d="m10.727 7.742.271-.026c.415 0 .83.03 1.246.036.935.019 1.37.43 1.373 1.335v5.361c0 1.097-.307 1.394-1.393 1.407h-.768c-1.22 0-1.537-.323-1.54-1.494V9.346c0-.673.144-1.265.81-1.604Z" fill="#FAC20D"/><path d="M17.129 7.703h.278c.244.07.5.093.752.068.929-.049 1.34.323 1.36 1.238v1.996c0 1.215.026 2.431 0 3.647-.02.831-.395 1.184-1.193 1.206h-.981c-1.164 0-1.481-.323-1.485-1.484V9.281c.023-1.05.232-1.31 1.269-1.578Z" fill="#FAC007"/><path d="m19.895 3.454.154.97a5.434 5.434 0 0 1-.458 1.22l-.101.135-.327.323-.059.04-.298.203-.7.181-.287.061a.585.585 0 0 0-.405-.029l-.288-.058c-1.681-.73-2.224-2.263-1.269-3.557.84-1.154 2.335-1.222 3.623-.165l.415.676Z" fill="#625C4F"/><path d="M11.973 6.549h-.282a2.717 2.717 0 0 1-1.54-.618l-.327-.537c.635-.507 1.125-1.193 1.943-1.455.075-.022.14-.12.183-.197.29-.553.827-.831 1.308-1.151l.477.45c.02.106.036.213.147.27a2.654 2.654 0 0 1-.154 2.184c-.35.391-.757.728-1.21.999a1.196 1.196 0 0 0-.546.055Z" fill="#676255"/><path d="M13.277 2.597c-.494.324-1.03.598-1.308 1.151-.042.078-.108.175-.183.198-.824.255-1.308.94-1.962 1.448l-.196-.21a5.021 5.021 0 0 1-.167-1.187l.05-.255c.597-1.378 1.517-1.938 2.759-1.682.389.057.745.247 1.007.537Z" fill="#6E685C"/><path d="M-.005 11.593V9.048c0-.85.419-1.228 1.253-1.228h1.307c.687.029 1.024.323 1.047 1.021.028.893.028 1.787 0 2.684 0 .52.157.754.722.725.811-.036 1.635-.02 2.436 0 .802.019 1.148.381 1.164 1.138 0 .459.02.918 0 1.374-.02.647-.382 1.057-1.023 1.067-1.785.026-3.574.039-5.36 0a1.589 1.589 0 0 1-1.123-.483 1.553 1.553 0 0 1-.433-1.134c.01-.873.01-1.746.01-2.619Z" fill="#FAC309"/><path d="M47.215 5.75c1.13 1.552 1.03 3.903-.236 5.54a6.472 6.472 0 0 1-3.956 2.418 2.956 2.956 0 0 0-1.658.786c-.589.61-1.387.743-2.22.743-.285 0-.439-.232-.654-.261.392-.324.98-.508 1.072-1.2-.412-.152-.824-.278-1.213-.45-1.864-.828-3.27-2.101-3.597-4.168-.395-2.286.599-4.039 2.472-5.293 1.779-1.19 3.78-1.417 5.863-.99.167.036.353.042.454.217l-.032.032-.631-.022c-.187-.217-.435-.094-.654-.126h-.782a.79.79 0 0 0-.918 0c-.758.09-1.503.266-2.22.523-.275.198-.73.178-.789.647-.797.34-1.459.93-1.88 1.682-.304.585-.677 1.18-.677 1.836a7.598 7.598 0 0 0 .147 1.588 5.152 5.152 0 0 0 1.148 2.234c.239.288.504.547.916.324.287.685.654 1.212 1.396 1.39.356.217.758.35 1.174.388.225.301-.079.602 0 .902-.2.13-.474.165-.625.427.422.227.782-.051 1.151-.038.238-.026.464-.115.654-.26.239-.093.271-.293.265-.513a3.76 3.76 0 0 1 1.563-.521c.654-.207 1.383-.24 1.939-.666.458-.356 1.157-.453 1.33-1.135.465 0 .305-.469.524-.647.19 0 .383 0 .392-.258.279-.43.458-.914.523-1.42a2.247 2.247 0 0 0 .128-1.94v-.796c-.121-.33-.425-.585-.37-.973Z" fill="#15B4D9"/><path d="M47.215 5.75c-.056.388.248.647.353.97-.232 0-.438.217-.677.078-.239-.14.016-.443-.232-.544-.654.172-.213.709-.37 1.145a1.123 1.123 0 0 1-.193-1.235c.107-.186.165-.395.17-.608a.238.238 0 0 0 .25-.155.23.23 0 0 0 .012-.104c.242.088.343.398.654.392a.05.05 0 0 1 .03.023.048.048 0 0 1 .002.038Z" fill="#04B4E6"/><path d="M43.533 3.092a4.647 4.647 0 0 1 2.766 1.53l-.042.041a.782.782 0 0 0-.125 0l-.389-.135a.619.619 0 0 0-.523-.385h-.13a.64.64 0 0 0-.279-.43.658.658 0 0 0-.507-.097c-.215-.246-.794.077-.804-.498l.033-.026ZM47.172 5.692c-.3 0-.402-.304-.654-.391l-.14-.508.048-.045c.345.227.607.558.746.944Z" fill="#15B4D9"/><path d="m46.299 4.621.134.127-.046.042-.13-.127.042-.042Z" fill="#15B4D9"/><path d="m45.743 4.521.39.136c.136.323-.328.323-.357.579.133.145.3.256.487.323a1.282 1.282 0 0 1-.17.608 1.118 1.118 0 0 0 .193 1.235c.157-.436-.298-.97.37-1.144.248.1.032.407.232.543.199.136.444-.081.676-.078v.773c-.144.068-.294.188-.245.323.183.53.069 1.07.118 1.617-.066.506-.245.99-.523 1.42a.383.383 0 0 0-.393.258c-.219.182-.059.647-.523.647-.235-.275-.327-.646-.556-.918a.674.674 0 0 1-.02-.838c.478-.481.347-1.031.328-1.597.081-.197.434-.107.457-.433-.327-.052-.219-.556-.608-.611a3.493 3.493 0 0 0-.13-1.294v-.43c0-.087-.043-.168-.138-.155-.095.013-.101.11-.118.19a.723.723 0 0 1-.117 0l-.131-.126a.241.241 0 0 0-.168-.238.248.248 0 0 0-.103-.01c-.027-.165-.056-.324-.265-.13h-.255c0-.249-.04-.482-.288-.601-.249.103-.239.294-.239.482-.807.284-1.58.475-2.469.116-.493-.197-1.17-.323-1.683.194a.532.532 0 0 1-.617.164.534.534 0 0 1-.188-.125.868.868 0 0 0-.53-.22c-.62-.042-.954.433-.8 1.028.153.595.486 1.222-.275 1.682a.323.323 0 0 0-.069.414c.402.591.222 1.177.04 1.778-.102.323-.213.676.186.912l.124.13a.803.803 0 0 0 .981.356c.621-.71.47-1.482.46-2.177.23-.146.442.113.625-.143 0-.271.105-.578-.104-.88a1.604 1.604 0 0 1-.262-.898c.654.12.89-.485 1.308-.776.556.647.04 1.151-.183 1.588-.222.436-.3.805-.036 1.183a.643.643 0 0 1-.033.905c-.304.36-.209.563.239.709.128.355.04.837.517.986.258-.149 0-.534.395-.579.203.084.111.724.618.388a1.904 1.904 0 0 1-.166-.689c.075-.423.372.026.5-.042.389-.51-.429-.737-.213-1.206.409 0 .599.527 1.024.42.28-.5-.216-.54-.354-.646-.379-.822.448-1.358.236-2.044.212-.171.507.033.674-.2.13-.443-.654-.324-.484-.783h.265c.287.049.536.126.523.498V8.39a1.405 1.405 0 0 0-.252.908c-.095.02-.229.016-.2.159 0 .045.128.068.197.103-.124.42-.166.859-.125 1.294 0 .426-.516.113-.624.43l.454.646c-.101.324-.46.563-.271.938-.497.175-1.007-.058-1.524.19.245.138.532.184.808.13.288 0 .389.13.37.392a3.761 3.761 0 0 0-1.564.52c-.399.104-.35-.323-.53-.485-.18.165-.287.323-.196.547.21.08.53.08.462.452-.19.144-.417.234-.655.259 0-.35-.44-.14-.526-.388-.078-.3.226-.601 0-.902-.033-.217.278-.272.239-.518-.308-.349-.628-.553-1.03-.077-.092.11-.301.052-.383.207-.729-.178-1.108-.705-1.396-1.39-.412.232-.677-.027-.916-.324a5.152 5.152 0 0 1-1.147-2.235 7.59 7.59 0 0 1-.147-1.587c0-.647.372-1.252.677-1.837a3.908 3.908 0 0 1 1.88-1.681c.5.07.807-.09.788-.647.72-.258 1.466-.434 2.226-.524.308.181.615-.09.92 0h.78c.148.41.396.298.655.126l.63.023c0 .575.59.252.805.498a.64.64 0 0 0 .327.734c.216.094.356-.033.448-.223h.13c0 .216-.068.478.2.595.18.08.268-.068.337-.2Zm.461 5.82c.67-.404.723-1.03.108-1.52-.04.509-.072.99-.108 1.505v.016ZM39.56 7.82c.111-.116.477.052.327-.323 0-.032-.066-.048-.102-.074a.327.327 0 0 0-.195.153.32.32 0 0 0-.03.244Zm1.076 4.883c-.027.02-.076.036-.079.062a.108.108 0 0 0 .043.093.083.083 0 0 0 .08-.011.08.08 0 0 0 .03-.076c.004-.01-.042-.032-.068-.055l-.006-.013Z" fill="#00B7EE"/><path d="M45.609 7.367c.39.055.271.56.608.61-.023.324-.376.237-.458.434 0 .566.148 1.116-.327 1.598a.674.674 0 0 0 .02.837c.239.285.327.647.556.918-.173.683-.873.78-1.33 1.136-.557.426-1.286.459-1.94.666.02-.262-.082-.392-.37-.392a1.192 1.192 0 0 1-.807-.129c.517-.249 1.027 0 1.524-.19-.19-.376.17-.599.271-.939l-.454-.646c.108-.324.62 0 .624-.43l.147-.017c.036.21.02.482.373.295h.399c.02.048.046.142.056.139.1-.02.055-.104.062-.168l.14-.136a.63.63 0 0 0 .393-.611 8.79 8.79 0 0 1 .251-1.617.763.763 0 0 0-.088-.728l.056-.278.042-.13c.154.04.245-.041.252-.222ZM38.553 13.18c.082-.155.29-.096.382-.206.402-.476.723-.272 1.03.077.04.246-.271.301-.238.518a2.74 2.74 0 0 1-1.174-.388ZM47.443 9.436c-.049-.533.066-1.073-.117-1.617-.05-.148.101-.268.245-.323a2.24 2.24 0 0 1-.128 1.94ZM39.727 14.471c.085.249.516.039.526.388-.37 0-.73.265-1.15.039.15-.262.424-.288.624-.427ZM40.907 14.61c.069-.372-.252-.372-.461-.453-.092-.236.016-.381.196-.546.18.155.131.588.53.485.023.21-.026.41-.265.514ZM38.291 3.496c.02.55-.288.711-.788.647.059-.47.514-.45.788-.647ZM42.869 3.102c-.262.171-.51.284-.654-.127.219.033.467-.09.654.127ZM41.43 2.969c-.304-.09-.611.181-.919 0a.79.79 0 0 1 .92 0ZM46.528 11.114a.375.375 0 0 1 .392-.258c-.01.265-.203.262-.392.258Z" fill="#04B4E6"/><path d="M46.528 5.3a.23.23 0 0 1-.067.193.236.236 0 0 1-.195.066.239.239 0 0 1 .16-.25.244.244 0 0 1 .105-.012l-.003.003Z" fill="#00B7EE"/><path d="M45.09 4.133c-.092.19-.233.324-.449.223a.64.64 0 0 1-.327-.734.661.661 0 0 1 .678.276.642.642 0 0 1 .097.235ZM46.528 5.297a.244.244 0 0 0-.252.158.236.236 0 0 0-.013.104 1.234 1.234 0 0 1-.49-.326c.039-.243.493-.246.356-.58a.782.782 0 0 1 .124 0l.131.127.144.517ZM45.743 4.521c-.069.133-.157.281-.327.21-.268-.116-.186-.378-.2-.595a.629.629 0 0 1 .527.385ZM43.127 6.594c-.16.453.615.323.484.783-.167.232-.46.029-.673.2.212.686-.615 1.222-.236 2.044.138.103.635.142.353.646-.425.107-.614-.407-1.023-.42-.216.469.602.695.212 1.206-.127.068-.425-.381-.5.042.012.238.069.472.167.689-.507.323-.415-.304-.618-.388-.406.045-.137.43-.396.579-.477-.149-.389-.63-.516-.986l.1-.1c.684.41.982.3 1.142-.44.167-.864.285-1.737.442-2.587a1.665 1.665 0 0 1 .886-1.274l.176.006Zm-.896 2.972c.144-.262.157-.437-.036-.621a.446.446 0 0 0 .036.62Z" fill="#04B4E6"/><path d="M40.38 10.985c-.447-.145-.542-.35-.238-.708a.644.644 0 0 0 .033-.905c-.265-.379-.19-.738.036-1.184.225-.446.739-.954.183-1.588-.422.291-.654.896-1.308.776l-.033-.029a1.505 1.505 0 0 1 .798-.882c.605-.324 1.07-.075 1.07.607 0 1.09-.298 2.141-.462 3.211-.03.214-.111.405.026.602l-.104.1Z" fill="#04B4E6"/><path d="M39.083 7.376c-.005.319.086.632.261.9.21.3.095.607.105.879-.183.255-.396 0-.625.142 0 .695.16 1.468-.46 2.176a.803.803 0 0 1-.982-.355l.023-.023c.883.016.883.016 1.04-.828.049-.271.085-.55.147-.818.157-.701.101-1.448.47-2.102l.02.03Z" fill="#04B4E6"/><path d="M44.177 5.165h.255v.12l-.036.045a2.438 2.438 0 0 0-1.22.126 2.413 2.413 0 0 0-1 .705c-.913-1.145-1.75-1.139-3.27 0-.226-.256-.242-.718-.72-.734v-.253a.868.868 0 0 1 .53.22.533.533 0 0 0 .63.104.53.53 0 0 0 .175-.143c.513-.504 1.19-.39 1.684-.194.889.36 1.66.169 2.468-.116l.504.12Z" fill="#15B4D9"/><path d="M38.164 5.174v.243c-.625.145-.654.223-.53.792.101.435.126.883.072 1.326-.13 1.145-.478 2.263-.428 3.424l-.03.03c-.399-.237-.288-.59-.186-.913.183-.6.363-1.186-.04-1.778a.32.32 0 0 1 .07-.414c.761-.459.428-1.103.274-1.681-.154-.58.176-1.07.798-1.029ZM46.204 10.325c.036-.514.069-.995.108-1.52.615.489.562 1.116-.108 1.52Z" fill="#04B4E6"/><path d="M43.902 8.395V7.102c0-.372-.235-.45-.523-.498l-.124-.117-.043-.055c.69-.168.981.04.952.712-.011.44-.086.875-.223 1.293l-.039-.042Z" fill="#15B4D9"/><path d="m43.67 10.836-.147.017c-.042-.435 0-.874.124-1.294v-.262a1.405 1.405 0 0 1 .252-.908l.052.035c-.006.818-.304 1.598-.281 2.412ZM45.609 7.367c0 .18-.098.262-.285.236 0-.492.099-.97-.02-1.475l.174-.048c.124.417.168.853.131 1.287Z" fill="#15B4D9"/><path d="m44.177 5.165-.527-.12c0-.188 0-.378.24-.482.248.12.284.346.287.602ZM39.56 7.82a.32.32 0 0 1 .121-.344.329.329 0 0 1 .118-.054c.035.026.091.042.1.074.145.388-.221.22-.34.323ZM45.478 6.08l-.173.048a.15.15 0 0 0-.101-.168.07.07 0 0 1-.023-.074l.026-.185c0-.08.02-.18.118-.19.098-.01.137.068.137.155.016.126.016.272.016.414Z" fill="#04B4E6"/><path d="M44.697 5.3a.248.248 0 0 1 .252.148c.014.032.02.067.02.101l-.043.042-.517-.255.036-.045.252.01Z" fill="#15B4D9"/><path d="M43.65 9.304v.262c-.068-.036-.186-.059-.196-.104-.032-.142.102-.139.196-.158ZM44.697 5.3h-.252v-.12c.196-.21.226-.044.252.12ZM40.642 12.715c.026.023.072.045.075.068a.08.08 0 0 1-.03.076.082.082 0 0 1-.08.011.11.11 0 0 1-.043-.093c.003-.026.052-.042.078-.062Z" fill="#04B4E6"/><path d="m43.127 6.594-.176-.026a.367.367 0 0 1 .274-.149l.043.055a.707.707 0 0 0 0 .117l-.14.003Z" fill="#15B4D9"/><path d="m37.37 11.118-.125-.13.03-.029.117.136-.023.023Z" fill="#04B4E6"/><path d="m45.217 5.685-.026.185-.125-.159.033-.035c.039.006.078.01.118.01Z" fill="#15B4D9"/><path d="m44.968 5.556.13.126-.032.036-.14-.12.042-.042Z" fill="#15B4D9"/><path d="M43.258 6.59a.707.707 0 0 1 0-.116l.124.117h-.124Z" fill="#04B4E6"/><path d="m44.926 5.591.14.12.124.159a.07.07 0 0 0 .023.074.147.147 0 0 0 .102.168c.117.492 0 .97.02 1.475l-.043.129-.056.278c-.232.97-.258 1.995-.556 2.962l-.14.136a.188.188 0 0 0-.118.029h-.399l-.373-.294c-.023-.815.275-1.595.285-2.406.136-.419.211-.854.222-1.294.04-.672-.261-.88-.951-.711a.373.373 0 0 0-.275.149c-.24.126-.446.308-.6.53a1.664 1.664 0 0 0-.286.744c-.157.866-.275 1.74-.442 2.603-.147.74-.457.85-1.14.44-.138-.198-.056-.388-.027-.602.164-1.07.465-2.121.461-3.21 0-.683-.464-.945-1.069-.609a1.526 1.526 0 0 0-.798.883c-.37.647-.327 1.4-.47 2.102-.063.268-.099.546-.148.818-.157.844-.157.844-1.04.828l-.117-.136c-.05-1.16.297-2.264.428-3.424a3.82 3.82 0 0 0-.072-1.326c-.134-.57-.095-.647.53-.792.477 0 .494.478.72.734 1.53-1.129 2.367-1.135 3.269 0 .27-.32.62-.564 1.014-.709.394-.144.82-.184 1.236-.116l.546.268Z" fill="#E2F9FA"/><path d="M44.68 10.979c.298-.97.327-1.986.556-2.962a.768.768 0 0 1 .089.727 8.78 8.78 0 0 0-.252 1.617.62.62 0 0 1-.393.618ZM43.663 10.836l.373.295c-.353.187-.337-.078-.373-.295ZM44.435 11.124a.188.188 0 0 1 .118-.029c0 .065.04.149-.062.168-.01.004-.026-.09-.056-.139ZM45.292 7.739l.042-.13-.042.13ZM44.55 11.105l.14-.136-.14.136Z" fill="#15B4D9"/><path d="M42.231 9.566a.447.447 0 0 1-.036-.621c.193.184.18.359.036.62Z" fill="#00B7EE"/><path d="M45.315 6.112a.147.147 0 0 1-.101-.168.15.15 0 0 1 .101.168Z" fill="#15B4D9"/></g><defs><clipPath id="a"><path fill="#fff" d="M0 0h48v20H0z"/></clipPath></defs></svg>