<svg width="130" height="30" fill="none" xmlns="http://www.w3.org/2000/svg"><path fill-rule="evenodd" clip-rule="evenodd" d="M7.537 6.15a5.491 5.491 0 0 1 7.5-2.008c6.144 3.546 9.607 9.946 9.7 16.535a5.49 5.49 0 0 1-5.413 5.566c-3.032.042-5.366-2.148-5.567-5.674-.2-3.527-1.68-5.461-4.032-6.819-2.852-1.646-3.704-4.974-2.188-7.6Zm3.443 14.603a5.49 5.49 0 1 1-10.98 0 5.49 5.49 0 0 1 10.98 0Zm22.22 5.49a5.49 5.49 0 0 0 5.448-5.531c-.065-8.67-7.423-15.665-16.938-17.035-.8-.115-1.402.85-.531 1.586 4.266 3.602 6.448 10.023 6.49 15.531a5.49 5.49 0 0 0 5.53 5.45Z" fill="url(#a)"/><path d="M110.206 7.035V20.12c0 2.881-.73 5.023-2.191 6.425-1.46 1.401-3.582 2.102-6.366 2.102-1.48 0-2.882-.185-4.205-.555-1.305-.37-2.405-.905-3.3-1.606l1.81-3.27c.662.544 1.47.973 2.424 1.284a9.263 9.263 0 0 0 2.891.468c1.519 0 2.629-.35 3.33-1.052.7-.7 1.051-1.771 1.051-3.212v-.526a5.952 5.952 0 0 1-2.074 1.344 7.002 7.002 0 0 1-2.57.467c-2.063 0-3.699-.584-4.906-1.752-1.207-1.188-1.81-2.96-1.81-5.316V7.036h4.555v7.214c0 2.55 1.061 3.825 3.184 3.825 1.09 0 1.966-.35 2.628-1.05.662-.721.993-1.782.993-3.184V7.035h4.556ZM83.197 22.98c-1.655 0-3.144-.34-4.468-1.021-1.304-.701-2.326-1.665-3.066-2.892-.74-1.226-1.11-2.618-1.11-4.176 0-1.557.37-2.95 1.11-4.176.74-1.226 1.762-2.18 3.066-2.862 1.324-.7 2.813-1.051 4.468-1.051 1.655 0 3.135.35 4.44 1.051 1.304.682 2.326 1.636 3.066 2.862.74 1.227 1.11 2.619 1.11 4.176 0 1.558-.37 2.95-1.11 4.176-.74 1.227-1.762 2.19-3.067 2.892-1.304.681-2.784 1.022-4.439 1.022Zm0-3.737c1.168 0 2.123-.39 2.862-1.168.76-.799 1.14-1.86 1.14-3.184s-.38-2.375-1.14-3.154c-.74-.798-1.694-1.197-2.862-1.197-1.168 0-2.132.399-2.89 1.197-.76.779-1.14 1.83-1.14 3.154 0 1.324.38 2.385 1.14 3.184.758.778 1.722 1.168 2.89 1.168ZM65.797 6.802c1.966 0 3.524.584 4.673 1.752 1.168 1.149 1.752 2.881 1.752 5.198v8.995h-4.556v-8.294c0-1.246-.263-2.17-.788-2.774-.507-.623-1.237-.935-2.19-.935-1.072 0-1.919.35-2.541 1.052-.623.681-.935 1.703-.935 3.066v7.885h-4.556v-8.294c0-2.472-.993-3.709-2.979-3.709-1.05 0-1.888.35-2.511 1.052-.623.681-.935 1.703-.935 3.066v7.885h-4.556V7.035h4.352v1.811a5.776 5.776 0 0 1 2.132-1.519c.856-.35 1.791-.525 2.803-.525 1.11 0 2.113.224 3.008.671a5.223 5.223 0 0 1 2.161 1.899 6.472 6.472 0 0 1 2.424-1.899c.993-.447 2.074-.671 3.242-.671ZM121.385 22.98c-1.655 0-3.144-.34-4.468-1.021-1.305-.701-2.327-1.665-3.067-2.892-.74-1.226-1.11-2.618-1.11-4.176 0-1.557.37-2.95 1.11-4.176.74-1.226 1.762-2.18 3.067-2.862 1.324-.7 2.813-1.051 4.468-1.051 1.655 0 3.134.35 4.439 1.051 1.304.682 2.326 1.636 3.066 2.862.74 1.227 1.11 2.619 1.11 4.176 0 1.558-.37 2.95-1.11 4.176-.74 1.227-1.762 2.19-3.066 2.892-1.305.681-2.784 1.022-4.439 1.022Zm0-3.737c1.168 0 2.122-.39 2.862-1.168.759-.799 1.139-1.86 1.139-3.184s-.38-2.375-1.139-3.154c-.74-.798-1.694-1.197-2.862-1.197-1.168 0-2.132.399-2.891 1.197-.76.779-1.139 1.83-1.139 3.154 0 1.324.379 2.385 1.139 3.184.759.778 1.723 1.168 2.891 1.168Z" fill="#2A3037"/><defs><radialGradient id="a" cx="0" cy="0" r="1" gradientUnits="userSpaceOnUse" gradientTransform="matrix(27.98611 .23511 -.23406 27.86132 5.41 20.89)"><stop stop-color="#425AD5"/><stop offset="1" stop-color="#566FEE"/></radialGradient></defs></svg>