<svg width="40" height="24" fill="none" xmlns="http://www.w3.org/2000/svg"><path fill-rule="evenodd" clip-rule="evenodd" d="M7.8 2.841A5.683 5.683 0 0 1 15.564.762c6.36 3.67 9.943 10.294 10.039 17.114A5.681 5.681 0 0 1 20 23.636c-3.138.044-5.554-2.223-5.762-5.873-.207-3.65-1.74-5.652-4.173-7.056C7.114 9.003 6.232 5.558 7.8 2.84Zm3.564 15.113a5.682 5.682 0 1 1-11.364 0 5.682 5.682 0 0 1 11.364 0Zm22.996 5.682A5.682 5.682 0 0 0 40 17.912C39.933 8.939 32.317 1.699 22.47.28c-.828-.12-1.452.88-.55 1.641 4.415 3.729 6.673 10.374 6.716 16.075a5.682 5.682 0 0 0 5.724 5.64Z" fill="url(#a)"/><defs><radialGradient id="a" cx="0" cy="0" r="1" gradientUnits="userSpaceOnUse" gradientTransform="matrix(28.96458 .24333 -.24225 28.83548 5.598 18.095)"><stop stop-color="#425AD5"/><stop offset="1" stop-color="#566FEE"/></radialGradient></defs></svg>