<svg width="28" height="28" viewBox="0 0 28 28" fill="none" xmlns="http://www.w3.org/2000/svg">
<circle cx="14" cy="14" r="14" fill="#F1FFF5"/>
<path d="M14.1064 11.7143H15.7107C15.934 11.7097 16.1565 11.7428 16.3692 11.8122C16.541 11.8691 16.6992 11.962 16.8336 12.0849C16.9549 12.2002 17.0485 12.3424 17.1072 12.5004C17.1679 12.6667 17.1981 12.843 17.1962 13.0204V13.1535C17.1976 13.3326 17.1649 13.5103 17.0999 13.6767C17.0364 13.8379 16.9402 13.9837 16.8176 14.1045C16.6837 14.2331 16.5254 14.3325 16.3524 14.3967C16.1467 14.4723 15.9293 14.5088 15.7107 14.5045H14.7233V16.2857H14.1064V11.7143ZM14.7233 12.2596V13.9592H15.6056C16.2526 13.9592 16.5764 13.6871 16.577 13.1428V13.0286C16.577 12.7668 16.4992 12.5733 16.3436 12.4482C16.1879 12.3233 15.9641 12.2612 15.6738 12.2612L14.7233 12.2596Z" fill="#333333"/>
<path d="M18.7792 16.3363C18.4343 16.3363 18.161 16.2498 17.9594 16.0767C17.8589 15.9885 17.7795 15.878 17.7272 15.7538C17.6749 15.6296 17.6512 15.4949 17.6578 15.36V15.1886C17.653 15.0538 17.6767 14.9196 17.7272 14.795C17.7777 14.6704 17.8539 14.5582 17.9506 14.4661C18.1458 14.28 18.4613 14.1869 18.8971 14.1869H19.7634V13.9845C19.7634 13.7516 19.7083 13.5793 19.5981 13.4677C19.4883 13.3551 19.3086 13.2996 19.0591 13.2996C18.8814 13.2957 18.7047 13.3279 18.5393 13.3943C18.3796 13.4649 18.2263 13.5498 18.0813 13.6482L17.7821 13.1918C17.9575 13.0683 18.1458 12.9651 18.3436 12.8841C18.5737 12.7934 18.8189 12.7494 19.0655 12.7543C19.2427 12.7524 19.4191 12.7769 19.5893 12.8269C19.7377 12.871 19.8761 12.9442 19.9968 13.0424C20.1106 13.1368 20.2021 13.2559 20.2647 13.391C20.3314 13.5369 20.3652 13.6962 20.3634 13.8571V16.2857H19.7834V15.8677H19.7778C19.7419 15.9326 19.6958 15.991 19.6415 16.0408C19.5856 16.0937 19.5237 16.1395 19.457 16.1771C19.3633 16.2291 19.2636 16.2688 19.1602 16.2955C19.0353 16.3246 18.9073 16.3383 18.7792 16.3363V16.3363ZM19.7634 14.7037H18.9099C18.6736 14.7037 18.5043 14.7502 18.4022 14.8433C18.3504 14.8924 18.3099 14.9525 18.2835 15.0194C18.2572 15.0863 18.2457 15.1583 18.2498 15.2302V15.3224C18.2441 15.3939 18.2572 15.4656 18.2878 15.5302C18.3184 15.5947 18.3654 15.6498 18.4238 15.6898C18.5486 15.7679 18.6929 15.8076 18.8393 15.8041C18.971 15.8066 19.1022 15.7884 19.2284 15.7502C19.3378 15.7142 19.4401 15.6589 19.5308 15.5869C19.6075 15.5309 19.6686 15.4555 19.708 15.3682C19.7467 15.2662 19.7648 15.1574 19.761 15.0482L19.7634 14.7037Z" fill="#333333"/>
<path d="M22.4673 15.5886L23.3641 12.8171H24.0002L22.2307 17.7192L21.6821 17.5224L22.128 16.3363L20.8848 12.8171H21.5393L22.4425 15.5886H22.4673Z" fill="#333333"/>
<path d="M11.8608 10H4V18H11.8608V10Z" fill="#00C73C"/>
<path d="M8.55537 15.831L7.28722 13.9355V15.831H5.96533V12.1689H7.30567L8.57382 14.0645V12.1689H9.89571V15.831H8.55537Z" fill="white"/>
</svg>
