<svg viewBox="0 0 24 24" fill="none" xmlns="http://www.w3.org/2000/svg"><path d="M19.6966 8.03021L20.219 7.49211L19.6966 8.03021ZM13.7767 2.28253L14.2992 1.74444L13.7767 2.28253ZM17 21.25H7V22.75H17V21.25ZM4.75 19V5H3.25V19H4.75ZM7 2.75H13.0801V1.25H7V2.75ZM19.25 8.74767V19H20.75V8.74767H19.25ZM13.2543 2.82063L19.1741 8.56831L20.219 7.49211L14.2992 1.74444L13.2543 2.82063ZM20.75 8.74767C20.75 8.27459 20.5585 7.82166 20.219 7.49211L19.1741 8.56831C19.2226 8.61538 19.25 8.68009 19.25 8.74767H20.75ZM13.0801 2.75C13.1451 2.75 13.2076 2.77534 13.2543 2.82063L14.2992 1.74444C13.9726 1.42736 13.5353 1.25 13.0801 1.25V2.75ZM7 21.25C5.75736 21.25 4.75 20.2426 4.75 19H3.25C3.25 21.0711 4.92893 22.75 7 22.75V21.25ZM17 22.75C19.0711 22.75 20.75 21.0711 20.75 19H19.25C19.25 20.2426 18.2426 21.25 17 21.25V22.75ZM4.75 5C4.75 3.75736 5.75736 2.75 7 2.75V1.25C4.92893 1.25 3.25 2.92893 3.25 5H4.75Z" fill="currentColor"></path><path d="M9.5 14C9.5 14 10.4375 13 12 13C13.5625 13 14.5 14 14.5 14" stroke="currentColor" stroke-width="1.5" stroke-linecap="round" stroke-linejoin="round"></path><path d="M7.5 11C7.5 11 9.10714 9.5 12 9.5C14.8929 9.5 16.5 11 16.5 11" stroke="currentColor" stroke-width="1.5" stroke-linecap="round" stroke-linejoin="round"></path><path d="M12.5 17C12.5 16.7238 12.2761 16.5 12 16.5C11.7238 16.5 11.5 16.7239 11.5 17C11.5 17.2761 11.7239 17.5 12 17.5C12.2761 17.5 12.5 17.2761 12.5 17Z" fill="currentColor" stroke="currentColor" stroke-width="1.5" stroke-linecap="round" stroke-linejoin="round"></path></svg>