<svg width="48" height="20" viewBox="0 0 48 20" fill="none" xmlns="http://www.w3.org/2000/svg">
<path d="M4.09602 2C4.97482 2.28287 5.24638 2.92028 5.137 3.76891C5.08042 4.22151 5.23883 4.40632 5.71406 4.36106C6.13321 4.32521 6.55465 4.32521 6.9738 4.36106C7.55086 4.40632 7.82242 4.78726 7.81865 5.49256C7.81488 6.19786 7.53577 6.56748 6.96248 6.62405C6.63057 6.65045 6.29867 6.62405 5.96676 6.62405C5.01253 6.62405 5.15963 6.50336 5.14077 7.40856C5.14225 7.62718 5.12458 7.84551 5.08797 8.06105C4.95973 8.68715 4.61651 8.90968 3.86595 8.88705C3.11539 8.86442 2.7948 8.59286 2.70428 7.96676C2.69551 7.84119 2.69551 7.71517 2.70428 7.5896C2.70428 6.63914 2.70428 6.63914 1.70856 6.63914H1.16167C0.346992 6.60897 0 6.24312 0 5.4473C0 4.65148 0.377166 4.3686 1.16921 4.35351H1.2371C1.67462 4.33088 2.20265 4.51947 2.52701 4.27808C2.85137 4.0367 2.64016 3.50866 2.64016 3.09378C2.68919 2.41488 3.22477 2.24516 3.7 2H4.09602Z" fill="#049CD1"/>
<path d="M47.8133 15.2008C47.4603 15.7364 46.9191 16.12 46.2968 16.2757C45.6746 16.4315 45.0165 16.348 44.4528 16.0419C44.1473 15.8722 43.8883 15.6299 43.6984 15.3366C43.5212 15.0914 43.525 14.9179 43.887 14.9405C44.3736 14.9707 44.8941 14.7934 45.3278 15.2045C45.4079 15.2663 45.5035 15.3046 45.604 15.3152C45.7046 15.3259 45.8061 15.3085 45.8973 15.2649C46.0708 15.1932 46.2217 15.1027 46.2368 14.8877C46.2519 14.6727 46.0331 14.6237 45.8596 14.5822C45.5202 14.4917 45.1656 14.4578 44.8262 14.3597C44.0945 14.1447 43.6947 13.7147 43.6947 13.1528C43.6947 12.5908 44.0907 12.0778 44.8035 11.8402C45.1559 11.7079 45.5336 11.6568 45.9084 11.6907C46.2833 11.7247 46.6456 11.8428 46.9685 12.0364C47.2038 12.164 47.3937 12.3617 47.5116 12.6021C47.6398 12.885 47.6738 13.1301 47.2325 13.0962C46.7912 13.0622 46.3499 13.2169 45.9878 12.8322C45.9187 12.775 45.8342 12.7396 45.745 12.7302C45.6558 12.7208 45.5658 12.7379 45.4862 12.7794C45.3353 12.8359 45.1883 12.9001 45.1769 13.0811C45.1656 13.2621 45.324 13.3376 45.4749 13.3715C45.6258 13.4055 45.8521 13.447 46.0595 13.4809C46.8138 13.6054 47.4852 13.8882 47.8133 14.6577V15.2008Z" fill="#D70894"/>
<path d="M47.8133 8.33638C47.3079 8.33638 46.7987 8.33638 46.3046 8.33638C46.1915 8.33638 46.0142 8.27226 45.9916 8.46839C45.969 8.66452 46.1274 8.73618 46.2896 8.74749C46.6403 8.76635 46.9911 8.7739 47.3456 8.77012C47.5908 8.77012 47.7228 8.84933 47.7002 9.10957C47.6775 9.36982 47.6323 9.48674 47.3645 9.46788C47.2388 9.46103 47.1129 9.46103 46.9873 9.46788C45.1467 9.5848 45.2448 8.76258 45.2938 7.6424C45.2839 7.3978 45.3635 7.15798 45.5176 6.96778C45.6717 6.77758 45.8898 6.65002 46.1311 6.60896C46.8855 6.45055 47.3871 6.60896 47.6851 7.14077C47.7379 7.22751 47.7115 7.36329 47.8435 7.40478L47.8133 8.33638ZM46.5385 7.80835C46.6554 7.67257 47.0175 7.96299 47.0099 7.58205C47.0099 7.31803 46.7271 7.29163 46.5008 7.28032C46.2745 7.269 46.0142 7.38215 46.0255 7.62354C46.0369 7.86493 46.3348 7.73669 46.5385 7.80835Z" fill="#0EA0D3"/>
<path d="M8.24109 6.62029C8.45415 6.28042 8.56526 5.88658 8.56125 5.48547C8.55724 5.08437 8.43827 4.69283 8.21846 4.35729C10.3419 4.4629 12.3975 4.14231 14.4191 4.63262C16.1653 5.05882 16.799 5.8999 16.799 7.68012C16.799 8.20815 16.799 8.73619 16.799 9.26422C16.8053 9.77479 16.657 10.2753 16.3736 10.7001C16.0902 11.1248 15.685 11.4539 15.2111 11.6441C14.4649 11.9849 13.6553 12.1648 12.835 12.1722C10.572 12.1986 8.30898 12.191 6.04598 12.1986C5.35954 12.1986 5.35954 12.1986 5.35954 12.8775C5.35954 13.6318 5.35954 14.3861 5.35954 15.1178C5.35954 15.9476 4.94466 16.2795 4.01683 16.2493C3.15312 16.2493 2.77218 15.8986 2.76464 15.0801C2.76464 14.0052 2.76464 12.9265 2.76464 11.8516C2.73695 11.451 2.85377 11.0538 3.0939 10.732C3.33402 10.4103 3.68155 10.1852 4.07341 10.0978C4.56381 9.959 5.07267 9.89667 5.58207 9.91294C7.77215 9.91294 9.96222 9.91294 12.1523 9.91294C12.3953 9.92 12.6386 9.90992 12.8802 9.88277C14.0117 9.72436 14.2079 9.5056 14.2079 8.37411C14.2079 7.01254 13.9099 6.67686 12.5257 6.6316C11.3338 6.59388 10.1382 6.6316 8.94262 6.6316L8.24109 6.62029Z" fill="#D70392"/>
<path d="M32.1157 16.0494C32.1157 16.5058 32.0968 16.9848 32.1157 17.4638C32.1157 17.8711 31.9648 18.0333 31.5688 17.9918C31.4584 17.9805 31.3472 17.9805 31.2369 17.9918C30.8069 18.0409 30.6523 17.8711 30.6598 17.4299C30.6824 15.9212 30.6598 14.4427 30.6598 12.9454C30.6707 12.7483 30.6568 12.5506 30.6183 12.357C30.4599 11.7648 30.4486 11.746 31.0785 11.7686C31.433 11.7686 31.8328 11.6177 32.1307 11.9911C32.2552 12.1495 32.4023 11.9534 32.5305 11.9006C32.9872 11.6954 33.5013 11.6566 33.9836 11.7909C34.4659 11.9253 34.8859 12.2243 35.1707 12.6361C35.4682 13.0491 35.6245 13.5471 35.6163 14.0561C35.6082 14.565 35.436 15.0578 35.1254 15.4611C34.8331 15.8549 34.4146 16.1367 33.9397 16.2596C33.4648 16.3824 32.9621 16.3389 32.5155 16.1362C32.4136 16.0909 32.3193 15.9551 32.1157 16.0494ZM33.1302 15.0839C33.4091 15.0875 33.6787 14.9845 33.8841 14.7959C34.0895 14.6073 34.2152 14.3474 34.2353 14.0693C34.2358 13.78 34.1254 13.5015 33.9269 13.2911C33.7284 13.0806 33.4568 12.9542 33.168 12.9378C32.8849 12.9328 32.6114 13.0405 32.4077 13.2371C32.204 13.4337 32.0867 13.7033 32.0817 13.9863C32.0767 14.2694 32.1844 14.5429 32.381 14.7466C32.5776 14.9503 32.8471 15.0676 33.1302 15.0726V15.0839Z" fill="#D70693"/>
<path d="M22.2188 14.043C22.1321 13.4584 22.3848 12.7418 22.0529 12.0704C21.9586 11.8818 22.0717 11.7536 22.2603 11.7762C22.7242 11.8252 23.2296 11.5839 23.6483 11.9572C23.7992 12.0893 23.8934 11.9572 23.9915 11.8931C24.2776 11.7536 24.5951 11.6908 24.9129 11.711C25.2306 11.7311 25.5376 11.8335 25.8038 12.008C26.07 12.1826 26.2863 12.4234 26.4315 12.7067C26.5766 12.9901 26.6456 13.3063 26.6317 13.6243C26.5921 14.3265 26.5921 15.0305 26.6317 15.7327C26.6317 16.3324 26.2545 16.2532 25.8773 16.2607C25.5002 16.2683 25.1645 16.2871 25.1909 15.7364C25.2211 15.1217 25.1909 14.5069 25.1909 13.8921C25.1909 13.2773 24.8929 12.9379 24.4252 12.9379C23.9576 12.9379 23.6709 13.2698 23.6709 13.8921C23.6709 14.5144 23.6445 15.1217 23.6709 15.7364C23.7011 16.2871 23.3541 16.2607 22.9807 16.2569C22.6073 16.2532 22.2 16.3248 22.2264 15.7251C22.2528 15.2009 22.2188 14.6728 22.2188 14.043Z" fill="#D80A95"/>
<path d="M19.2355 14.0429C19.2051 14.6586 18.9374 15.2386 18.4885 15.6611C18.0397 16.0836 17.4446 16.3159 16.8282 16.309C16.2118 16.3022 15.6221 16.0568 15.1827 15.6245C14.7433 15.1921 14.4886 14.6063 14.4718 13.9901C14.5022 13.3744 14.7699 12.7945 15.2188 12.3719C15.6676 11.9494 16.2627 11.7172 16.8791 11.724C17.4955 11.7309 18.0852 11.9762 18.5246 12.4086C18.964 12.841 19.2187 13.4267 19.2355 14.0429ZM16.848 12.9378C16.5842 12.9572 16.3384 13.0788 16.1629 13.2768C15.9875 13.4748 15.8963 13.7334 15.9088 13.9977C15.8898 14.2613 15.9739 14.522 16.1436 14.7247C16.3132 14.9274 16.555 15.0562 16.8178 15.0839C16.9542 15.0809 17.0884 15.0498 17.2122 14.9926C17.336 14.9353 17.4467 14.8532 17.5373 14.7512C17.6279 14.6493 17.6966 14.5297 17.7389 14.4001C17.7812 14.2704 17.7964 14.1334 17.7834 13.9977C17.7959 13.734 17.7053 13.4759 17.5306 13.278C17.356 13.0802 17.1111 12.9581 16.848 12.9378Z" fill="#D70894"/>
<path d="M42.9101 13.4848C42.9101 13.9034 42.9328 14.3221 42.9101 14.737C42.9053 15.0595 42.7972 15.372 42.6017 15.6286C42.4062 15.8852 42.1336 16.0724 41.8239 16.1626C41.1305 16.4059 40.375 16.4059 39.6816 16.1626C38.9273 15.9137 38.5501 15.3668 38.5501 14.4918C38.5501 13.9864 38.5501 13.481 38.5501 12.9831C38.5369 12.83 38.5369 12.6761 38.5501 12.523C38.5954 12.2741 38.1465 11.9836 38.4709 11.8403C38.9134 11.6968 39.39 11.6968 39.8325 11.8403C40.0399 11.8894 39.9909 12.127 39.9946 12.3005C39.9946 12.9379 39.9946 13.5753 39.9946 14.2127C39.9946 14.8501 40.2398 15.0877 40.7263 15.1066C41.2129 15.1254 41.4807 14.835 41.5033 14.2014C41.5259 13.5677 41.5033 12.9266 41.5033 12.2929C41.5033 11.6593 41.9861 11.8252 42.3482 11.7875C42.7102 11.7498 42.9818 11.8629 42.9441 12.3231C42.9139 12.7003 42.9441 13.1114 42.9441 13.5074L42.9101 13.4848Z" fill="#D70894"/>
<path d="M27.6651 14.2918C27.6651 14.0089 27.6651 13.7223 27.6651 13.4356C27.677 13.3611 27.6682 13.2847 27.6396 13.2149C27.611 13.145 27.5637 13.0844 27.5029 13.0396C26.9183 12.6096 26.9372 12.2099 27.5406 11.7497C27.7632 11.58 27.6689 11.3424 27.6576 11.1425C27.6236 10.5126 28.0347 10.5843 28.4534 10.573C28.872 10.5616 29.17 10.6069 29.1021 11.1236C29.0418 11.5536 29.1097 11.8063 29.6754 11.8063C30.1091 11.7761 29.996 12.1834 30.0073 12.4512C30.0186 12.719 30.0488 13.0358 29.6301 12.9906C29.0946 12.9302 29.0644 13.232 29.0908 13.628C29.0908 13.9109 29.0908 14.1975 29.0908 14.4842C29.0908 14.8274 29.1625 15.1103 29.6037 15.0688C29.8904 15.0424 30.0148 15.1744 29.9809 15.4459C29.947 15.7175 30.1016 16.1211 29.6905 16.2304C29.2709 16.3784 28.817 16.3994 28.3855 16.2908C28.1915 16.2396 28.0186 16.1286 27.8913 15.9736C27.764 15.8185 27.6888 15.6273 27.6764 15.4271C27.6425 15.0499 27.6764 14.6727 27.6764 14.2956L27.6651 14.2918Z" fill="#D80A95"/>
<path d="M35.9703 10.3656C36.422 10.2857 36.882 10.2629 37.3394 10.2977C37.6411 10.2977 37.7166 10.5013 37.7166 10.7427C37.7166 12.4148 37.7166 14.0844 37.7166 15.7515C37.7166 16.4078 37.2263 16.223 36.8604 16.2569C36.4946 16.2908 36.2494 16.1966 36.2607 15.7213C36.2909 14.5144 36.2607 13.3075 36.2607 12.0968C36.2494 11.5159 36.3324 10.92 35.9703 10.3656Z" fill="#D70693"/>
<path d="M37.1847 8.3779C37.1847 8.61928 37.1847 8.86067 37.1847 9.10206C37.1847 9.34344 37.147 9.47922 36.8642 9.47922C36.5813 9.47922 36.487 9.35853 36.487 9.10206C36.487 8.72489 36.487 8.34772 36.487 7.97056C36.487 7.59339 36.487 7.29543 35.9967 7.28789C35.5064 7.28035 35.4649 7.62734 35.4686 8.00073C35.4724 8.37413 35.4686 8.70226 35.4686 9.05302C35.4686 9.29064 35.4686 9.48299 35.133 9.48677C34.7973 9.49054 34.7558 9.3359 34.7558 9.07943C34.7558 8.66077 34.7558 8.24589 34.7558 7.82724C34.7973 7.48401 34.6992 7.28035 34.3221 7.28035C33.9449 7.28035 33.7978 7.47647 33.7827 7.79706C33.7601 8.21194 33.7827 8.6306 33.7827 9.04548C33.7827 9.2831 33.7827 9.47545 33.4508 9.48299C33.1189 9.49054 33.0736 9.33967 33.0736 9.07943C33.0736 8.3779 33.0736 7.6726 33.0736 6.97107C33.0736 6.68442 33.1717 6.55619 33.4508 6.5939C33.9713 6.68065 34.5144 6.46944 35.016 6.73723C35.1443 6.80512 35.265 6.73723 35.3932 6.70328C36.5549 6.35252 37.3281 6.80889 37.1998 8.04599C37.1871 8.15614 37.182 8.26705 37.1847 8.3779Z" fill="#089DD2"/>
<path d="M21.3212 14.0128C21.3212 14.5408 21.3212 15.0651 21.3212 15.5931C21.3212 16.2418 21.2872 16.2607 20.5669 16.2569C19.8465 16.2531 19.8842 16.2569 19.8804 15.6195C19.8804 14.7445 19.8804 13.8657 19.8804 12.9793C19.9136 12.6943 19.8624 12.4058 19.7333 12.1496C19.5447 11.8478 19.6994 11.7724 19.986 11.7498C21.2722 11.6178 21.3136 11.6517 21.3136 12.9492L21.3212 14.0128Z" fill="#D80C95"/>
<path d="M42.582 8.03469C42.6876 9.27179 41.8767 9.56221 41.1111 9.44529C40.8653 9.42878 40.6356 9.31713 40.4708 9.13403C40.306 8.95093 40.2191 8.71081 40.2285 8.46466C40.2021 7.65375 40.2285 6.84284 40.2285 6.02817C40.2285 5.73398 40.3454 5.651 40.6057 5.651C40.8659 5.651 40.9376 5.8245 40.9036 6.02817C40.8282 6.49208 41.0017 6.60523 41.4731 6.59392C42.2954 6.59392 42.582 7.0088 42.582 8.03469ZM40.9036 8.03469C40.9036 8.41185 40.881 8.78902 41.4053 8.78902C41.9295 8.78902 41.9144 8.37791 41.9107 8.03469C41.9069 7.69147 41.888 7.33693 41.4203 7.32185C40.9527 7.30676 40.8961 7.65752 40.9036 8.03469Z" fill="#0A9ED2"/>
<path d="M39.8815 8.09495C39.8815 9.10576 39.4742 9.53572 38.5879 9.47538C38.309 9.48249 38.0387 9.379 37.8359 9.1875C37.6331 8.996 37.5143 8.73205 37.5054 8.45326C37.4941 8.2573 37.4941 8.06084 37.5054 7.86488C37.528 6.97477 37.909 6.57874 38.7236 6.58629C39.5383 6.59383 39.8815 6.96345 39.8891 7.89882L39.8815 8.09495ZM39.1913 8.09495C39.1913 7.69515 39.2177 7.30667 38.701 7.29913C38.2409 7.29913 38.1956 7.63481 38.2031 7.9818C38.2107 8.32879 38.1541 8.73613 38.6708 8.76631C39.1875 8.79648 39.2253 8.41177 39.1913 8.08741V8.09495Z" fill="#11A1D3"/>
<path d="M44.8563 7.54436C44.8563 8.04976 44.8563 8.55516 44.8563 9.05302C44.8563 9.29441 44.8337 9.47922 44.5093 9.48676C44.185 9.49431 44.1322 9.30949 44.1322 9.03039C44.1322 8.04222 44.1322 7.05404 44.1322 6.0621C44.1322 5.81694 44.1586 5.63967 44.4754 5.63213C44.7922 5.62459 44.8752 5.80185 44.8526 6.08473C44.8488 6.57504 44.8563 7.05782 44.8563 7.54436Z" fill="#2CABD8"/>
<path d="M43.6796 8.06483C43.6796 8.4156 43.6796 8.76636 43.6796 9.11713C43.6796 9.36228 43.5966 9.47543 43.3363 9.49429C43.0761 9.51315 42.9969 9.3736 42.9969 9.11713C42.9969 8.39297 42.9969 7.66881 42.9969 6.94842C42.9969 6.70704 43.0648 6.57126 43.3326 6.59012C43.6004 6.60897 43.6796 6.69949 43.672 6.94842C43.672 7.31804 43.6796 7.69144 43.6796 8.06483Z" fill="#11A1D3"/>
<path d="M20.6084 11.4518C20.4115 11.4518 20.2225 11.375 20.0815 11.2375C19.9406 11.1001 19.8589 10.9131 19.854 10.7163C19.8618 10.5276 19.9368 10.3478 20.0654 10.2095C20.194 10.0712 20.3679 9.9834 20.5555 9.96198C20.7518 9.96498 20.9404 10.0388 21.0866 10.1697C21.2328 10.3007 21.3269 10.4801 21.3514 10.6748C21.3544 10.7748 21.3375 10.8744 21.3016 10.9678C21.2658 11.0612 21.2117 11.1466 21.1425 11.2189C21.0734 11.2912 20.9906 11.349 20.8988 11.389C20.8071 11.429 20.7084 11.4503 20.6084 11.4518Z" fill="#D80C95"/>
<path d="M43.6758 5.96404C43.6984 6.19411 43.6456 6.3412 43.3665 6.3412C43.0874 6.3412 42.9893 6.29594 42.9893 6.02438C42.9893 5.75282 42.9893 5.64722 43.2986 5.64722C43.5136 5.66608 43.7135 5.66985 43.6758 5.96404Z" fill="#11A1D3"/>
</svg>
