<svg width="61" height="20" viewBox="0 0 61 20" fill="none" xmlns="http://www.w3.org/2000/svg">
<path d="M2.53711 10.1099C2.05734 9.8852 1.66396 9.70321 1.66396 9.33772C1.66396 9.05712 1.88759 8.85328 2.33026 8.85328C2.47583 8.85453 2.62096 8.86934 2.76379 8.8975C2.83415 8.91135 2.90556 8.91918 2.97725 8.92089C3.36351 8.92089 3.58205 8.6901 3.72689 8.25243L3.78687 8.0735C3.3051 7.87623 2.78984 7.77371 2.26927 7.77155C0.958533 7.77155 0.266316 8.61182 0.266824 9.48412C0.266824 9.92434 0.404556 10.2431 0.622589 10.4942C0.900594 10.817 1.296 11.0289 1.66701 11.2099C2.20524 11.4748 2.69365 11.671 2.69365 12.0639C2.69365 12.4126 2.33382 12.6104 1.85201 12.6104C1.1913 12.6104 0.615474 12.2332 0.541779 12.1879L0 13.2036C0.0965648 13.2575 0.793356 13.6987 1.94146 13.6987C3.16479 13.6987 4.09028 12.9962 4.09028 11.9195C4.09028 10.8429 3.23238 10.4454 2.53711 10.1099Z" fill="#EA002C"/>
<path d="M7.32162 10.6106L9.54159 7.88953H7.95996L6.19028 10.2375H6.16385V7.88953H4.86023V13.6545H4.93697C5.50112 13.6545 6.17199 13.3933 6.17199 12.4518V11.1302H6.20045L8.00469 13.5844H9.66153L7.32162 10.6106Z" fill="#EA002C"/>
<path d="M17.4213 15.1729L23.2899 5.00623H11.5527L13.2167 7.88949H18.0292L15.6232 12.0578L17.4213 15.1729Z" fill="#3617CE"/>
<path d="M51.7892 5.00623H53.6804V13.5828H51.7892V5.00623Z" fill="#3617CE"/>
<path d="M50.4637 7.88953V13.5829H48.5726V7.88953H50.4637Z" fill="#3617CE"/>
<path d="M48.4578 6.06057C48.4578 5.77934 48.5695 5.50962 48.7683 5.31076C48.9671 5.1119 49.2368 5.00018 49.5179 5.00018C49.7991 5.00018 50.0688 5.1119 50.2676 5.31076C50.4664 5.50962 50.5781 5.77934 50.5781 6.06057C50.5781 6.19982 50.5507 6.33771 50.4974 6.46636C50.4441 6.59501 50.3661 6.71191 50.2676 6.81037C50.1692 6.90884 50.0523 6.98694 49.9237 7.04023C49.795 7.09352 49.6572 7.12095 49.5179 7.12095C49.3787 7.12095 49.2409 7.09352 49.1122 7.04023C48.9836 6.98694 48.8667 6.90884 48.7683 6.81037C48.6698 6.71191 48.5917 6.59501 48.5385 6.46636C48.4852 6.33771 48.4578 6.19982 48.4578 6.06057Z" fill="#3617CE"/>
<path d="M61 10.7361C61 8.96155 59.6054 7.77155 57.8403 7.77155C56.0752 7.77155 54.6806 8.96155 54.6806 10.7361C54.6806 12.5107 56.0752 13.6987 57.8403 13.6987C59.2883 13.6987 60.4862 12.8976 60.8699 11.6303H59.057C58.9173 11.9521 58.4944 12.25 57.8728 12.25C57.0978 12.25 56.619 11.7472 56.5967 11.1825H60.9705C60.9908 11.0346 61.0006 10.8854 61 10.7361ZM56.6175 10.1368C56.6581 9.6473 57.1054 9.21572 57.8428 9.21572C58.5803 9.21572 59.0275 9.6473 59.0687 10.1368H56.6175Z" fill="#3617CE"/>
<path d="M25.181 8.6108C25.5063 8.16245 26.045 7.77155 26.7256 7.77155C27.587 7.77155 28.1339 8.226 28.4673 8.79838C28.7641 8.33478 29.3821 7.77155 30.4093 7.77155C31.8526 7.77155 32.6455 8.8121 32.6455 10.1963V13.5828H30.7538V10.4769C30.7538 10.0702 30.6776 9.80844 30.5124 9.62544C30.4245 9.53249 30.3185 9.45846 30.2009 9.40787C30.0834 9.35728 29.9568 9.33118 29.8288 9.33118C29.7009 9.33118 29.5743 9.35728 29.4568 9.40787C29.3392 9.45846 29.2332 9.53249 29.1453 9.62544C28.9801 9.80844 28.9039 10.0707 28.9039 10.4769V13.5828H27.031V10.4769C27.031 10.0702 26.9543 9.80844 26.7896 9.62544C26.7016 9.53248 26.5956 9.45844 26.478 9.40784C26.3604 9.35724 26.2338 9.33114 26.1058 9.33114C25.9778 9.33114 25.8511 9.35724 25.7335 9.40784C25.616 9.45844 25.5099 9.53248 25.4219 9.62544C25.2573 9.80844 25.181 10.0707 25.181 10.4769V13.5828H23.2899V7.88948H25.181V8.6108Z" fill="#3617CE"/>
<path d="M44.6795 7.77156C44.0214 7.76293 43.3799 7.978 42.86 8.38156V5.00623H40.9689V13.5828H42.86V13.0028C43.3261 13.4578 43.9827 13.7008 44.6795 13.7008C46.2942 13.7008 47.5703 12.5102 47.5703 10.7362C47.5703 8.96208 46.2942 7.77156 44.6795 7.77156ZM44.3319 12.1407C43.5837 12.1407 42.9754 11.5576 42.9754 10.7362C42.9754 9.91469 43.5853 9.33113 44.3319 9.33113C45.0785 9.33113 45.6904 9.91469 45.6904 10.7362C45.6904 11.5576 45.0805 12.1407 44.3319 12.1407Z" fill="#3617CE"/>
<path d="M36.807 7.77155C35.0419 7.77155 33.6452 8.96155 33.6452 10.7361C33.6452 12.5107 35.0419 13.6987 36.807 13.6987C38.5721 13.6987 39.9667 12.5082 39.9667 10.7341C39.9667 8.96003 38.5721 7.77155 36.807 7.77155ZM36.807 12.1407C36.0873 12.1407 35.5018 11.5576 35.5018 10.7361C35.5018 9.91468 36.0873 9.33111 36.807 9.33111C37.5266 9.33111 38.1116 9.91468 38.1116 10.7361C38.1116 11.5576 37.5266 12.1407 36.807 12.1407Z" fill="#3617CE"/>
</svg>
