<svg width="64" height="20" viewBox="0 0 64 20" fill="none" xmlns="http://www.w3.org/2000/svg">
<g clip-path="url(#clip0_579_5438)">
<path d="M4.87233 8.7896C3.953 8.3587 3.19692 8.00944 3.19692 7.30823C3.19692 6.77295 3.62648 6.37819 4.47623 6.37819C4.7558 6.37961 5.03457 6.40829 5.30858 6.46383C5.44109 6.48864 5.57529 6.5034 5.71003 6.50799C6.45273 6.50799 6.87158 6.06505 7.15126 5.22467L7.26634 4.8821C6.34347 4.50297 5.35616 4.30532 4.35847 4.29999C1.84 4.29999 0.513863 5.91384 0.513863 7.58791C0.489875 8.29694 0.732416 8.98924 1.19366 9.52827C1.72893 10.1479 2.48635 10.5533 3.20094 10.8999C4.23535 11.4151 5.17074 11.7845 5.17074 12.5392C5.17074 13.2083 4.48024 13.5883 3.55689 13.5883C2.2883 13.5883 1.18296 12.8657 1.04111 12.7854L0 14.7271C0.186008 14.8315 1.52553 15.6799 3.72952 15.6799C6.07803 15.6786 7.86183 14.3337 7.86183 12.2608C7.86183 10.188 6.20918 9.43594 4.87233 8.7896Z" fill="#EA002C"/>
<path d="M14.059 9.75174L18.3184 4.53282H15.2834L11.8857 9.03581H11.8336V4.52881H9.33383V15.5929H9.48371C10.565 15.5929 11.8523 15.0924 11.8523 13.2859V10.746H11.9031L15.3677 15.4564H18.5512L14.059 9.75174Z" fill="#EA002C"/>
<path d="M61.9834 9.33561C61.5808 9.33195 61.1827 9.41992 60.8192 9.59288C60.4556 9.76584 60.1362 10.0192 59.8851 10.3339C59.5532 9.70629 58.9417 9.33561 58.1455 9.33561C57.7883 9.33159 57.4339 9.39861 57.1028 9.53277C56.7718 9.66694 56.4707 9.86557 56.2171 10.1171C56.169 9.93646 55.9334 9.44802 55.1841 9.44802C54.9958 9.45682 54.8086 9.48189 54.6247 9.52296C54.7436 10.1059 54.8015 10.6997 54.7973 11.2947V15.4565H56.3175V11.2104C56.3483 11.1836 56.9183 10.6069 57.6035 10.6069C58.2886 10.6069 58.6299 11.1194 58.6299 11.8113V15.4565H60.1594V11.2091C60.1915 11.1796 60.7509 10.6069 61.4454 10.6069C62.1399 10.6069 62.4624 11.1194 62.4624 11.8113V15.4565H64V11.5757C64 10.2148 63.2239 9.33026 61.9834 9.33026" fill="#FF7A00"/>
<path d="M45.2681 14.3591C44.2337 14.3591 43.4937 13.5401 43.4937 12.4709C43.4937 11.28 44.3341 10.5694 45.2681 10.5694C45.7713 10.5694 45.9841 10.7233 46.3173 10.7233C46.6746 10.7233 46.8633 10.5506 47.0399 10.2081C47.1362 10.0167 47.1938 9.90831 47.1938 9.90831C47.1188 9.8588 46.3467 9.33557 45.038 9.33557C43.1163 9.33557 41.9601 10.7126 41.9601 12.4709C41.9601 14.3886 43.2756 15.5929 45.038 15.5929C46.3106 15.5929 47.0827 15.0737 47.2192 14.976L46.6839 13.9322C46.2619 14.2057 45.771 14.3537 45.2681 14.3591Z" fill="#FF7A00"/>
<path d="M27.3739 11.8005C27.3739 11.1167 27.853 10.4811 28.5274 10.4811C29.2795 10.4811 29.6956 11.1354 29.7077 11.8005H27.3739ZM28.5502 9.33557C27.0902 9.33557 25.8564 10.5239 25.8564 12.4696C25.8564 14.4608 27.0527 15.5902 28.8379 15.5902C30.2563 15.5902 30.9937 14.9707 31.082 14.9131L30.9054 14.6268C30.7046 14.3002 30.4785 14.1959 30.2269 14.1959C29.7251 14.1959 29.6608 14.4033 28.9797 14.4033C27.8101 14.4033 27.406 13.4906 27.3739 12.8844H31.2867V12.4295C31.2867 10.564 30.2162 9.33557 28.5461 9.33557" fill="#FF7A00"/>
<path d="M33.8989 13.7703V7.53435C33.8989 6.83047 33.4292 6.28583 32.6945 6.28583H32.368V14.3832C32.368 15.1285 32.8283 15.5875 33.6312 15.5875C34.6228 15.5875 34.9186 14.8837 34.9186 14.2213C34.7731 14.288 34.6156 14.3244 34.4555 14.3283C34.38 14.3358 34.3038 14.3264 34.2323 14.3009C34.1608 14.2754 34.0958 14.2343 34.0421 14.1807C33.9883 14.1271 33.9471 14.0623 33.9215 13.9908C33.8958 13.9194 33.8862 13.8432 33.8935 13.7676" fill="#FF7A00"/>
<path d="M23.7019 13.5562V10.5948H24.9759L25.4202 9.44661H23.7019V7.6521H23.5601C22.8816 7.6521 22.1777 7.94249 22.1777 9.43322V9.44661H21.0497V10.5948H22.1804V14.0914C22.1804 15.0817 22.7639 15.5956 23.5935 15.5956C24.2626 15.5956 25.1311 15.3922 25.1311 14.0633C24.9118 14.2061 24.659 14.2891 24.3978 14.3042C23.9013 14.3042 23.7046 14.0018 23.7046 13.5642" fill="#FF7A00"/>
<path d="M36.9433 11.8005C36.9433 11.1167 37.4223 10.4811 38.0954 10.4811C38.8488 10.4811 39.2623 11.1354 39.2757 11.8005H36.9433ZM38.1168 9.33557C36.6569 9.33557 35.4258 10.5239 35.4258 12.4696C35.4258 14.4608 36.6207 15.5902 38.4072 15.5902C39.8257 15.5902 40.559 14.9707 40.65 14.9131C40.65 14.9131 40.5162 14.687 40.4734 14.6254C40.274 14.2989 40.0465 14.1945 39.7949 14.1945C39.2918 14.1945 39.2289 14.4019 38.5464 14.4019C37.3795 14.4019 36.9727 13.4893 36.9473 12.8831H40.8574V12.4295C40.8574 10.564 39.7869 9.33557 38.1168 9.33557Z" fill="#FF7A00"/>
<path d="M50.7119 14.4166C51.6486 14.4166 52.1839 13.6137 52.1839 12.4656C52.1839 11.3174 51.658 10.5065 50.7119 10.5065C49.7925 10.5065 49.2399 11.3094 49.2399 12.4656C49.2399 13.5843 49.7658 14.4166 50.7119 14.4166ZM50.7119 15.5902C48.8464 15.5902 47.7237 14.3578 47.7237 12.4656C47.7237 10.5734 48.8317 9.33289 50.7119 9.33289C52.592 9.33289 53.704 10.5787 53.704 12.4656C53.704 14.2467 52.6803 15.5902 50.7119 15.5902Z" fill="#FF7A00"/>
</g>
<defs>
<clipPath id="clip0_579_5438">
<rect width="64" height="20" fill="white"/>
</clipPath>
</defs>
</svg>
