<svg width="60" height="20" fill="none" xmlns="http://www.w3.org/2000/svg"><g clip-path="url(#a)"><path d="M18.907 15.227c-.181-.578-.778-.287-1.15-.552-.723-.516-1.436-.944-1.297-1.983.41-.356.886-.065 1.33-.232 1.034.98 2.097 1.836 3.521.778.188-.614-.14-.899-.634-1.03a42.228 42.228 0 0 0-2.459-.6 2.316 2.316 0 0 1-.956-.375 2.397 2.397 0 0 1-.713-.756c-.073-1.682.143-2.1 1.621-2.613a5.368 5.368 0 0 1 4.084.183c.346.126.648.356.866.66.219.305.343.67.358 1.048-.215.409-.552.248-.828.275-.276.026-.504 0-.793 0l-.98-.86c-.676-.055-1.32-.163-1.904.089-.333.833.352.914.752 1.048a18.12 18.12 0 0 0 1.904.383c1.12.254 1.17.3 2.062 1.349.098 1.77-.431 2.519-2.075 2.888-.235.052-.517-.036-.577.327l-2.133-.027Z" fill="#FD2D0B"/><path d="M49.717 14.6h-2.341a1.993 1.993 0 0 1-.898-.98V9.67c-.216-.326-.483-.222-.724-.241-1.868-.157-3.125.398-2.919 2.897.06.739 0 1.49 0 2.287h-1.992V8.08c.244-.277.634-.12.952-.147.317-.026.59 0 .84 0l.362.575c.904-1.078 2.173-.826 3.49-.865V5.629h1.793c.495.62.11 1.27.317 1.836.301.327.774.046 1.123.252.21.52.051 1.022.105 1.47-.34.395-.8.147-1.218.327v3.355c.346.434.853.052 1.174.408.1.438.078.897-.064 1.323Z" fill="#FD3213"/><path d="M29.507 14.855H27.92c-.377-.448-.177-.98-.193-1.457a54.845 54.845 0 0 1 0-2.888c0-.435-.07-.827-.492-1.016-.422-.19-.774.036-1.04.379-.093.117-.169.251-.343.506v4.424a2.94 2.94 0 0 1-1.333 0 .97.97 0 0 1-.174-.771V8.027c.634.016 1.237-.327 1.646.448 1.085-.886 2.158-.762 3.233.189.225-.278.513-.495.84-.63.326-.134.68-.183 1.029-.141 1.133.095 1.745.63 1.774 1.797.04 1.666 0 3.335 0 4.979-.467.326-.914.173-1.377.17a1.364 1.364 0 0 1-.156-.405c0-1.115-.025-2.229 0-3.343a2.152 2.152 0 0 0-.075-.819 2.112 2.112 0 0 0-.375-.726c-1.212-.049-1.377.036-1.377 1.114-.038 1.356 0 2.715 0 4.195Z" fill="#FD2F0E"/><path d="M37.994 10.167a.773.773 0 0 0-.08-.66.715.715 0 0 0-.556-.337c-.78-.173-1.373.095-1.664.866h-1.819c.223-1.287.803-1.96 1.92-2.084.85-.106 1.708-.106 2.557 0 1.085.163 1.707.653 1.755 1.885.057 1.555 0 3.113 0 4.662-.952.402-1.904-.19-2.716.17-.812.36-1.669.219-2.51.222a7.425 7.425 0 0 1-.726-.569c-1.231-1.231-.79-2.94.91-3.319.635-.144 1.24-.392 1.904-.326.2.033.407.003.59-.089.184-.09.336-.238.435-.421Zm-2.408 2.999c.615.686 1.307.62 2.005.153.555-.372.52-.898.317-1.476-.853 0-1.666-.088-2.325.591l.003.732Z" fill="#FD2D0B"/><path d="M57.246 11.425c-1.605.297-3.173 0-4.712.19-.155.813.318 1.198.87 1.443.552.245 1.288-.052 2.087-.804h1.492c-.432 1.902-1.904 2.817-3.985 2.317-1.685-.405-2.945-1.686-2.583-4.463.222-1.705 1.926-2.94 3.858-2.79 1.932.15 3.09 1.728 2.973 4.107Zm-4.937-1.137c.997 0 1.961.137 2.922-.095.06-.755-.409-1.049-.84-1.346-1.542.023-1.615.072-2.082 1.44Z" fill="#FD2D0C"/><path d="M60 14.512c-.615.29-1.228.033-1.799.173-.282-1.091-.349-6.638-.124-9.435H60v9.262Z" fill="#FD3312"/><path d="m.746 6.991 12.897 6.58-3.471 1.095M0 6.077l10.2 5.341 3.44-.885M.2 5.812l9.515 2.937 3.925-.134" fill="#FF6300"/></g><defs><clipPath id="a"><path fill="#fff" d="M0 0h60v20H0z"/></clipPath></defs></svg>