<svg width="63" height="20" fill="none" xmlns="http://www.w3.org/2000/svg"><path d="M9.886 2c.075.175.11.366.101.557v8.05c0 .253.097.297.318.297h8c.31 0 .45.095.45.418v6.218c0 .237-.062.427-.333.423-.271-.004-.298-.222-.298-.443v-5.53c0-.36-.1-.43-.426-.423-.774.024-1.568.02-2.35 0-.255 0-.317.075-.313.328v5.53c.006.117-.003.234-.027.348a.32.32 0 0 1-.12.169.31.31 0 0 1-.386-.02.321.321 0 0 1-.102-.18 2.08 2.08 0 0 1 0-.348v-5.396c0-.316-.062-.419-.387-.415-1.37.02-2.745 0-4.115 0-.5 0-.534-.035-.534-.53V6.876c0-.32-.066-.42-.387-.415H3.666c-.115.008-.23.008-.345 0a.288.288 0 0 1-.188-.092.3.3 0 0 1-.079-.197.309.309 0 0 1 .058-.222.297.297 0 0 1 .194-.117c.113-.02.23-.027.344-.02h5.311c.36 0 .418-.11.41-.439-.023-.79-.023-1.57 0-2.342 0-.304-.088-.363-.387-.363H3.52c-.159 0-.337.035-.445-.15-.109-.186.023-.368.116-.518h6.696Z" fill="#DE2456"/><path d="M63 13.807a17.829 17.829 0 0 0-1.935-.032h-2.71c-.236 0-.31-.07-.302-.312v-1.678c0-.25.054-.336.314-.332.882.02 1.769 0 2.651 0 .205 0 .387.047.387-.293 0-.34-.186-.32-.41-.32h-2.342c-.352 0-.321-.181-.317-.395.003-.213-.059-.454.328-.442 1.162.024 2.323 0 3.484 0 .233 0 .31.06.302.304a27.345 27.345 0 0 0 0 1.718c0 .245-.07.3-.302.297h-2.767c-.213 0-.325.02-.322.288.004.269.093.304.318.3 1.2-.027 2.404.04 3.604-.04l.019.937Z" fill="#4D4C4D"/><path d="M42.438 12.025H39.24c-.286 0-.387-.07-.352-.363a1.211 1.211 0 0 0 0-.352c-.027-.22.077-.256.267-.252h2.423c.256 0 .387-.04.345-.332-.043-.36.154-.838-.078-1.047-.232-.21-.658-.051-1.002-.067-.345-.016-.775.146-1.007-.063-.232-.21-.062-.668-.066-1.015V5.8c0-.237.031-.352.306-.348h4.773c.24 0 .298.083.294.316v3.556c0 .217-.058.296-.278.292h-1.549c-.232 0-.356.035-.333.316.031.36-.112.833.07 1.055.182.22.67.063 1.026.07h1.653c.232 0 .31.056.31.305 0 .66 0 .66-.643.66l-2.962.003Zm0-3.424h1.381c.194 0 .275-.056.271-.265v-1.6c0-.19-.077-.24-.251-.24h-2.803c-.174 0-.251.055-.251.244v1.58c0 .214.077.269.27.265.473.008.933.016 1.394.016h-.011Z" fill="#515051"/><path d="M46.947 8.881V6.266c0-.268.062-.36.337-.351.646 0 .646 0 .646.655V7.82c0 .181 0 .288.24.284h1.77c.2 0 .228-.087.224-.257V6.56c0-.186.058-.241.24-.253.75-.04.75-.048.75.703v4.487c0 .269-.061.356-.336.352h-3.534c-.271 0-.349-.08-.34-.352.015-.869.003-1.742.003-2.615Zm2.21.158h-.983c-.174 0-.255.036-.251.233v1.407c0 .19.065.245.243.24h1.193c.801 0 .805 0 .797-.79 0-.347.147-.79-.062-1.01-.209-.222-.658-.052-.933-.08h-.004Z" fill="#4E4D4E"/><path d="M34.839 13.775h-2.385c-.302 0-.387-.09-.36-.375.023-.527.023-1.053 0-1.58 0-.264.081-.324.325-.324h3.271c.221 0 .314-.035.314-.292s-.128-.257-.31-.257c-1.002 0-2.001-.02-3 0-.387 0-.34-.19-.333-.426.008-.238-.085-.45.314-.443 1.359.024 2.71 0 4.076 0 .236 0 .34.04.329.312-.023.533-.023 1.07 0 1.604 0 .296-.105.332-.356.332h-3.232c-.233 0-.345.051-.337.324.008.272.166.245.337.245h3.731c.34 0 .387.138.36.395-.027.256.031.47-.36.454-.805.008-1.61.031-2.384.031Z" fill="#515051"/><path d="M27.387 13.776h-2.152c-.229 0-.318-.06-.31-.305.016-.574.016-1.146 0-1.718 0-.245.074-.308.306-.304h2.71c.228 0 .336-.032.336-.308 0-.277-.108-.312-.336-.308h-2.462c-.306 0-.31-.158-.275-.36.035-.201-.17-.501.26-.498h3.615c.228 0 .274.084.27.297v1.754c0 .237-.08.276-.286.272h-2.806c-.225 0-.31.044-.31.296 0 .253.1.293.318.293h3.228c.387 0 .356.19.364.454.008.265 0 .454-.387.439-.67-.028-1.378-.004-2.083-.004Z" fill="#525152"/><path d="M34.599 7.866h-2.652c-.213 0-.282-.055-.279-.28V4.93c0-.197.05-.273.256-.269h2.496c.388.502.937.17 1.402.237.37.038.744.038 1.115 0 .251 0 .329.072.329.328 0 .66 0 .66-.643.66h-.847c-.283 0-.295.079-.295.308 0 .711 0 .711.666.711h1.115c.22 0 .279.063.279.285 0 .66 0 .66-.635.66l-2.307.015Zm-1.014-.94c.874 0 .874 0 .87-.873v-.119c.035-.229-.073-.284-.282-.276-.387 0-.774.02-1.161 0-.26 0-.349.06-.349.34.02.928.008.928.922.928ZM26.834 7.53a2.35 2.35 0 0 1-.733 1.58c-.436.41-1.011.63-1.604.616a2.262 2.262 0 0 1-1.572-.695 2.355 2.355 0 0 1-.655-1.615c0-1.304 1.049-2.248 2.415-2.216.291.008.578.076.844.197.265.122.505.297.704.513a2.303 2.303 0 0 1 .6 1.62Zm-3.55-.031c.005.341.14.668.376.91.236.243.555.382.89.39.342 0 .67-.14.911-.386a1.33 1.33 0 0 0 .378-.93 1.33 1.33 0 0 0-.378-.93 1.276 1.276 0 0 0-.911-.386 1.26 1.26 0 0 0-.902.395 1.31 1.31 0 0 0-.364.929v.008Z" fill="#4E4D4E"/><path d="M55.599 7.325a2.354 2.354 0 0 1 .688-1.64 2.26 2.26 0 0 1 1.623-.663c.605.007 1.183.26 1.607.702.423.442.657 1.038.65 1.656a2.354 2.354 0 0 1-.689 1.64 2.26 2.26 0 0 1-1.623.663 2.262 2.262 0 0 1-1.606-.702 2.356 2.356 0 0 1-.65-1.656Zm3.561.04a1.337 1.337 0 0 0-.372-.936 1.271 1.271 0 0 0-1.824-.024 1.326 1.326 0 0 0-.025 1.855 1.273 1.273 0 0 0 1.824.027c.246-.242.389-.574.397-.923ZM52.777 8.269V4.907c0-.272.07-.351.34-.347.744 0 .744 0 .744.75v2.03c0 .305.093.396.387.356.129-.012.258-.012.387 0 .224 0 .565-.107.65.06.07.272.088.557.05.837 0 .166-.116.142-.216.146h-.922c-.305 0-.32.09-.317.336v2.619c0 .276-.074.347-.34.343-.744 0-.744 0-.744-.754l-.02-3.014Z" fill="#4D4C4D"/><path d="M34.599 8.498h3.228c.287 0 .387.075.36.367a.922.922 0 0 0 0 .273c.039.276-.077.348-.344.348H31.35c-.26 0-.321-.083-.317-.332 0-.652 0-.652.646-.652l2.919-.004Z" fill="#555455"/><path d="M28.196 6.961V4.935c0-.276.043-.395.348-.395.74 0 .74 0 .74.762v.937c0 .312.089.335.329.32.24-.016.588 0 .883 0 .158 0 .251.043.236.22a.13.13 0 0 0 0 .04c.05.79.05.79-.775.79-.68 0-.68 0-.68.688v.79c0 .268-.082.304-.31.304-.775 0-.775.02-.775-.759l.004-1.67Z" fill="#4F4E4F"/><path d="M61.649 6.965v-2.07c0-.24.039-.34.31-.34.755 0 .755 0 .755.79v3.75c0 .256-.074.327-.326.327-.743 0-.743 0-.743-.758l.004-1.699Z" fill="#515051"/><path d="M1.502 2.703a1.456 1.456 0 0 1 1.056.435A1.515 1.515 0 0 1 3 4.208a1.565 1.565 0 0 1-.439 1.074c-.277.286-.653.45-1.047.459a1.48 1.48 0 0 1-1.07-.447A1.539 1.539 0 0 1 0 4.204a1.536 1.536 0 0 1 .444-1.07 1.476 1.476 0 0 1 1.058-.43Zm.848 1.525a.89.89 0 0 0-.242-.616.855.855 0 0 0-.594-.269.854.854 0 0 0-.605.248.89.89 0 0 0-.263.61.885.885 0 0 0 .24.618.844.844 0 0 0 1.205.02.878.878 0 0 0 .259-.611ZM16.564 9.675a1.46 1.46 0 0 1-1.057-.43 1.518 1.518 0 0 1-.013-2.14 1.5 1.5 0 0 1 1.047-.46 1.452 1.452 0 0 1 1.072.438 1.511 1.511 0 0 1 .437 1.091 1.499 1.499 0 0 1-.428 1.076 1.442 1.442 0 0 1-1.058.425Zm0-2.37a.834.834 0 0 0-.595.265.869.869 0 0 0-.237.616.881.881 0 0 0 .259.607.845.845 0 0 0 .604.242.84.84 0 0 0 .595-.264.875.875 0 0 0-.022-1.224.839.839 0 0 0-.604-.242Z" fill="#DE2557"/></svg>