<svg viewBox="0 0 24 24" fill="none" stroke="currentColor" xmlns="http://www.w3.org/2000/svg"><circle cx="7" cy="5" r="3" stroke-width="1.5" stroke-linecap="round" stroke-linejoin="round"></circle><circle cx="17" cy="5" r="3" stroke-width="1.5" stroke-linecap="round" stroke-linejoin="round"></circle><path d="M12 12C12 9.79086 10.4375 8 7 8C3.5625 8 2 9.79086 2 12" stroke-width="1.5" stroke-linecap="round" stroke-linejoin="round"></path><path d="M22 12C22 9.79086 20.4375 8 17 8C13.5625 8 12 9.79086 12 12" stroke-width="1.5" stroke-linecap="round" stroke-linejoin="round"></path><circle cx="7" cy="15" r="3" stroke-width="1.5" stroke-linecap="round" stroke-linejoin="round"></circle><circle cx="17" cy="15" r="3" stroke-width="1.5" stroke-linecap="round" stroke-linejoin="round"></circle><path d="M12 22C12 19.7909 10.4375 18 7 18C3.5625 18 2 19.7909 2 22" stroke-width="1.5" stroke-linecap="round" stroke-linejoin="round"></path><path d="M22 22C22 19.7909 20.4375 18 17 18C13.5625 18 12 19.7909 12 22" stroke-width="1.5" stroke-linecap="round" stroke-linejoin="round"></path></svg>