<svg width="72" height="20" viewBox="0 0 72 20" fill="none" xmlns="http://www.w3.org/2000/svg">
<path d="M20.218 13.2938V9.96682C20.218 9.79621 20.2464 9.62559 20.3033 9.51185C20.3602 9.36967 20.4455 9.28436 20.5592 9.19905C20.673 9.11374 20.7867 9.05687 20.9005 9.02844C21.0427 9 21.1848 8.97156 21.327 8.97156C21.4692 8.97156 21.6114 9 21.7251 9.02844C21.8673 9.05687 21.981 9.14218 22.0948 9.19905C22.2085 9.28436 22.2938 9.3981 22.3507 9.51185C22.4076 9.65403 22.436 9.79621 22.436 9.96682V13.2938H26.3318C26.5024 13.2938 26.6445 13.3223 26.7583 13.3791C26.872 13.436 26.9573 13.4929 27.0427 13.5782C27.128 13.6635 27.1564 13.7488 27.2133 13.8626C27.2417 13.9763 27.2701 14.09 27.2701 14.2038C27.2701 14.4313 27.2133 14.6303 27.0711 14.8294C26.9289 15.0284 26.7014 15.1137 26.3602 15.1137H17.9716C17.6588 15.1137 17.4028 15.0284 17.2607 14.8294C17.1185 14.6303 17.0616 14.4313 17.0616 14.2038C17.0616 14.09 17.0901 13.9763 17.1185 13.8626C17.1469 13.7488 17.2038 13.6635 17.2891 13.5782C17.3744 13.4929 17.4597 13.436 17.5735 13.3791C17.6872 13.3223 17.8294 13.2938 18 13.2938H20.218ZM24.0569 11.3886C24.2275 10.9905 24.3412 10.564 24.4265 10.0237C24.5118 9.51185 24.5403 8.85782 24.5403 8.11848V7.40758C24.5403 7.32228 24.5118 7.2654 24.4834 7.20853C24.4265 7.15166 24.3697 7.12322 24.2844 7.12322H18.3697C18.1991 7.12322 18.0569 7.09479 17.9431 7.03792C17.8294 6.98104 17.7156 6.89574 17.6588 6.81043C17.5735 6.72512 17.5166 6.61138 17.4882 6.49763C17.4597 6.38389 17.4313 6.27014 17.4313 6.1564C17.4313 6.04266 17.4597 5.92891 17.4882 5.81517C17.5166 5.70142 17.5735 5.58768 17.6588 5.50237C17.7441 5.41706 17.8294 5.33176 17.9716 5.27488C18.0853 5.21801 18.2275 5.18958 18.3981 5.18958H25.0237C25.3365 5.18958 25.6209 5.21801 25.8199 5.27488C26.0474 5.33176 26.218 5.4455 26.3318 5.55924C26.4739 5.70142 26.5592 5.8436 26.6161 6.04266C26.673 6.24171 26.7014 6.4692 26.7014 6.75356V8.11848C26.7014 9.88152 26.5024 11.1896 26.0758 12.0711C25.9905 12.2133 25.9052 12.3554 25.7915 12.4408C25.6777 12.5545 25.5355 12.6114 25.3934 12.6682C25.2512 12.7251 25.109 12.7536 24.9384 12.7536C24.7678 12.7536 24.6256 12.7251 24.4834 12.6398C24.2559 12.5261 24.0853 12.3554 24.0284 12.128C23.9431 11.9005 23.9431 11.6445 24.0569 11.3886Z" fill="#3370FF"/>
<path d="M31.3934 13.2938V9.96682C31.3934 9.79621 31.4218 9.62559 31.4787 9.51185C31.5356 9.36967 31.6209 9.28436 31.7346 9.19905C31.8484 9.11374 31.9621 9.05687 32.0759 9.02844C32.2181 9 32.3602 8.97156 32.5024 8.97156C32.6446 8.97156 32.7868 9 32.9005 9.02844C33.0427 9.05687 33.1564 9.14218 33.2702 9.19905C33.3839 9.28436 33.4692 9.3981 33.5261 9.51185C33.583 9.65403 33.6114 9.79621 33.6114 9.96682V13.2938H37.5356C37.7062 13.2938 37.8484 13.3223 37.9621 13.3791C38.0759 13.436 38.1612 13.4929 38.2465 13.5782C38.3318 13.6635 38.3602 13.7488 38.4171 13.8626C38.4455 13.9763 38.474 14.09 38.474 14.2038C38.474 14.4313 38.3887 14.6303 38.2749 14.8294C38.1327 15.0284 37.9053 15.1137 37.564 15.1137H29.2038C28.891 15.1137 28.6351 15.0284 28.4929 14.8294C28.3508 14.6303 28.2939 14.4313 28.2939 14.2038C28.2939 14.09 28.3223 13.9763 28.3508 13.8626C28.3792 13.7488 28.4361 13.6635 28.5214 13.5782C28.6067 13.4929 28.692 13.436 28.8057 13.3791C28.9195 13.3223 29.0617 13.2938 29.2323 13.2938H31.3934ZM35.2607 11.3886C35.4313 10.9905 35.5451 10.564 35.6304 10.0237C35.7157 9.51185 35.7441 8.85782 35.7441 8.11848V7.40758C35.7441 7.32228 35.7157 7.2654 35.6872 7.20853C35.6304 7.15166 35.5735 7.12322 35.4882 7.12322H29.5735C29.4029 7.12322 29.2607 7.09479 29.147 7.03792C29.0332 6.98104 28.9195 6.89574 28.8626 6.81043C28.7773 6.72512 28.7204 6.61138 28.692 6.49763C28.6636 6.38389 28.6351 6.27014 28.6351 6.1564C28.6351 6.04266 28.6636 5.92891 28.692 5.81517C28.7204 5.70142 28.7773 5.58768 28.8626 5.50237C28.9479 5.41706 29.0332 5.33176 29.1754 5.27488C29.2891 5.21801 29.4313 5.18958 29.6019 5.18958H36.256C36.5688 5.18958 36.8531 5.21801 37.0522 5.27488C37.2797 5.33176 37.4503 5.4455 37.564 5.55924C37.7062 5.70142 37.7915 5.8436 37.8484 6.04266C37.9053 6.24171 37.9337 6.4692 37.9337 6.75356V8.11848C37.9337 9.88152 37.7346 11.1896 37.3081 12.0711C37.2228 12.2133 37.1375 12.3554 37.0237 12.4408C36.91 12.5545 36.7678 12.6114 36.6256 12.6682C36.4835 12.7251 36.3413 12.7536 36.1707 12.7536C36 12.7536 35.8579 12.7251 35.7157 12.6398C35.4882 12.5261 35.3176 12.3554 35.2607 12.128C35.147 11.9005 35.147 11.6445 35.2607 11.3886Z" fill="#3370FF"/>
<path d="M43.4502 13.2938V11.218H41.5734C41.2606 11.218 40.9763 11.1896 40.7772 11.1327C40.5782 11.0758 40.4076 10.9905 40.2938 10.8483C40.1801 10.7346 40.0948 10.564 40.0663 10.3365C40.0379 10.109 40.0095 9.85309 40.0095 9.51185V6.89574C40.0095 6.58295 40.0379 6.29859 40.0663 6.09953C40.0948 5.87205 40.1801 5.70143 40.2938 5.58769C40.4076 5.44551 40.5497 5.3602 40.7772 5.30333C40.9763 5.24645 41.2322 5.21802 41.5734 5.21802H47.545C47.8578 5.21802 48.1422 5.24645 48.3412 5.30333C48.5403 5.3602 48.7109 5.44551 48.8246 5.58769C48.9384 5.72987 49.0237 5.90048 49.0521 6.09953C49.0805 6.32702 49.109 6.58295 49.109 6.89574V11.1896H45.6967V13.2654H48.7678C48.9384 13.2654 49.0805 13.2938 49.1943 13.3507C49.308 13.4076 49.3933 13.4645 49.4787 13.5498C49.564 13.6351 49.5924 13.7204 49.6493 13.8341C49.7061 13.9479 49.7061 14.0616 49.7061 14.1754C49.7061 14.4028 49.6493 14.6019 49.5071 14.801C49.3649 15 49.1374 15.0853 48.7962 15.0853H40.3791C40.0663 15.0853 39.8104 15 39.6682 14.801C39.526 14.6019 39.4692 14.4028 39.4692 14.1754C39.4692 14.0616 39.4976 13.9479 39.526 13.8341C39.5545 13.7204 39.6114 13.6351 39.6967 13.5498C39.782 13.4645 39.8673 13.4076 39.981 13.3507C40.0948 13.2938 40.237 13.2654 40.4076 13.2654H43.4502V13.2938ZM42.199 9.11375C42.199 9.22749 42.2275 9.3128 42.2559 9.36967C42.3128 9.42655 42.3981 9.45498 42.5118 9.45498H46.9194V7.29385C46.9194 7.1801 46.891 7.09479 46.8625 7.03792C46.8341 6.98105 46.7488 6.95261 46.6351 6.95261H42.455C42.3412 6.95261 42.2843 6.98105 42.2559 7.03792C42.2275 7.09479 42.199 7.1801 42.199 7.29385V9.11375Z" fill="#3370FF"/>
<path d="M52.5498 14.8578C52.237 14.8578 51.981 14.8294 51.7535 14.7725C51.5545 14.7156 51.3839 14.6303 51.2701 14.4881C51.1564 14.346 51.0711 14.1754 51.0142 13.9763C50.9573 13.7772 50.9573 13.5213 50.9573 13.2085V6.27014C50.9573 5.90047 51.0426 5.61611 51.2701 5.4455C51.4976 5.27488 51.7251 5.18957 52.0379 5.18957C52.3507 5.18957 52.6066 5.27488 52.7772 5.4455C52.9763 5.61611 53.0616 5.90047 53.0616 6.27014V8.00474H54.9099V6.27014C54.9099 5.90047 54.9953 5.61611 55.1943 5.4455C55.3934 5.27488 55.6493 5.18957 55.9621 5.18957C56.2749 5.18957 56.5308 5.27488 56.7298 5.4455C56.9289 5.61611 57.0142 5.90047 57.0142 6.27014V14.8294H52.5498V14.8578ZM54.9099 13.0379V9.79621H53.0616V12.7536C53.0616 12.8673 53.09 12.9526 53.1185 12.981C53.1469 13.0095 53.2322 13.0379 53.3744 13.0379H54.9099ZM58.0948 5.98578C58.0948 5.64455 58.2085 5.36019 58.4076 5.18957C58.6351 5.01896 58.8625 4.90521 59.1469 4.90521C59.2891 4.90521 59.4313 4.93365 59.545 4.99052C59.6872 5.04739 59.8009 5.10426 59.8862 5.18957C59.9716 5.27488 60.0569 5.38862 60.1137 5.5308C60.1706 5.67298 60.199 5.81516 60.199 5.98578V8.80095H60.5687C60.7393 8.80095 60.8815 8.82938 60.9952 8.88625C61.109 8.94313 61.1943 9.02843 61.2512 9.11374C61.308 9.19905 61.3649 9.31279 61.3933 9.42654C61.4218 9.54028 61.4502 9.65403 61.4502 9.76777C61.4502 9.88151 61.4218 9.99526 61.3933 10.109C61.3649 10.2227 61.308 10.3365 61.2512 10.4218C61.1943 10.5071 61.109 10.5924 60.9952 10.6493C60.8815 10.7062 60.7393 10.7346 60.5971 10.7346H60.2275V15.3412H58.0663V5.98578H58.0948Z" fill="#3370FF"/>
<path d="M62.1043 7.46439C62.1043 7.00941 62.1896 6.63974 62.3318 6.32695C62.4739 6.01415 62.7014 5.75823 62.9574 5.55917C63.2417 5.36012 63.5545 5.21794 63.9242 5.13263C64.2939 5.04733 64.7204 4.99045 65.2038 4.99045C65.6872 4.99045 66.0853 5.04733 66.4834 5.13263C66.8531 5.21794 67.1943 5.36012 67.4502 5.55917C67.7346 5.75823 67.9337 6.01415 68.0758 6.32695C68.218 6.63974 68.3033 7.00941 68.3033 7.46439V7.77718C68.3033 8.23216 68.218 8.60183 68.0758 8.91462C67.9337 9.22742 67.7062 9.48334 67.4502 9.68239C67.1659 9.88145 66.8531 10.0236 66.4834 10.1089C66.1138 10.1942 65.6872 10.2511 65.2038 10.2511C64.7204 10.2511 64.3223 10.1942 63.9242 10.1089C63.5545 10.0236 63.2133 9.88145 62.9574 9.68239C62.673 9.48334 62.4739 9.22742 62.3318 8.91462C62.1896 8.60183 62.1043 8.23216 62.1043 7.77718V7.46439ZM64.0664 15.3127C63.8104 15.3127 63.6114 15.2843 63.4123 15.199C63.2133 15.1137 63.0711 14.9999 62.9289 14.8577C62.7867 14.7156 62.7014 14.545 62.6161 14.3743C62.5593 14.2037 62.5024 14.0047 62.5024 13.8056V13.6634C62.5024 13.2653 62.6446 12.9525 62.9005 12.6966C63.1564 12.4691 63.5545 12.3269 64.0379 12.3269H69.4976V12.0426C69.4976 11.9857 69.4976 11.9288 69.4692 11.9004C69.4408 11.872 69.4123 11.872 69.327 11.872H63.2133C63.0142 11.872 62.8436 11.8151 62.7583 11.6729C62.673 11.5307 62.6161 11.3886 62.6161 11.2179C62.6161 11.0758 62.673 10.9051 62.7583 10.7914C62.8436 10.6492 63.0142 10.5923 63.2133 10.5923H70.3792C70.8626 10.5923 71.2038 10.6777 71.4029 10.8483C71.6019 11.0189 71.7156 11.3317 71.7156 11.7582V13.5213H65.0332C64.9479 13.5213 64.891 13.5497 64.8626 13.5781C64.8341 13.6066 64.8057 13.6634 64.8057 13.7203V13.7487C64.8057 13.8056 64.8341 13.8625 64.8626 13.8909C64.891 13.9194 64.9763 13.9478 65.0332 13.9478H71.3744C71.6019 13.9478 71.7441 14.0047 71.8578 14.1468C71.9431 14.289 72 14.4312 72 14.6018C72 14.744 71.9431 14.9146 71.8578 15.0284C71.7725 15.1705 71.6019 15.2274 71.3744 15.2274H64.0664V15.3127ZM64.237 7.83405C64.237 8.11841 64.3223 8.31747 64.4929 8.43121C64.6635 8.54495 64.891 8.63026 65.1754 8.63026C65.4597 8.63026 65.6872 8.57339 65.8578 8.43121C66.0285 8.31747 66.1138 8.08998 66.1138 7.83405V7.37908C66.1138 7.09472 66.0285 6.89567 65.8578 6.78192C65.6872 6.63974 65.4597 6.58287 65.1754 6.58287C64.891 6.58287 64.6635 6.63974 64.4929 6.78192C64.3223 6.9241 64.237 7.12315 64.237 7.37908V7.83405ZM69.5545 5.98571C69.5545 5.61605 69.6683 5.36012 69.8957 5.16107C70.1232 4.96202 70.3792 4.87671 70.6635 4.87671C70.8057 4.87671 70.9479 4.90515 71.0616 4.96202C71.2038 5.01889 71.3175 5.07576 71.4029 5.16107C71.5166 5.24638 71.5735 5.36012 71.6588 5.5023C71.7156 5.64448 71.7441 5.78666 71.7441 5.98571V10.2511H69.5545V5.98571Z" fill="#3370FF"/>
<path d="M9.46919 7.74881V12.4692H4.74881V7.74881H9.46919V3H0V7.74881V12.4692V17.218H14.218V12.4692V7.74881H9.46919Z" fill="#3370FF"/>
</svg>
