<svg xmlns="http://www.w3.org/2000/svg" width="32" height="32" viewBox="0 0 32 32" fill="none">
<rect width="32" height="32" rx="16" fill="#868E96"/>
<path d="M25.1059 12.0176C25.1059 11.8588 24.8676 10.5882 24.3118 10.0324C23.5971 9.23824 22.8029 9.15882 22.4059 9.15882H22.3265C19.8647 9 16.2118 9 16.1324 9C16.1324 9 12.4 9 9.93824 9.15882H9.85882C9.46176 9.15882 8.66765 9.23824 7.95294 10.0324C7.39706 10.6676 7.15882 11.9382 7.15882 12.0971C7.15882 12.1765 7 13.6059 7 15.1147V16.4647C7 17.9735 7.15882 19.4029 7.15882 19.4824C7.15882 19.6412 7.39706 20.9118 7.95294 21.4676C8.58824 22.1824 9.38235 22.2618 9.85882 22.3412C9.93824 22.3412 10.0176 22.3412 10.0971 22.3412C11.5265 22.5 15.8941 22.5 16.0529 22.5C16.0529 22.5 19.7853 22.5 22.2471 22.3412H22.3265C22.7235 22.2618 23.5176 22.1824 24.2324 21.4676C24.7882 20.8324 25.0265 19.5618 25.0265 19.4029C25.0265 19.3235 25.1853 17.8941 25.1853 16.3853V15.0353C25.2647 13.6059 25.1059 12.0971 25.1059 12.0176ZM19.2294 15.9088L14.4647 18.45C14.3853 18.45 14.3853 18.5294 14.3059 18.5294C14.2265 18.5294 14.1471 18.5294 14.1471 18.45C14.0676 18.3706 13.9882 18.2912 13.9882 18.1324V12.9706C13.9882 12.8118 14.0676 12.7324 14.1471 12.6529C14.2265 12.5735 14.3853 12.5735 14.5441 12.6529L19.3088 15.1941C19.4676 15.2735 19.5471 15.3529 19.5471 15.5118C19.5471 15.6706 19.3882 15.8294 19.2294 15.9088Z" fill="#2A3037"/>
</svg>