<svg viewBox="0 0 24 24" fill="none" stroke="currentColor" xmlns="http://www.w3.org/2000/svg"><path d="M16.5 8C16.5 8 18 9.5 18 12C18 14.5 16.5 16 16.5 16" stroke-width="1.5" stroke-linecap="round" stroke-linejoin="round"></path><path d="M19.5 5C19.5 5 22 7.5 22 12C22 16.5 19.5 19 19.5 19" stroke-width="1.5" stroke-linecap="round" stroke-linejoin="round"></path><path d="M7.5 8C7.5 8 6 9.5 6 12C6 14.5 7.5 16 7.5 16" stroke-width="1.5" stroke-linecap="round" stroke-linejoin="round"></path><path d="M4.5 5C4.5 5 2 7.5 2 12C2 16.5 4.5 19 4.5 19" stroke-width="1.5" stroke-linecap="round" stroke-linejoin="round"></path><path d="M12 13C12.5523 13 13 12.5523 13 12C13 11.4477 12.5523 11 12 11C11.4477 11 11 11.4477 11 12C11 12.5523 11.4477 13 12 13Z" fill="none" stroke-width="1.5" stroke-linecap="round" stroke-linejoin="round"></path></svg>