<svg width="77" height="28" viewBox="0 0 77 28" fill="none" xmlns="http://www.w3.org/2000/svg"><rect width="77" height="28" rx="14" fill="#F8F9FA"></rect><path fill-rule="evenodd" clip-rule="evenodd" d="M10.9252 10.6109C11.5136 9.59201 12.8168 9.24292 13.836 9.83116C16.2208 11.2077 17.5646 13.6914 17.6006 16.2489C17.6171 17.4253 16.6766 18.3923 15.4999 18.4088C14.3232 18.4253 13.4172 17.5753 13.3394 16.2066C13.2615 14.8379 12.687 14.0872 11.7743 13.5604C10.6676 12.9216 10.3368 11.6297 10.9252 10.6109ZM12.2616 16.2782C12.2616 17.4551 11.3076 18.4091 10.1308 18.4091C8.954 18.4091 8 17.4551 8 16.2782C8 15.1014 8.954 14.1474 10.1308 14.1474C11.3076 14.1474 12.2616 15.1014 12.2616 16.2782ZM20.8851 18.409C22.0619 18.4002 23.0087 17.4391 22.9999 16.2623C22.9747 12.8976 20.1188 10.1827 16.426 9.65081C16.1157 9.6061 15.8816 9.9807 16.2198 10.2662C17.8757 11.6644 18.7224 14.1563 18.7384 16.2942C18.7472 17.471 19.7083 18.4178 20.8851 18.409Z" fill="url(#paint0_radial_2368_18854)"></path><path d="M37.1133 17.0352V18.4062H27.2812V17.0352H31.3477V14.9609H28.2891V9.62891H36.0586V14.9609H33.0117V17.0352H37.1133ZM29.9531 10.9766V13.6484H34.3828V10.9766H29.9531ZM47.4844 17.0352V18.4062H37.6523V17.0352H39.7734V14.4805C38.9707 13.9707 38.4844 13.209 38.4844 12.2656C38.4844 10.5078 40.207 9.34766 42.5508 9.34766C44.8945 9.34766 46.6406 10.5078 46.6406 12.2656C46.6406 13.1914 46.166 13.9414 45.3867 14.4453V17.0352H47.4844ZM42.5508 10.6719C41.0859 10.6602 40.1484 11.2344 40.1602 12.2656C40.1484 13.2852 41.0859 13.8828 42.5508 13.8828C44.0039 13.8828 44.9648 13.2852 44.9648 12.2656C44.9648 11.2344 44.0039 10.6602 42.5508 10.6719ZM41.4375 17.0352H43.6758V15.0898C43.3184 15.1543 42.9434 15.1836 42.5508 15.1836C42.1582 15.1836 41.7891 15.1543 41.4375 15.0898V17.0352ZM57.3164 8.86719V19.625H55.7109V14.2109H54.8789V19.168H53.3203V9.14844H54.8789V12.8516H55.7109V8.86719H57.3164ZM52.7109 10.1797C52.7109 13.2617 51.832 15.6758 48.8203 17.4453L47.8477 16.2852C49.9395 15.0371 50.8477 13.5781 51.0703 11.5156H48.4336V10.1797H52.7109ZM68.2031 14.3516V15.6758H58.3711V14.3516H62.4258V13.8242H59.5781V9.11328H67.0781V10.4023H61.2539V10.8711H66.8438V12.0781H61.2539V12.5469H67.1836V13.8242H64.125V14.3516H68.2031ZM63.2812 16.0625C65.6484 16.0508 67.0312 16.707 67.0312 17.832C67.0312 19.0039 65.6484 19.6367 63.2812 19.625C60.8672 19.6367 59.4961 19.0039 59.4961 17.832C59.4961 16.707 60.8672 16.0508 63.2812 16.0625ZM63.2812 17.3047C61.8164 17.3047 61.1836 17.4453 61.1836 17.832C61.1836 18.2305 61.8164 18.3945 63.2812 18.3945C64.7109 18.3945 65.3438 18.2305 65.3438 17.832C65.3438 17.4453 64.7109 17.3047 63.2812 17.3047Z" fill="#2A3037"></path><defs><radialGradient id="paint0_radial_2368_18854" cx="0" cy="0" r="1" gradientUnits="userSpaceOnUse" gradientTransform="translate(10.0993 16.3311) rotate(0.481333) scale(10.8621 10.8137)"><stop stop-color="#425AD5"></stop><stop offset="1" stop-color="#566FEE"></stop></radialGradient></defs></svg>