<svg width="63" height="20" viewBox="0 0 63 20" fill="none" xmlns="http://www.w3.org/2000/svg">
<g clip-path="url(#clip0_2622_6580)">
<path d="M3.02563 11.2137V16.2692H4.09405V11.8528L3.02563 11.2137Z" fill="#4E5251"/>
<path d="M4.02924 10.5728H4.85879C4.99934 10.5702 5.13896 10.5967 5.26937 10.6508C5.39978 10.7049 5.51833 10.7854 5.61797 10.8875C5.7188 10.9854 5.79883 11.1037 5.85301 11.2351C5.90719 11.3664 5.93435 11.5079 5.93276 11.6506V16.2673H7.00117V11.6468C7.00654 11.3585 6.95387 11.0722 6.84647 10.8059C6.73907 10.5396 6.57927 10.2991 6.37716 10.0996C6.17609 9.8947 5.93707 9.73353 5.67431 9.6257C5.41156 9.51788 5.13044 9.4656 4.84768 9.47199H0V16.2673H1.07027V10.5728H4.03294H4.02924Z" fill="#4E5251"/>
<path d="M9.08615 9.44147H8.01588V16.2674H9.08615V9.44147Z" fill="#4E5251"/>
<path d="M13.6709 9.47201H10.1268V16.2674H11.1952V10.5728H13.6709C13.8089 10.5732 13.9455 10.6019 14.0727 10.6573C14.1998 10.7127 14.315 10.7935 14.4116 10.8952C14.5133 10.9925 14.5942 11.1106 14.6491 11.2421C14.7039 11.3735 14.7315 11.5152 14.73 11.6583V16.2674H15.8003V11.6468C15.807 11.359 15.7556 11.0729 15.6495 10.8066C15.5434 10.5403 15.3848 10.2996 15.1837 10.0997C14.9852 9.89602 14.749 9.73554 14.4891 9.62773C14.2292 9.51991 13.951 9.46696 13.6709 9.47201Z" fill="#4E5251"/>
<path d="M17.8797 9.44147H16.8095V16.2674H17.8797V9.44147Z" fill="#4E5251"/>
<path d="M23.0292 13.8293V13.9895C23.0353 14.3067 22.9226 14.6142 22.7145 14.848C22.6147 14.9498 22.496 15.03 22.3656 15.0837C22.2352 15.1375 22.0957 15.1637 21.9553 15.1609H19.1426L18.5871 16.2616H21.9497C22.5114 16.2701 23.0542 16.0524 23.4625 15.655C23.6702 15.4479 23.8341 15.1988 23.9441 14.9234C24.054 14.6479 24.1075 14.3521 24.1014 14.0544V9.47582H20.6276C20.3451 9.46914 20.0642 9.52129 19.8017 9.62914C19.5392 9.73699 19.3005 9.89832 19.1 10.1035C18.8975 10.3011 18.7372 10.5401 18.6294 10.8052C18.5217 11.0703 18.4688 11.3557 18.4741 11.643V11.664C18.4688 11.9513 18.5217 12.2367 18.6294 12.5018C18.7372 12.7669 18.8975 13.0059 19.1 13.2035C19.3004 13.4089 19.539 13.5706 19.8015 13.6787C20.064 13.7869 20.345 13.8394 20.6276 13.8331H21.9904L22.4923 12.7285H20.6406C20.3558 12.7337 20.0805 12.6234 19.874 12.4214C19.7708 12.3251 19.6888 12.2072 19.6335 12.0756C19.5782 11.944 19.551 11.8017 19.5536 11.6583V11.6411C19.5504 11.4978 19.5772 11.3555 19.6322 11.2238C19.6871 11.0921 19.769 10.9742 19.8721 10.878C20.0777 10.6754 20.3524 10.5643 20.6369 10.569H23.044V13.8293H23.0292Z" fill="#4E5251"/>
<path d="M29.2101 11.912V11.7441C29.2169 11.4271 29.1048 11.1197 28.8972 10.8856C28.7972 10.7841 28.6785 10.7041 28.5482 10.6504C28.4178 10.5967 28.2784 10.5703 28.138 10.5728H24.8124L25.2938 9.47201H28.1269C28.6892 9.46348 29.2325 9.68111 29.6416 10.0787C29.8489 10.2861 30.0126 10.5352 30.1225 10.8106C30.2324 11.0859 30.2861 11.3816 30.2804 11.6793V16.2578H26.8103C26.5278 16.2641 26.2468 16.212 25.9841 16.1045C25.7214 15.9971 25.4823 15.8364 25.2809 15.6321C25.0787 15.4338 24.9188 15.1944 24.8114 14.929C24.704 14.6636 24.6513 14.3781 24.6569 14.0906V14.0697C24.6512 13.7824 24.7037 13.4971 24.8112 13.232C24.9186 12.9669 25.0786 12.7279 25.2809 12.5301C25.4819 12.3251 25.7209 12.1639 25.9836 12.056C26.2464 11.9482 26.5276 11.896 26.8103 11.9025H28.7009L28.1621 13.0032H26.8215C26.5363 12.9979 26.2607 13.109 26.0549 13.3123C25.951 13.4081 25.8685 13.5259 25.8129 13.6576C25.7573 13.7893 25.7299 13.9318 25.7327 14.0754V14.0926C25.73 14.2359 25.7573 14.3783 25.8125 14.5099C25.8678 14.6415 25.9498 14.7594 26.053 14.8556C26.2582 15.0588 26.5332 15.17 26.8178 15.1647H29.2249V11.912H29.2101Z" fill="#4E5251"/>
<path d="M35.8502 13.8293V13.9895C35.8434 14.3065 35.9555 14.614 36.1631 14.848C36.2634 14.9497 36.3824 15.0298 36.513 15.0835C36.6437 15.1372 36.7835 15.1635 36.9242 15.1609H40.2572L39.7776 16.2616H36.9334C36.3712 16.2698 35.828 16.0522 35.4188 15.655C35.2115 15.4476 35.0478 15.1985 34.9379 14.9231C34.828 14.6477 34.7742 14.3521 34.7799 14.0544V9.47582H38.2518C38.5343 9.46914 38.8153 9.52129 39.0778 9.62914C39.3403 9.73699 39.5789 9.89832 39.7795 10.1035C39.9817 10.3012 40.1417 10.5403 40.2492 10.8054C40.3566 11.0705 40.4092 11.3558 40.4035 11.643V11.664C40.4092 11.9512 40.3566 12.2365 40.2492 12.5016C40.1417 12.7667 39.9817 13.0058 39.7795 13.2035C39.579 13.4089 39.3404 13.5706 39.0779 13.6787C38.8154 13.7869 38.5345 13.8394 38.2518 13.8331H36.3687L36.9075 12.7285H38.2463C38.5316 12.734 38.8076 12.6237 39.0147 12.4214C39.1179 12.3251 39.1999 12.2072 39.2552 12.0756C39.3105 11.944 39.3377 11.8017 39.3351 11.6583V11.6411C39.3378 11.4979 39.3108 11.3557 39.2559 11.2241C39.2009 11.0925 39.1194 10.9745 39.0166 10.878C38.811 10.6754 38.5363 10.5643 38.2518 10.569H35.8447V13.8293H35.8502Z" fill="#4E5251"/>
<path d="M33.2468 15.1666C33.1059 15.1694 32.9659 15.143 32.8352 15.0889C32.7044 15.0348 32.5856 14.9542 32.4857 14.8518C32.384 14.7526 32.3035 14.6327 32.2493 14.4997C32.1951 14.3666 32.1684 14.2234 32.1709 14.0792V10.92H33.7912L34.3467 9.8173H32.1709V8.89777H31.1081V14.0868C31.1031 14.3758 31.1561 14.6627 31.2638 14.9296C31.3715 15.1965 31.5316 15.4376 31.7339 15.6378C31.9347 15.8433 32.1736 16.005 32.4364 16.1132C32.6992 16.2214 32.9805 16.2738 33.2634 16.2674H34.23L34.7207 15.1666H33.2468Z" fill="#4E5251"/>
<path d="M56.6334 4.19901C55.4465 2.35232 51.7394 2.92464 48.3546 5.44476C47.5107 6.07138 46.7369 6.79246 46.0474 7.59478C44.2383 9.71428 43.4958 11.9959 44.3716 13.3542C44.5022 13.5559 44.6657 13.7328 44.8549 13.877C45.2531 14.1042 45.6964 14.2347 46.1511 14.2585C45.9677 14.1411 45.8106 13.9851 45.69 13.8006C45.0086 12.7419 45.6715 10.939 47.1713 9.44719C47.4474 9.17258 47.7413 8.91763 48.0509 8.6841C50.1636 7.12166 52.5264 6.84504 53.3281 8.09079C54.1299 9.33655 53.0782 11.6068 50.9858 13.1806C51.5641 12.8624 52.1209 12.5042 52.6523 12.1085C56.0353 9.58074 57.8185 6.03998 56.6334 4.19901Z" fill="url(#paint0_radial_2622_6580)"/>
<path d="M45.7363 7.23991C44.1938 5.49433 42.6995 5.10324 41.7904 5.74233C40.609 6.57411 40.8812 9.14955 42.3459 11.4198C43.0865 12.5644 43.9846 13.4172 44.8475 13.8769C44.6583 13.7328 44.4948 13.5559 44.3642 13.3542C44.1747 13.0563 44.0567 12.7163 44.0198 12.3622C43.4346 9.63412 45.7529 7.26089 45.7529 7.26089L45.7363 7.23991Z" fill="#EB1F2F"/>
</g>
<defs>
<radialGradient id="paint0_radial_2622_6580" cx="0" cy="0" r="1" gradientUnits="userSpaceOnUse" gradientTransform="translate(53.293 4.69311) scale(6.57529 6.77437)">
<stop stop-color="#F37043"/>
<stop offset="0.46" stop-color="#EF4E3B"/>
<stop offset="1" stop-color="#E92131"/>
</radialGradient>
<clipPath id="clip0_2622_6580">
<rect width="57" height="13.1538" fill="white" transform="translate(0 3.11536)"/>
</clipPath>
</defs>
</svg>
