<svg width="79" height="20" viewBox="0 0 79 20" fill="none" xmlns="http://www.w3.org/2000/svg">
<path d="M72.6004 10.9306C72.5303 10.9204 72.4664 10.8846 72.4211 10.83C72.3758 10.7755 72.3523 10.7062 72.3551 10.6353V9.94507H78.1767C78.3767 9.95181 78.5713 9.87903 78.7178 9.74265C78.8643 9.60626 78.9508 9.41739 78.9584 9.21737V2.66391C78.963 2.60657 78.9557 2.5489 78.9368 2.49455C78.918 2.44019 78.8881 2.39033 78.849 2.34812C78.81 2.30592 78.7625 2.27228 78.7098 2.24933C78.657 2.22638 78.6001 2.21463 78.5426 2.21482H77.3824V3.4623H75.7649C75.7649 3.32924 75.7898 3.15043 75.7981 3.00073V2.86351C75.802 2.80265 75.7925 2.74167 75.7702 2.6849C75.748 2.62813 75.7135 2.57696 75.6692 2.535C75.6348 2.49576 75.5927 2.46404 75.5455 2.44186C75.4982 2.41968 75.4469 2.4075 75.3948 2.4061H69.8767V3.22944H74.0891C74.0475 5.02166 72.5463 6.14024 69.9308 6.25251H69.8559V7.04675H69.9391C72.9871 6.94695 74.929 5.99054 75.5154 4.28564H77.3741V5.48323H74.8459V6.31489H77.3741V7.43762H70.7791V8.29007H77.3949V8.90134C77.3906 8.96054 77.3635 9.01575 77.3193 9.05532C77.2751 9.0949 77.2172 9.11573 77.1579 9.11341H70.7874V10.9805C70.78 11.083 70.7931 11.1859 70.8258 11.2833C70.8585 11.3808 70.9101 11.4707 70.9778 11.5481C71.0455 11.6254 71.1278 11.6886 71.22 11.7339C71.3122 11.7792 71.4125 11.8058 71.5151 11.8121H78.5842C78.6363 11.8161 78.6887 11.8094 78.7382 11.7926C78.7877 11.7757 78.8333 11.749 78.8721 11.714C78.911 11.679 78.9424 11.6365 78.9644 11.589C78.9863 11.5416 78.9985 11.4902 79 11.4379V10.9306H72.6004Z" fill="#004098"/>
<path d="M68.413 2.19403H67.2529V3.24608H65.627C65.2872 2.88801 64.8735 2.60837 64.4146 2.42667C63.9556 2.24497 63.4626 2.16557 62.9698 2.19403C61.4978 2.19403 59.7804 2.88015 59.7804 4.81375C59.7804 6.74735 61.4978 7.43763 62.9698 7.43763C64.1425 7.43763 65.1197 7.0218 65.6602 6.33152H67.2529V8.30671H68.334C68.4583 8.3101 68.579 8.26448 68.6701 8.17969C68.7611 8.0949 68.8151 7.97773 68.8205 7.85346V2.66392C68.8282 2.60564 68.8234 2.54641 68.8065 2.49013C68.7895 2.43384 68.7609 2.38179 68.7224 2.33739C68.6839 2.29299 68.6364 2.25725 68.5831 2.23254C68.5297 2.20783 68.4718 2.1947 68.413 2.19403ZM66.1551 4.81375C66.1546 4.57245 66.1239 4.33216 66.0636 4.09852H67.2529V5.48323H66.0761C66.1319 5.26455 66.1585 5.03942 66.1551 4.81375ZM64.5333 4.81375C64.5333 6.11114 63.7266 6.57271 62.9698 6.57271C62.213 6.57271 61.4021 6.11114 61.4021 4.81375C61.4021 3.51636 62.2088 3.05479 62.9698 3.05479C63.7308 3.05479 64.5333 3.51636 64.5333 4.81375Z" fill="#004098"/>
<path d="M62.213 10.6353V8.60194C62.2182 8.54427 62.2113 8.48615 62.1928 8.43129C62.1742 8.37644 62.1444 8.32607 62.1053 8.2834C62.0661 8.24073 62.0185 8.20671 61.9655 8.18351C61.9124 8.16031 61.8551 8.14845 61.7972 8.14869H60.6329V10.9805C60.6255 11.0833 60.6387 11.1866 60.6717 11.2842C60.7046 11.3819 60.7566 11.4721 60.8247 11.5495C60.8928 11.6269 60.9756 11.6899 61.0683 11.735C61.161 11.7801 61.2618 11.8063 61.3647 11.8121H68.4588C68.503 11.8138 68.5471 11.8067 68.5886 11.7913C68.6301 11.7759 68.6682 11.7525 68.7006 11.7224C68.7331 11.6923 68.7593 11.656 68.7777 11.6158C68.7961 11.5755 68.8064 11.532 68.808 11.4878V10.9306H62.4459C62.378 10.9176 62.3171 10.8807 62.2743 10.8264C62.2316 10.7722 62.2098 10.7043 62.213 10.6353Z" fill="#004098"/>
<path d="M30.5268 5.91983V2.86349C30.5252 2.80251 30.5116 2.74245 30.4866 2.68679C30.4616 2.63113 30.4259 2.58097 30.3814 2.5392C30.3369 2.49744 30.2846 2.46491 30.2275 2.44349C30.1704 2.42207 30.1096 2.41218 30.0486 2.4144H29.4332C29.3104 2.41103 29.1912 2.45634 29.1016 2.54046C29.0121 2.62458 28.9594 2.74069 28.955 2.86349V5.91983C28.979 6.79666 28.7685 7.664 28.3453 8.43229C27.922 9.20057 27.3013 9.84195 26.5474 10.2902L26.5058 10.311V11.1925L26.6181 11.151C28.4893 10.4066 29.3459 9.32963 29.7409 8.50213C30.1568 9.33379 30.9884 10.4066 32.868 11.151L32.9761 11.1925V10.311L32.9387 10.2902C32.1842 9.84215 31.563 9.20093 31.139 8.43268C30.715 7.66444 30.5037 6.79699 30.5268 5.91983Z" fill="#004098"/>
<path d="M35.9118 2.66391C35.9164 2.60657 35.9091 2.5489 35.8903 2.49455C35.8714 2.44019 35.8415 2.39033 35.8025 2.34812C35.7634 2.30592 35.716 2.27228 35.6632 2.24933C35.6105 2.22638 35.5535 2.21463 35.496 2.21482H34.3483V11.7789H35.9118V6.6226H37.2467V5.79094H35.9118V2.66391Z" fill="#004098"/>
<path d="M53.2228 8.87641H54.3123C54.3729 8.87863 54.4334 8.86888 54.4902 8.84772C54.5471 8.82656 54.5992 8.79439 54.6436 8.75307C54.688 8.71174 54.7238 8.66207 54.749 8.60689C54.7742 8.55171 54.7883 8.4921 54.7905 8.43147V3.1047C54.7809 2.91827 54.7 2.74265 54.5645 2.61417C54.4291 2.48569 54.2494 2.41418 54.0628 2.41443H48.7984V3.26688H53.2228V8.87641Z" fill="#004098"/>
<path d="M46.8523 2.66391C46.8569 2.60657 46.8496 2.5489 46.8307 2.49455C46.8119 2.44019 46.782 2.39033 46.7429 2.34812C46.7038 2.30592 46.6564 2.27228 46.6037 2.24933C46.5509 2.22638 46.494 2.21463 46.4365 2.21482H45.2721V6.49785C45.2705 6.535 45.2616 6.57146 45.2459 6.60516C45.2302 6.63885 45.208 6.66912 45.1806 6.69423C45.1532 6.71933 45.1211 6.73878 45.0861 6.75147C45.0512 6.76415 45.014 6.76981 44.9769 6.76814H40.0577C39.9875 6.75792 39.9236 6.72211 39.8783 6.66759C39.833 6.61308 39.8095 6.54373 39.8123 6.4729V5.4167C39.8139 5.38938 39.8209 5.36264 39.8328 5.33802C39.8448 5.3134 39.8615 5.29137 39.8819 5.27322C39.9024 5.25506 39.9263 5.24112 39.9521 5.23221C39.978 5.22329 40.0054 5.21957 40.0327 5.22126H43.2055C43.2703 5.22347 43.3348 5.21283 43.3955 5.18995C43.4561 5.16706 43.5117 5.13238 43.5588 5.08792C43.606 5.04346 43.6439 4.99009 43.6703 4.93089C43.6967 4.8717 43.7112 4.80786 43.7128 4.74305V2.78866C43.7173 2.67353 43.6761 2.56128 43.5982 2.47638C43.5203 2.39148 43.4121 2.3408 43.297 2.33541H38.253V3.18785H42.1534V4.36881H39.122C39.009 4.36258 38.896 4.37949 38.7897 4.41849C38.6835 4.45749 38.5863 4.51776 38.5042 4.59561C38.422 4.67347 38.3566 4.76727 38.312 4.87127C38.2674 4.97528 38.2445 5.08729 38.2446 5.20047V6.79309C38.2379 6.8958 38.2515 6.99883 38.2846 7.09627C38.3178 7.19372 38.3698 7.28366 38.4378 7.36093C38.5058 7.4382 38.5884 7.50128 38.6809 7.54655C38.7733 7.59183 38.8738 7.6184 38.9765 7.62475H45.8169C46.0813 7.63375 46.3386 7.53781 46.5326 7.35786C46.7265 7.17791 46.8415 6.92855 46.8523 6.66418V5.10898H48.0041V4.25653H46.8523V2.66391Z" fill="#004098"/>
<path d="M38.6688 10.9805C38.6614 11.083 38.6745 11.1859 38.7072 11.2834C38.7399 11.3808 38.7915 11.4708 38.8592 11.5481C38.9269 11.6254 39.0092 11.6886 39.1014 11.7339C39.1936 11.7792 39.2939 11.8058 39.3965 11.8122H45.9998C46.2114 11.8126 46.4151 11.7325 46.5696 11.588C46.7241 11.4435 46.8177 11.2456 46.8315 11.0346V8.30673H38.6688V10.9805ZM40.2323 10.6562V9.15502H45.2721V10.6728C45.2678 10.7441 45.2359 10.811 45.1831 10.8591C45.1303 10.9073 45.0608 10.9329 44.9894 10.9306H40.4901C40.42 10.9204 40.3561 10.8846 40.3108 10.8301C40.2655 10.7755 40.242 10.7062 40.2448 10.6354L40.2323 10.6562Z" fill="#004098"/>
<path d="M51.8797 6.20264C51.8842 6.08751 51.843 5.97526 51.7651 5.89036C51.6872 5.80546 51.5789 5.75479 51.4638 5.74939H50.7486C50.6345 5.74705 50.5239 5.78909 50.4401 5.86665C50.3564 5.94421 50.3059 6.05124 50.2995 6.16522V10.1821H48.4782V11.0138H55.2146C55.2608 11.016 55.307 11.009 55.3505 10.9933C55.394 10.9775 55.434 10.9532 55.468 10.9219C55.5021 10.8906 55.5295 10.8528 55.5488 10.8107C55.5682 10.7687 55.5789 10.7232 55.5805 10.677V10.1863H51.8672L51.8797 6.20264Z" fill="#004098"/>
<path d="M57.7636 2.66391C57.7682 2.60657 57.7609 2.5489 57.7421 2.49455C57.7232 2.44019 57.6933 2.39033 57.6542 2.34812C57.6152 2.30592 57.5678 2.27228 57.515 2.24933C57.4623 2.22638 57.4053 2.21463 57.3478 2.21482H56.1876V11.7789H57.2605C57.3866 11.7834 57.5094 11.7378 57.6021 11.6521C57.6948 11.5664 57.7499 11.4476 57.7553 11.3215V6.86794H59.0028V6.03628H57.7553L57.7636 2.66391Z" fill="#004098"/>
<path d="M29.0091 13.8414H29.2004C29.264 13.8424 29.3266 13.8581 29.3833 13.8871C29.4131 13.9001 29.4369 13.9239 29.4499 13.9536C29.4783 14.0479 29.4882 14.1467 29.479 14.2447V15.0764H28.1067V14.2447C28.1005 14.1497 28.109 14.0544 28.1317 13.962C28.1372 13.9457 28.146 13.9307 28.1574 13.9178C28.1688 13.905 28.1827 13.8945 28.1982 13.8871C28.2561 13.8574 28.3202 13.8418 28.3853 13.8414H28.5766V13.6002H27.0256V13.8414H27.2169C27.2819 13.8418 27.346 13.8574 27.404 13.8871C27.432 13.9026 27.455 13.9257 27.4705 13.9536C27.4936 14.0488 27.502 14.147 27.4955 14.2447V16.3239C27.5079 16.431 27.4936 16.5396 27.4539 16.6399C27.4234 16.6711 27.3862 16.6948 27.3451 16.7092C27.304 16.7237 27.2601 16.7284 27.2169 16.7231H27.0256V16.9642H28.5808V16.7231H28.3895C28.3242 16.7248 28.2595 16.709 28.2024 16.6773C28.1747 16.6633 28.1516 16.6417 28.1358 16.6149C28.1136 16.5196 28.1052 16.4216 28.1109 16.3239V15.4132H29.4831V16.3114C29.4831 16.5526 29.4499 16.6108 29.4374 16.6274C29.4078 16.6585 29.3713 16.6823 29.3308 16.6967C29.2904 16.7112 29.2471 16.7159 29.2045 16.7106H29.0132V16.9518H30.5684V16.7106H30.3522C30.2882 16.7118 30.2251 16.696 30.1692 16.6648C30.1416 16.6508 30.1185 16.6292 30.1027 16.6025C30.0804 16.5071 30.072 16.4091 30.0778 16.3114V14.2322C30.0722 14.1361 30.0792 14.0397 30.0985 13.9453C30.1086 13.9308 30.1216 13.9185 30.1366 13.9092C30.1516 13.8999 30.1684 13.8938 30.1859 13.8913C30.2426 13.8622 30.3052 13.8466 30.3688 13.8455H30.5643V13.6002H29.0091V13.8414Z" fill="#0081CC"/>
<path d="M38.8725 16.7148C38.8132 16.719 38.7536 16.7105 38.6979 16.6898C38.674 16.6774 38.6538 16.6587 38.6397 16.6358C38.6175 16.5546 38.6091 16.4702 38.6147 16.3863V15.459C38.6213 15.3043 38.6016 15.1496 38.5565 15.0016C38.5116 14.8699 38.4256 14.7562 38.3112 14.6772C38.1977 14.6127 38.0695 14.5788 37.939 14.5788C37.8085 14.5788 37.6803 14.6127 37.5668 14.6772C37.4345 14.7552 37.3153 14.8534 37.2134 14.9683C37.1755 14.8681 37.1108 14.7804 37.0263 14.7146C36.9305 14.6423 36.8173 14.5969 36.6981 14.583C36.5789 14.5691 36.4582 14.5873 36.3484 14.6356C36.2552 14.6716 36.1681 14.7221 36.0906 14.7853L35.9326 14.935V14.5816H35.758L35.0926 14.8394V15.1014L35.155 15.0764C35.234 15.0473 35.3006 15.0265 35.3421 15.0764C35.3837 15.1263 35.3421 15.0764 35.3671 15.1388C35.3788 15.2869 35.3788 15.4356 35.3671 15.5837V16.4154C35.3737 16.4966 35.3653 16.5784 35.3421 16.6566C35.3299 16.6841 35.3096 16.7073 35.2839 16.7231C35.2264 16.7355 35.1668 16.7355 35.1093 16.7231H35.0303V16.9601H36.2778V16.7231H36.2154C36.148 16.7355 36.079 16.7355 36.0116 16.7231C35.9871 16.7077 35.9671 16.6862 35.9534 16.6607C35.9391 16.5796 35.9391 16.4965 35.9534 16.4154V15.2594C36.0296 15.1787 36.1198 15.1125 36.2195 15.0639C36.2889 15.0137 36.3748 14.9917 36.4598 15.0025C36.5447 15.0133 36.6224 15.0561 36.677 15.1221C36.7325 15.2252 36.7557 15.3426 36.7435 15.459V16.3863C36.7485 16.4569 36.7485 16.5277 36.7435 16.5983C36.7326 16.6334 36.7108 16.664 36.6811 16.6857C36.6133 16.7105 36.541 16.7204 36.469 16.7148H36.3942V16.9518H37.6625V16.7148H37.5876C37.5184 16.7213 37.4485 16.7113 37.3839 16.6857C37.3572 16.6759 37.335 16.6566 37.3215 16.6316C37.3094 16.5503 37.3094 16.4676 37.3215 16.3863V15.2677C37.4047 15.1887 37.4985 15.1215 37.6001 15.0681C37.6694 15.0315 37.7463 15.0115 37.8246 15.0099C37.871 15.0061 37.9175 15.0149 37.9592 15.0354C38.0009 15.0559 38.0363 15.0873 38.0617 15.1263C38.1072 15.2309 38.1258 15.3453 38.1157 15.459V16.3863C38.1206 16.4555 38.1206 16.525 38.1157 16.5942C38.1088 16.6255 38.0912 16.6535 38.0658 16.6732C38.012 16.7054 37.9495 16.72 37.887 16.7148H37.7664V16.9518H39.0139V16.7148H38.8725Z" fill="#0081CC"/>
<path d="M42.0162 16.3863C41.9599 16.4438 41.9002 16.498 41.8374 16.5484C41.8374 16.5484 41.8374 16.5484 41.7916 16.5484C41.7459 16.5484 41.7916 16.5484 41.7916 16.4985C41.7842 16.3767 41.7842 16.2545 41.7916 16.1326V15.3924C41.8011 15.2423 41.7842 15.0918 41.7417 14.9475C41.6951 14.8318 41.6079 14.7372 41.4964 14.6814C41.3338 14.6062 41.1557 14.5706 40.9766 14.5774C40.7466 14.5632 40.5187 14.6293 40.3321 14.7645C40.262 14.8103 40.2034 14.8717 40.1608 14.9438C40.1183 15.0159 40.0929 15.0968 40.0867 15.1804C40.0839 15.2612 40.1122 15.3401 40.1658 15.4007C40.1926 15.4289 40.2248 15.4514 40.2605 15.4667C40.2963 15.482 40.3348 15.4899 40.3737 15.4899C40.4126 15.4899 40.451 15.482 40.4868 15.4667C40.5225 15.4514 40.5548 15.4289 40.5816 15.4007C40.6343 15.3382 40.6611 15.2579 40.6564 15.1762V15.0431C40.6574 15.0181 40.6638 14.9935 40.6753 14.9712C40.6868 14.949 40.7031 14.9295 40.723 14.9142C40.7779 14.8728 40.8456 14.8522 40.9142 14.856C40.96 14.8522 41.006 14.8585 41.0491 14.8742C41.0922 14.89 41.1313 14.915 41.1637 14.9475C41.24 15.0719 41.2708 15.2188 41.2511 15.3633V15.3966C40.9836 15.4854 40.7236 15.5952 40.4735 15.7251C40.3245 15.8035 40.1962 15.916 40.0992 16.0536C40.0431 16.1494 40.0144 16.2587 40.0161 16.3696C40.0067 16.5258 40.0556 16.6799 40.1533 16.8021C40.2065 16.8589 40.271 16.9041 40.3425 16.9349C40.4141 16.9657 40.4912 16.9813 40.5691 16.9809C40.6765 16.9797 40.7825 16.9571 40.881 16.9144C40.997 16.8473 41.1081 16.7723 41.2136 16.6898C41.2215 16.7565 41.2474 16.8197 41.2885 16.8728C41.3198 16.9075 41.3584 16.9348 41.4016 16.9528C41.4447 16.9708 41.4913 16.9789 41.538 16.9767C41.6322 16.9678 41.7235 16.9391 41.8059 16.8925C41.8883 16.846 41.9599 16.7826 42.0162 16.7064V16.3447V16.3863ZM41.2178 16.3863C41.1028 16.4929 40.9575 16.5612 40.802 16.5817C40.7668 16.5822 40.732 16.5746 40.7003 16.5594C40.6686 16.5443 40.6407 16.522 40.619 16.4944C40.5896 16.4643 40.5666 16.4284 40.5516 16.3891C40.5366 16.3497 40.5298 16.3077 40.5317 16.2657C40.5323 16.1918 40.5571 16.1202 40.6024 16.0619C40.6693 15.98 40.7529 15.9133 40.8477 15.8665C40.9059 15.8374 41.0265 15.7833 41.2095 15.7126L41.2178 16.3863Z" fill="#0081CC"/>
<path d="M45.5216 16.7148C45.4609 16.7214 45.3995 16.7128 45.3428 16.6898C45.3307 16.6848 45.3197 16.6775 45.3104 16.6682C45.3012 16.6589 45.2938 16.6479 45.2888 16.6358C45.2619 16.5555 45.252 16.4706 45.2597 16.3863V15.4673C45.2681 15.3112 45.2483 15.1549 45.2015 15.0057C45.1594 14.8749 45.0781 14.7602 44.9686 14.6772C44.8621 14.6089 44.7375 14.5741 44.611 14.5774C44.3534 14.5973 44.1142 14.7184 43.9457 14.9142V14.5774H43.7668L43.114 14.8311V15.0889H43.1639C43.2512 15.0556 43.3219 15.0473 43.351 15.0889C43.3664 15.1097 43.3764 15.134 43.3801 15.1596C43.3901 15.3133 43.3901 15.4675 43.3801 15.6212V16.3863C43.3907 16.4816 43.3748 16.5779 43.3344 16.6649C43.3115 16.684 43.2849 16.6983 43.2563 16.7069C43.2278 16.7155 43.1977 16.7182 43.1681 16.7148H43.0433V16.9518H44.2908V16.7148H44.2118C44.1444 16.7267 44.0754 16.7267 44.008 16.7148C43.9811 16.6974 43.9596 16.6729 43.9457 16.6441C43.9357 16.5654 43.9357 16.4858 43.9457 16.4071V15.2802C44.0068 15.205 44.0825 15.143 44.1683 15.098C44.254 15.0529 44.3481 15.0258 44.4446 15.0182C44.483 15.013 44.5221 15.0193 44.5569 15.0363C44.5917 15.0533 44.6207 15.0803 44.6401 15.1138C44.696 15.2362 44.7203 15.3706 44.7108 15.5047V16.3863C44.7159 16.4541 44.7159 16.5222 44.7108 16.59C44.7027 16.6276 44.6822 16.6613 44.6526 16.6857C44.5995 16.7108 44.5405 16.7209 44.4821 16.7148H44.3615V16.9518H45.609V16.7148H45.5216Z" fill="#0081CC"/>
<path d="M52.2705 16.2823C52.2494 16.3426 52.212 16.3959 52.1624 16.4362C52.0818 16.4881 51.988 16.5157 51.8921 16.5157C51.7963 16.5157 51.7024 16.4881 51.6218 16.4362C51.5032 16.3563 51.3955 16.2612 51.3016 16.1534C51.4665 15.946 51.6152 15.7264 51.7466 15.4964C51.8213 15.3434 51.9195 15.2031 52.0377 15.0806C52.119 15.0309 52.2126 15.005 52.3079 15.0057H52.3911V14.7229H51.2226V14.9558H51.2933C51.3126 14.9561 51.3316 14.9608 51.3489 14.9694C51.3662 14.978 51.3813 14.9904 51.3931 15.0057C51.429 15.0439 51.4484 15.0947 51.4472 15.1471C51.4131 15.4167 51.2919 15.6679 51.102 15.8623C50.9092 15.5944 50.7302 15.3168 50.5656 15.0307C50.7773 14.9246 50.9698 14.7841 51.1353 14.6148C51.2622 14.4831 51.3323 14.307 51.3307 14.1241C51.3316 14.0367 51.3135 13.9502 51.2776 13.8705C51.2417 13.7908 51.1889 13.7198 51.1228 13.6626C50.9807 13.5347 50.7941 13.4675 50.603 13.4755C50.395 13.4721 50.1912 13.5347 50.0209 13.6543C49.9114 13.7289 49.8229 13.8305 49.7639 13.9491C49.7049 14.0678 49.6774 14.1997 49.6841 14.3321C49.6859 14.4403 49.7012 14.5479 49.7298 14.6522C49.7636 14.7719 49.8067 14.8887 49.8587 15.0015C49.5693 15.1379 49.3125 15.3351 49.1061 15.5795C48.9664 15.7532 48.8875 15.968 48.8815 16.1908C48.8813 16.2963 48.9043 16.4005 48.9489 16.496C48.9934 16.5916 49.0585 16.6762 49.1393 16.7439C49.3318 16.9025 49.5763 16.984 49.8254 16.9726C50.0111 16.9732 50.1949 16.9365 50.366 16.8645C50.5508 16.7831 50.7219 16.6737 50.8733 16.5401C50.9939 16.6673 51.1344 16.774 51.2892 16.8561C51.4233 16.9294 51.573 16.9694 51.7258 16.9726C51.9099 16.9739 52.0889 16.9123 52.2331 16.7979C52.3931 16.6592 52.504 16.4725 52.5491 16.2657V16.2282L52.2705 16.2823ZM50.312 13.9661C50.3427 13.928 50.3822 13.8979 50.4271 13.8783C50.472 13.8588 50.5209 13.8504 50.5698 13.8539C50.6093 13.8528 50.6485 13.86 50.6851 13.8751C50.7216 13.8901 50.7546 13.9126 50.7819 13.9412C50.8113 13.9713 50.8342 14.0071 50.8492 14.0465C50.8643 14.0858 50.871 14.1278 50.8692 14.1699C50.869 14.2974 50.8216 14.4204 50.7361 14.515C50.6373 14.6237 50.5188 14.7126 50.3868 14.777C50.3244 14.6273 50.2829 14.515 50.2579 14.436C50.2345 14.3591 50.2219 14.2794 50.2205 14.199C50.2264 14.1138 50.2583 14.0325 50.312 13.9661ZM50.312 16.536C50.2272 16.5693 50.1369 16.5862 50.0458 16.5859C49.9727 16.5894 49.8998 16.5767 49.8322 16.5487C49.7646 16.5206 49.7041 16.4779 49.655 16.4237C49.5538 16.3095 49.5016 16.1602 49.5094 16.0078C49.5088 15.8708 49.5542 15.7376 49.6383 15.6294C49.7352 15.5104 49.852 15.4091 49.9835 15.33C50.0666 15.4964 50.1498 15.6378 50.2205 15.7459C50.2912 15.854 50.4326 16.0619 50.6363 16.3114C50.5375 16.3989 50.4286 16.4742 50.312 16.536Z" fill="#0081CC"/>
<path d="M58.6743 16.2241C58.573 16.3497 58.4506 16.4566 58.3125 16.5401C58.15 16.6261 57.9682 16.669 57.7844 16.6649C57.5689 16.6679 57.3564 16.6134 57.169 16.5068C56.9867 16.4026 56.8413 16.2442 56.7532 16.0536C56.6602 15.8239 56.6149 15.5778 56.6201 15.33C56.6141 15.046 56.6636 14.7635 56.7656 14.4984C56.8386 14.301 56.9726 14.1321 57.1482 14.016C57.3136 13.9159 57.5037 13.864 57.6971 13.8663C57.9215 13.8608 58.1413 13.9311 58.3208 14.0659C58.5238 14.2404 58.6688 14.4724 58.7367 14.7313V14.7853H58.9155V13.5378H58.6493V13.596C58.638 13.6471 58.6137 13.6944 58.5787 13.7333C58.5706 13.7415 58.5608 13.748 58.5501 13.7523C58.5394 13.7566 58.5278 13.7586 58.5163 13.7582C58.478 13.751 58.4414 13.7369 58.4082 13.7166C58.1554 13.5907 57.8754 13.5293 57.5931 13.538C57.3108 13.5467 57.0351 13.6252 56.7906 13.7665C56.5234 13.9213 56.3045 14.1473 56.1585 14.4194C56.0053 14.6997 55.9265 15.0147 55.9298 15.3342C55.9222 15.7235 56.0452 16.1041 56.2791 16.4154C56.4334 16.6174 56.6342 16.7792 56.8644 16.8871C57.0946 16.9949 57.3475 17.0457 57.6015 17.0349C57.8931 17.0439 58.1814 16.9704 58.4331 16.8229C58.6641 16.6729 58.8564 16.4706 58.9945 16.2324L58.6743 16.2241Z" fill="#0081CC"/>
<path d="M61.3606 14.5774C61.1541 14.5753 60.9514 14.632 60.7761 14.741C60.6008 14.85 60.4602 15.0068 60.3709 15.1928C60.2695 15.3853 60.2154 15.5991 60.2129 15.8166C60.2091 16.0993 60.3014 16.375 60.4748 16.5983C60.5732 16.7319 60.7026 16.8396 60.8518 16.912C61.001 16.9844 61.1656 17.0195 61.3314 17.0142C61.5422 17.0167 61.7496 16.9606 61.9302 16.852C62.1201 16.7439 62.2735 16.5818 62.371 16.3863C62.4671 16.1922 62.5182 15.979 62.5207 15.7625C62.5238 15.4791 62.4266 15.2036 62.2463 14.9849C62.142 14.8511 62.0071 14.7442 61.853 14.6733C61.6989 14.6024 61.53 14.5695 61.3606 14.5774ZM61.9011 15.9372C61.9219 16.1464 61.8737 16.3566 61.7639 16.536C61.7252 16.5863 61.6754 16.6271 61.6185 16.6552C61.5615 16.6833 61.4989 16.698 61.4354 16.6981C61.3408 16.6941 61.2493 16.6635 61.1713 16.6098C61.0933 16.5561 61.0321 16.4815 60.9946 16.3946C60.869 16.1551 60.8074 15.8873 60.8158 15.617C60.809 15.4654 60.833 15.314 60.8865 15.172C60.9194 15.0793 60.9823 15.0003 61.0653 14.9475C61.1311 14.905 61.2074 14.882 61.2857 14.881C61.3592 14.8811 61.4316 14.8989 61.4967 14.9329C61.5619 14.9669 61.6179 15.0162 61.6599 15.0764C61.8327 15.329 61.9175 15.6315 61.9011 15.9372Z" fill="#0081CC"/>
<path d="M66.0386 16.7148C65.9779 16.7213 65.9164 16.7128 65.8598 16.6898C65.8477 16.6848 65.8367 16.6775 65.8274 16.6682C65.8181 16.6589 65.8108 16.6479 65.8057 16.6358C65.7789 16.5555 65.769 16.4706 65.7766 16.3863V15.4673C65.785 15.3112 65.7653 15.1548 65.7184 15.0057C65.675 14.8745 65.5922 14.7598 65.4814 14.6772C65.3764 14.609 65.2531 14.5742 65.1279 14.5774C64.8704 14.5973 64.6311 14.7184 64.4626 14.9142V14.5774H64.2838L63.6268 14.8311V15.093H63.6767C63.7682 15.0598 63.8389 15.0515 63.868 15.093C63.8833 15.1139 63.8933 15.1381 63.8971 15.1637C63.9052 15.3175 63.9052 15.4716 63.8971 15.6253V16.3863C63.9077 16.4812 63.8934 16.5772 63.8555 16.6649C63.8326 16.684 63.8061 16.6983 63.7775 16.7069C63.7489 16.7155 63.7188 16.7182 63.6892 16.7148H63.5644V16.9518H64.8119V16.7148H64.7329C64.6655 16.7267 64.5965 16.7267 64.5291 16.7148C64.5023 16.6974 64.4807 16.6729 64.4668 16.6441C64.4568 16.5654 64.4568 16.4858 64.4668 16.4071V15.2802C64.5271 15.2051 64.6021 15.1431 64.6871 15.0981C64.7722 15.0531 64.8656 15.0259 64.9616 15.0182C65.0006 15.0132 65.0401 15.0196 65.0755 15.0365C65.1109 15.0535 65.1407 15.0804 65.1612 15.1138C65.2172 15.2361 65.2415 15.3706 65.2319 15.5047V16.3863C65.237 16.4541 65.237 16.5222 65.2319 16.59C65.2238 16.6276 65.2033 16.6612 65.1737 16.6857C65.1206 16.7108 65.0616 16.7209 65.0032 16.7148H64.866V16.9518H66.1135V16.7148H66.0386Z" fill="#0081CC"/>
<path d="M69.5066 16.7148C69.4459 16.7214 69.3845 16.7128 69.3278 16.6898C69.304 16.6787 69.2849 16.6596 69.2738 16.6358C69.2469 16.5555 69.237 16.4706 69.2447 16.3863V15.4673C69.253 15.3112 69.2333 15.1549 69.1864 15.0057C69.1459 14.8742 69.0643 14.759 68.9536 14.6772C68.8471 14.6089 68.7225 14.5741 68.596 14.5774C68.3386 14.5982 68.0997 14.7192 67.9306 14.9142V14.5774H67.7518L67.0948 14.8311V15.093H67.1489C67.2362 15.0598 67.3069 15.0515 67.336 15.093C67.3468 15.1068 67.3552 15.1223 67.361 15.1388C67.3709 15.2925 67.3709 15.4467 67.361 15.6004V16.3863C67.3715 16.4816 67.3557 16.5779 67.3152 16.6649C67.2861 16.7065 67.2071 16.7148 67.1489 16.7148H67.0241V16.9518H68.2716V16.7148H68.1926C68.1252 16.7267 68.0563 16.7267 67.9889 16.7148C67.9621 16.6983 67.9417 16.6735 67.9306 16.6441C67.9152 16.5658 67.9152 16.4853 67.9306 16.4071V15.2802C67.9917 15.205 68.0675 15.143 68.1533 15.098C68.239 15.0529 68.3331 15.0258 68.4296 15.0182C68.4685 15.0137 68.5079 15.0203 68.5432 15.0373C68.5785 15.0542 68.6084 15.0807 68.6292 15.1138C68.6814 15.2372 68.7042 15.371 68.6958 15.5047V16.3863C68.7009 16.4541 68.7009 16.5222 68.6958 16.59C68.6877 16.6276 68.6672 16.6613 68.6376 16.6857C68.5845 16.7108 68.5255 16.7209 68.4671 16.7148H68.3465V16.9518H69.594V16.7148H69.5066Z" fill="#0081CC"/>
<path d="M72.3758 16.1326C72.3321 16.2282 72.2666 16.3122 72.1846 16.3779C72.0883 16.4486 71.9713 16.4852 71.8519 16.4819C71.7534 16.4813 71.6563 16.4586 71.5678 16.4154C71.4792 16.3722 71.4015 16.3097 71.3404 16.2324C71.1951 16.0557 71.1171 15.8332 71.12 15.6045H72.6503V15.5296C72.6561 15.4022 72.6358 15.2749 72.5908 15.1555C72.5457 15.0361 72.4768 14.9271 72.3883 14.8352C72.301 14.7487 72.197 14.6809 72.0826 14.6358C71.9682 14.5908 71.8459 14.5695 71.723 14.5732C71.5759 14.5696 71.4297 14.5975 71.2942 14.6548C71.1587 14.7122 71.0369 14.7978 70.9371 14.9059C70.7178 15.1601 70.6059 15.4897 70.6252 15.8249C70.6095 16.1418 70.7185 16.4522 70.9288 16.6898C71.0214 16.7933 71.1348 16.8761 71.2617 16.9327C71.3885 16.9893 71.5259 17.0185 71.6648 17.0183C71.7907 17.0201 71.9155 16.9951 72.0309 16.9449C72.1463 16.8948 72.2498 16.8205 72.3343 16.7272C72.4891 16.5608 72.5955 16.3551 72.642 16.1326H72.3758ZM71.2822 15.0223C71.3294 14.9787 71.386 14.9466 71.4477 14.9285C71.5093 14.9105 71.5743 14.9069 71.6376 14.9182C71.7008 14.9295 71.7606 14.9553 71.8122 14.9935C71.8639 15.0318 71.9059 15.0815 71.9351 15.1388C71.958 15.1986 71.9706 15.2618 71.9725 15.3259H71.12C71.1367 15.2088 71.1942 15.1013 71.2822 15.0223Z" fill="#0081CC"/>
<path d="M75.5486 16.0994C75.504 16.1969 75.4404 16.2845 75.3615 16.3572C75.2571 16.4493 75.1223 16.4996 74.9831 16.4985C74.8899 16.4995 74.7981 16.4758 74.717 16.4298C74.6359 16.3837 74.5685 16.3171 74.5215 16.2366C74.3983 16.046 74.3347 15.8231 74.3386 15.5962C74.3277 15.3935 74.3913 15.1939 74.5174 15.0348C74.5578 14.9862 74.6088 14.9475 74.6664 14.9216C74.724 14.8956 74.7868 14.8832 74.85 14.8851C74.9154 14.8821 74.9798 14.9011 75.033 14.9392C75.0558 14.9595 75.0739 14.9846 75.0861 15.0126C75.0983 15.0405 75.1043 15.0708 75.1037 15.1014C75.1055 15.1833 75.1316 15.2629 75.1785 15.3301C75.2112 15.3694 75.2527 15.4005 75.2997 15.4207C75.3467 15.4409 75.3978 15.4498 75.4488 15.4465C75.5291 15.4505 75.6079 15.4237 75.6692 15.3717C75.6959 15.3457 75.717 15.3147 75.7313 15.2804C75.7456 15.2461 75.7527 15.2092 75.7524 15.1721C75.7467 15.0889 75.7219 15.0082 75.6801 14.9361C75.6383 14.864 75.5805 14.8025 75.5112 14.7562C75.344 14.6301 75.1384 14.5655 74.929 14.5733C74.7789 14.5713 74.63 14.6005 74.4919 14.6593C74.3537 14.718 74.2293 14.8048 74.1265 14.9142C74.0155 15.0317 73.9291 15.1702 73.8727 15.3217C73.8163 15.4731 73.7909 15.6343 73.798 15.7958C73.7822 16.1183 73.8892 16.4348 74.0974 16.6815C74.1847 16.7852 74.2936 16.8686 74.4163 16.926C74.5391 16.9835 74.6729 17.0135 74.8084 17.0142C75.0417 17.0129 75.2659 16.9238 75.4363 16.7647C75.6286 16.5872 75.7584 16.3524 75.8064 16.0952L75.5486 16.0994Z" fill="#0081CC"/>
<path d="M78.1268 16.3863V16.432C78.1106 16.4768 78.0799 16.5149 78.0394 16.5401C77.9563 16.5942 77.8731 16.5942 77.8232 16.5401C77.7871 16.4682 77.7727 16.3873 77.7816 16.3073V14.9558H78.2973V14.6398H77.7567V13.9287H77.5529V13.9786C77.4864 14.1325 77.4365 14.2364 77.4032 14.2946C77.3365 14.3961 77.2568 14.4883 77.1662 14.5691C77.0966 14.6357 77.0147 14.6879 76.925 14.7229H76.8751V14.9267H77.2244V16.3031C77.2186 16.4318 77.2384 16.5605 77.2826 16.6815C77.3231 16.7691 77.39 16.8418 77.4739 16.8894C77.5508 16.9349 77.6383 16.9593 77.7276 16.9601C77.8608 16.9568 77.9893 16.9101 78.0935 16.827C78.2153 16.7269 78.3062 16.5943 78.3555 16.4445L78.3929 16.3405L78.1268 16.3863Z" fill="#0081CC"/>
<path d="M33.8701 16.5567C33.8591 16.5622 33.847 16.5651 33.8348 16.5651C33.8225 16.5651 33.8104 16.5622 33.7994 16.5567C33.7814 16.5355 33.7698 16.5095 33.7661 16.4819C33.7531 16.3353 33.7531 16.1878 33.7661 16.0411V14.6398H32.8472V14.8768H32.922C33.0925 14.8768 33.1424 14.9101 33.159 14.9225C33.1757 14.935 33.2006 14.9849 33.2006 15.118V16.3072C33.1224 16.3891 33.0328 16.4591 32.9345 16.5152C32.8746 16.5604 32.8016 16.5848 32.7266 16.5848C32.6515 16.5848 32.5785 16.5604 32.5187 16.5152C32.4812 16.4861 32.4396 16.3987 32.4396 16.1783V14.6398H31.5082V14.881H31.5997C31.6683 14.8667 31.739 14.8667 31.8076 14.881C31.8351 14.8932 31.8583 14.9135 31.8741 14.9392C31.8969 14.9944 31.9055 15.0544 31.8991 15.1138V16.0785C31.8926 16.2439 31.9108 16.4093 31.9531 16.5692C31.9918 16.6916 32.0673 16.799 32.1694 16.8769C32.2749 16.9494 32.3985 16.9909 32.5264 16.9968C32.6542 17.0027 32.7812 16.9727 32.8929 16.9102C33.0111 16.8379 33.1188 16.7498 33.2131 16.6482V16.8021H34.0447V16.5359L33.8701 16.5567Z" fill="#0081CC"/>
<path d="M16.713 15.4922L16.2972 16.3239C16.1844 16.5485 16.0181 16.7418 15.8128 16.8869C15.6076 17.0319 15.3698 17.1242 15.1204 17.1555H1.24419C1.14439 17.1555 1.08617 17.1306 1.06954 17.1056C1.04799 17.0012 1.06735 16.8926 1.1236 16.8021L3.14037 12.4774C2.72454 12.5523 2.28376 12.6479 1.83882 12.7644L0.175509 16.353C0.0604238 16.5588 0 16.7908 0 17.0266C0 17.2625 0.0604238 17.4944 0.175509 17.7003C0.29493 17.8702 0.455798 18.0067 0.642837 18.097C0.829876 18.1872 1.03688 18.2281 1.24419 18.2159H15.1412C15.5899 18.1874 16.0233 18.0419 16.3983 17.7939C16.7733 17.5458 17.0768 17.2039 17.2785 16.8021L17.7651 15.7625C17.4199 15.671 17.0706 15.592 16.713 15.4922Z" fill="#0051A4"/>
<path d="M5.86405 6.61846L7.60637 2.876C7.71885 2.65117 7.88513 2.45762 8.09043 2.31253C8.29573 2.16744 8.53369 2.07532 8.78317 2.04434H22.6802C22.78 2.04434 22.8382 2.06513 22.8548 2.09008C22.8695 2.14533 22.8727 2.20302 22.8641 2.25954C22.8555 2.31606 22.8354 2.3702 22.8049 2.41859L21.5075 5.20464C21.8508 5.29343 22.1721 5.45197 22.4515 5.67037L23.7447 2.88432C23.859 2.6782 23.919 2.44638 23.919 2.21067C23.919 1.97497 23.859 1.74315 23.7447 1.53703C23.6261 1.36589 23.4666 1.22714 23.2806 1.13345C23.0947 1.03975 22.8883 0.994086 22.6802 1.00061H8.78317C8.33328 1.03262 7.89962 1.1819 7.52536 1.4336C7.1511 1.6853 6.84929 2.03063 6.64997 2.43522L4.79537 6.40639C5.13635 6.4646 5.49396 6.53529 5.86405 6.61846Z" fill="#0091DB"/>
<path d="M10.1429 9.60824C5.98463 6.75149 0.512329 7.27544 0.512329 7.27544V11.966C7.99725 9.65398 12.7543 12.4775 13.0246 12.6479C11.8598 11.85 10.8777 10.8139 10.1429 9.60824Z" fill="#0051A4"/>
<path d="M22.6677 10.2985V14.9808C22.6677 14.9808 13.9353 15.8124 10.1429 9.60825C10.1429 9.60825 14.9665 12.6771 22.6677 10.2985Z" fill="#0091DB"/>
<path d="M2.03011 6.15272C2.86146 6.15272 3.53541 5.47877 3.53541 4.64742C3.53541 3.81607 2.86146 3.14212 2.03011 3.14212C1.19876 3.14212 0.524811 3.81607 0.524811 4.64742C0.524811 5.47877 1.19876 6.15272 2.03011 6.15272Z" fill="#0051A4"/>
<path d="M20.917 9.26728C21.7484 9.26728 22.4223 8.59334 22.4223 7.76198C22.4223 6.93063 21.7484 6.25668 20.917 6.25668C20.0857 6.25668 19.4117 6.93063 19.4117 7.76198C19.4117 8.59334 20.0857 9.26728 20.917 9.26728Z" fill="#0091DB"/>
</svg>
