<svg viewBox="0 0 24 24" fill="none" xmlns="http://www.w3.org/2000/svg"><path d="M19.6966 8.03021L20.219 7.49211L19.6966 8.03021ZM13.7767 2.28253L14.2992 1.74444L13.7767 2.28253ZM17 21.25H7V22.75H17V21.25ZM4.75 19V5H3.25V19H4.75ZM7 2.75H13.0801V1.25H7V2.75ZM19.25 8.74767V19H20.75V8.74767H19.25ZM13.2543 2.82063L19.1741 8.56831L20.219 7.49211L14.2992 1.74444L13.2543 2.82063ZM20.75 8.74767C20.75 8.27459 20.5585 7.82166 20.219 7.49211L19.1741 8.56831C19.2226 8.61538 19.25 8.68009 19.25 8.74767H20.75ZM13.0801 2.75C13.1451 2.75 13.2076 2.77534 13.2543 2.82063L14.2992 1.74444C13.9726 1.42736 13.5353 1.25 13.0801 1.25V2.75ZM7 21.25C5.75736 21.25 4.75 20.2426 4.75 19H3.25C3.25 21.0711 4.92893 22.75 7 22.75V21.25ZM17 22.75C19.0711 22.75 20.75 21.0711 20.75 19H19.25C19.25 20.2426 18.2426 21.25 17 21.25V22.75ZM4.75 5C4.75 3.75736 5.75736 2.75 7 2.75V1.25C4.92893 1.25 3.25 2.92893 3.25 5H4.75Z" fill="currentColor"></path><path d="M8 14H16" stroke="currentColor" stroke-width="1.5" stroke-linecap="round" stroke-linejoin="round"></path><path d="M12 18V10" stroke="currentColor" stroke-width="1.5" stroke-linecap="round" stroke-linejoin="round"></path><rect x="8" y="10" width="8" height="8" rx="1" stroke="currentColor" stroke-width="1.5" stroke-linecap="round" stroke-linejoin="round"></rect></svg>