<svg width="72" height="20" viewBox="0 0 72 20" fill="none" xmlns="http://www.w3.org/2000/svg">
<g clip-path="url(#clip0_2185_6078)">
<path d="M4.69022 16.5348C1.23369 15.9778 -0.929142 11.7981 0.393453 8.2132C0.873873 6.89926 1.77177 5.77996 2.94896 5.02756C4.12615 4.27516 5.51741 3.93136 6.90862 4.04905C8.3398 4.16471 9.69148 4.75598 10.7493 5.72909C11.8072 6.7022 12.5106 8.00145 12.748 9.42078C13.2082 12.0409 11.6633 15.0799 9.30707 16.1739C9.13608 16.2361 8.95973 16.2823 8.78026 16.312C7.42877 16.5994 6.04838 16.3855 4.69022 16.5348ZM7.07756 11.5441C7.6755 11.7981 8.28012 12.4085 8.93141 11.934C9.63458 11.4519 10.2384 10.8384 10.7097 10.1271C11.2565 9.23586 11.1254 8.26667 10.3385 7.62946C9.55159 6.99225 8.70468 6.96106 7.89334 7.59381C7.48581 7.9128 7.11324 8.27428 6.78192 8.67217C6.30178 9.26037 5.77275 9.49431 5.06366 9.11777C4.72801 8.89497 4.33679 8.52735 3.97668 8.83482C3.16979 9.5255 2.26509 10.1716 1.87609 11.2166C1.57156 12.0276 1.83164 12.7517 2.52739 13.2797C3.40097 13.9481 4.23898 13.8189 5.22815 13.0034C5.83943 12.5133 6.14841 11.6332 7.07756 11.5441Z" fill="#314BFE"/>
<path d="M18.5741 13.3844C18.5741 14.4316 18.5541 15.3562 18.5741 16.2808C18.5897 16.8111 18.3118 16.9091 17.8828 16.8757C17.5383 16.8468 17.0626 16.996 17.0781 16.4034C17.1382 14.1865 16.8559 11.9474 17.236 9.75277C17.5072 8.23327 18.5186 7.25963 20.0368 6.94102C21.555 6.62242 22.842 7.09698 23.7556 8.34912C24.6959 9.63691 24.7425 11.0472 23.9668 12.4286C22.9109 14.3024 20.7503 14.7101 18.5741 13.3844ZM23.0198 10.5838C23.027 10.2912 22.9766 10.0001 22.8715 9.72704C22.7664 9.45398 22.6086 9.20435 22.4073 8.99239C22.2059 8.78043 21.9649 8.6103 21.6979 8.49171C21.431 8.37312 21.1433 8.30839 20.8514 8.30122C20.5595 8.29405 20.2691 8.34458 19.9966 8.44993C19.7242 8.55527 19.4752 8.71337 19.2637 8.91519C19.0522 9.11701 18.8825 9.35861 18.7642 9.62618C18.6459 9.89375 18.5813 10.1821 18.5741 10.4746C18.5597 11.0655 18.78 11.638 19.1867 12.0661C19.5933 12.4941 20.153 12.7428 20.7425 12.7572C21.3321 12.7717 21.9032 12.5509 22.3303 12.1433C22.7573 11.7357 23.0054 11.1747 23.0198 10.5838Z" fill="#111111"/>
<path d="M41.5295 7.68291C41.5295 6.63129 41.5628 5.78019 41.5184 4.93131C41.4873 4.32975 41.7229 4.16933 42.2875 4.1827C42.781 4.19607 43.0255 4.29187 43.0121 4.85111C42.9632 6.92093 43.0566 9.00189 42.901 11.065C42.7543 13.0212 40.7582 14.4739 38.8821 14.1842C36.6881 13.859 35.2877 11.9295 35.6856 9.78169C35.8758 8.84333 36.4231 8.0161 37.2116 7.4754C38 6.9347 38.9675 6.72303 39.909 6.88528C40.4559 7.00559 40.8826 7.35762 41.5295 7.68291ZM37.0971 10.4813C37.0843 10.7777 37.1322 11.0735 37.2377 11.3506C37.3433 11.6278 37.5043 11.8804 37.7108 12.0928C37.9174 12.3053 38.1651 12.4731 38.4388 12.586C38.7125 12.6989 39.0063 12.7545 39.3022 12.7494C39.8826 12.7496 40.4401 12.5222 40.8554 12.1158C41.2708 11.7095 41.5111 11.1565 41.525 10.5749C41.5218 9.977 41.2871 9.40375 40.8703 8.97603C40.4535 8.54832 39.8873 8.29956 39.2911 8.28224C38.7126 8.29309 38.1608 8.52826 37.7517 8.93833C37.3426 9.34841 37.108 9.90146 37.0971 10.4813Z" fill="#111111"/>
<path d="M55.4134 11.143C54.711 11.143 54.0085 11.143 53.3061 11.143C53.0972 11.143 52.8282 11.0583 52.7126 11.3079C52.597 11.5574 52.8038 11.7913 52.9571 11.9763C53.6573 12.8675 55.2 13.0502 56.267 12.228C56.8138 11.8047 57.1205 11.9584 57.4695 12.3305C57.9319 12.8296 57.3695 13.0457 57.1205 13.2707C56.4966 13.8313 55.7009 14.1625 54.8644 14.2099C54.0278 14.2573 53.2 14.018 52.517 13.5314C51.8424 13.0351 51.353 12.3266 51.127 11.5189C50.901 10.7113 50.9513 9.85101 51.27 9.07539C51.5911 8.31948 52.1539 7.69208 52.8698 7.29195C53.5857 6.89182 54.4141 6.7417 55.2244 6.86521C56.8827 7.1192 58.0475 8.40476 58.2142 10.1047C58.2853 10.8244 58.1542 11.2366 57.2961 11.1408C56.669 11.1069 56.0404 11.1077 55.4134 11.143ZM54.5776 9.80618C55.0222 9.80618 55.4667 9.80618 55.9113 9.80618C56.1202 9.80618 56.3848 9.89084 56.5092 9.6569C56.6582 9.37617 56.4337 9.16451 56.287 8.96845C55.6334 8.13963 54.1508 8.03937 53.2772 8.7657C53.0216 8.97736 52.6748 9.22913 52.7437 9.56333C52.8393 10.0223 53.295 9.76608 53.5906 9.80172C53.9193 9.82209 54.2489 9.82284 54.5776 9.80395V9.80618Z" fill="#101010"/>
<path d="M27.8412 11.7C27.8412 11.2544 27.8412 10.8088 27.8412 10.3631C27.9101 8.23985 29.1749 6.90082 31.1755 6.83398C33.216 6.76714 34.6253 8.07944 34.7542 10.2384C34.8143 11.2722 34.7409 12.3127 34.7765 13.3576C34.7965 13.9035 34.592 14.0572 34.0718 14.0572C33.5517 14.0572 33.2516 13.9658 33.2827 13.3331C33.3294 12.3349 33.3205 11.3279 33.2827 10.3364C33.2405 9.04862 32.4825 8.30001 31.2821 8.29555C30.0818 8.2911 29.3283 9.06867 29.2994 10.3409C29.2749 11.339 29.2571 12.3461 29.2994 13.3375C29.3327 13.9748 29.0393 14.055 28.5103 14.0572C27.9812 14.0594 27.7856 13.9146 27.8323 13.3576C27.879 12.8006 27.8412 12.2547 27.8412 11.7Z" fill="#111111"/>
<path d="M62.6199 14.2489C61.8371 14.2439 61.075 13.9963 60.4382 13.5399C59.8015 13.0835 59.3212 12.4409 59.0633 11.7C58.815 10.937 58.8208 10.1137 59.0798 9.35423C59.3388 8.59475 59.837 7.94018 60.4993 7.48908C61.1429 7.04246 61.9136 6.8169 62.6958 6.84623C63.4781 6.87555 64.2298 7.15817 64.8383 7.65173C65.0873 7.86339 65.7008 8.09733 65.2429 8.56298C64.925 8.8905 64.6205 9.45419 63.9091 8.82366C62.9311 7.95697 61.6574 8.17086 60.8572 9.12667C60.495 9.55605 60.3111 10.1084 60.3434 10.6697C60.3756 11.231 60.6216 11.7585 61.0306 12.1434C61.2335 12.3479 61.4758 12.509 61.7426 12.6171C62.0095 12.7251 62.2954 12.7778 62.5832 12.772C62.8709 12.7661 63.1545 12.7019 63.4168 12.5831C63.6791 12.4644 63.9146 12.2936 64.1092 12.081C64.5916 11.5886 64.8472 11.7045 65.2673 12.0654C65.8497 12.5645 65.3273 12.8497 65.0717 13.1438C64.7583 13.484 64.3796 13.7572 63.9583 13.9471C63.537 14.137 63.0817 14.2397 62.6199 14.2489Z" fill="#111111"/>
<path d="M69.7352 14.0394C67.4079 14.026 66.2409 12.8875 66.2409 10.6484C66.2409 8.91274 66.2587 7.1749 66.2275 5.43705C66.2275 4.85777 66.3943 4.66838 66.9789 4.67061C67.5635 4.67284 67.7924 4.85999 67.7235 5.4415C67.6924 5.6955 67.748 5.96286 67.7124 6.21685C67.619 6.88525 67.9347 7.05904 68.5415 7.0078C68.9439 6.97215 69.3551 7.02785 69.7574 6.99443C70.3331 6.94318 70.6177 7.06572 70.631 7.75418C70.6443 8.44263 70.3087 8.49611 69.7619 8.50279C67.6968 8.52507 67.6968 8.54067 67.7168 10.4857C67.7346 12.0074 68.2592 12.5154 69.793 12.5511C70.3176 12.5645 71.0111 12.2681 71.0089 13.3064C71 14.4961 70.142 13.8612 69.7352 14.0394Z" fill="#171717"/>
<path d="M46.5642 11.6621C46.5642 11.1831 46.5509 10.7019 46.5642 10.2228C46.6354 8.09063 48.0624 6.85186 50.1919 6.99222C50.7499 7.02787 50.8588 7.25067 50.8588 7.74084C50.8588 8.231 50.8232 8.46717 50.2297 8.50504C48.2469 8.63427 48.0069 8.93282 48.0069 10.9291C48.0069 11.7045 47.9846 12.4887 48.0069 13.2552C48.0269 13.7721 47.9602 14.0572 47.3133 14.0572C46.6665 14.0572 46.4909 13.8077 46.542 13.2128C46.5976 12.6892 46.5642 12.179 46.5642 11.6621Z" fill="#0F0F0F"/>
<path d="M25.3116 10.5303C25.3116 9.56778 25.3383 8.60306 25.3116 7.63387C25.2916 7.04791 25.5805 6.96547 26.0629 6.98107C26.5453 6.99666 26.8409 7.03008 26.8342 7.62942C26.8076 9.55664 26.8031 11.4839 26.8342 13.4089C26.8342 14.0238 26.5186 14.0394 26.0696 14.0394C25.6206 14.0394 25.2805 14.0394 25.3071 13.4133C25.3405 12.4664 25.3116 11.4928 25.3116 10.5303Z" fill="#181818"/>
<path d="M45.5195 10.5705C45.5195 11.4951 45.495 12.4197 45.5195 13.3421C45.5373 13.8568 45.3884 14.0773 44.8393 14.0551C44.3547 14.035 43.9969 14.0417 44.0102 13.3688C44.048 11.4862 44.0413 9.60127 44.0102 7.71637C44.0102 7.10144 44.2725 6.98113 44.8126 6.9789C45.3528 6.97667 45.5306 7.16383 45.5151 7.68964C45.4995 8.64991 45.5195 9.61018 45.5195 10.5705Z" fill="#1E1E1E"/>
<path d="M25.0693 4.93583C25.196 4.33204 25.5138 3.94882 26.134 4.00675C26.2559 4.01153 26.3755 4.04139 26.4853 4.09446C26.5952 4.14754 26.693 4.2227 26.7726 4.31527C26.8522 4.40785 26.912 4.51585 26.9483 4.63257C26.9845 4.74929 26.9964 4.87224 26.9831 4.99375C26.9872 5.11626 26.966 5.2383 26.9209 5.35223C26.8758 5.46616 26.8077 5.56954 26.7209 5.6559C26.6342 5.74227 26.5305 5.80975 26.4165 5.85415C26.3025 5.89855 26.1806 5.91889 26.0584 5.91392C25.4849 5.90501 25.1182 5.52848 25.0693 4.93583Z" fill="#1C1C1C"/>
<path d="M45.7284 4.96249C45.6484 5.55514 45.3083 5.91162 44.7793 5.90716C44.6478 5.91501 44.5163 5.89407 44.3938 5.84582C44.2712 5.79757 44.1606 5.72316 44.0697 5.62775C43.9787 5.53235 43.9096 5.41824 43.8671 5.29335C43.8245 5.16846 43.8097 5.03579 43.8234 4.90456C43.8206 4.78293 43.8432 4.66206 43.8898 4.54969C43.9363 4.43733 44.0057 4.33594 44.0936 4.25204C44.1815 4.16814 44.2859 4.10357 44.4002 4.06246C44.5144 4.02136 44.636 4.00463 44.757 4.01336C45.3461 4.01113 45.684 4.38766 45.7284 4.96249Z" fill="#1C1C1C"/>
<path d="M4.69019 16.5348C6.04835 16.3855 7.42873 16.5994 8.78023 16.312C7.45319 17.0584 6.08613 17.074 4.69019 16.5348Z" fill="#3750FE"/>
<path d="M5.07034 9.12446C5.77943 9.49431 6.30847 9.26037 6.78861 8.67886C7.11993 8.28097 7.4925 7.91949 7.90003 7.60051C8.70692 6.96998 9.55605 7.00117 10.3452 7.63615C11.1343 8.27114 11.2632 9.25146 10.7164 10.1338C10.2451 10.8451 9.64127 11.4586 8.9381 11.9407C8.2868 12.4152 7.68219 11.8048 7.08424 11.5508C7.08424 11.4149 7.08424 11.279 7.07313 11.143C7.5177 11.143 7.96227 11.6132 8.40684 11.0918C8.81584 10.615 9.29598 10.2006 9.72943 9.75499C10.094 9.38514 10.154 8.96405 9.81168 8.56523C9.46936 8.16642 8.97811 8.11963 8.52465 8.43601C8.29309 8.6194 8.07608 8.82052 7.87558 9.03757C6.62411 10.2763 6.62411 10.2786 5.07923 9.49654L5.07034 9.12446Z" fill="white"/>
<path d="M7.06645 11.1297C7.06645 11.2656 7.06645 11.4015 7.07757 11.5374C6.14842 11.6266 5.83944 12.5066 5.23483 13.0035C4.24566 13.8189 3.40765 13.9459 2.53407 13.2798C1.83831 12.7517 1.57824 12.0276 1.88277 11.2166C2.27177 10.1761 3.17647 9.52555 3.98336 8.83487C4.34346 8.52741 4.73469 8.90394 5.07034 9.11783V9.47654C4.04116 9.77509 3.51434 10.6641 2.90306 11.4127C2.63409 11.7357 2.77636 12.1346 3.06533 12.4153C3.2014 12.5733 3.39341 12.672 3.60081 12.6908C3.8082 12.7095 4.01472 12.6466 4.17675 12.5155C4.61779 12.181 5.02038 11.7984 5.37709 11.3748C5.88834 10.7554 6.41516 10.6151 7.06645 11.1297Z" fill="white"/>
<path d="M7.06646 11.1297C6.41516 10.6084 5.88835 10.7487 5.37264 11.3748C5.01593 11.7985 4.61335 12.1811 4.17231 12.5156C4.01028 12.6466 3.80375 12.7095 3.59636 12.6908C3.38897 12.6721 3.19696 12.5733 3.06088 12.4153C2.77191 12.1346 2.62965 11.7469 2.89861 11.4127C3.52101 10.6641 4.03671 9.7751 5.06589 9.47655C6.62189 10.2586 6.62189 10.2564 7.86223 9.01758C8.06274 8.80053 8.27975 8.5994 8.51131 8.41601C8.95588 8.09072 9.42934 8.11746 9.79834 8.54524C10.1673 8.97302 10.0806 9.36515 9.71609 9.735C9.27152 10.1806 8.8025 10.6017 8.3935 11.0718C7.9467 11.6065 7.5088 11.1453 7.06646 11.1297Z" fill="#3750FE"/>
</g>
<defs>
<clipPath id="clip0_2185_6078">
<rect width="71" height="12.9091" fill="white" transform="translate(0 4)"/>
</clipPath>
</defs>
</svg>
