<svg viewBox="0 0 24 24" fill="none" stroke="currentColor" xmlns="http://www.w3.org/2000/svg"><path d="M3.48411 5.82162L7.12085 9.45837C7.28205 9.61956 7.34881 9.85244 7.29757 10.0745L5.12481 19.4896C5.07359 19.7118 5.14039 19.9447 5.30153 20.1058L6.002 20.8063C6.30619 21.1105 6.81517 21.0478 7.03644 20.6789L10.8402 14.3395C11.0615 13.9706 11.5704 13.9079 11.8746 14.2121L14.1803 16.5179C14.3152 16.6527 14.3853 16.8392 14.3726 17.0294L14.1621 20.1854C14.1175 20.855 14.9835 21.1575 15.3654 20.6058L17.4408 17.608C17.486 17.5427 17.5427 17.486 17.608 17.4408L20.6058 15.3654C21.1575 14.9835 20.855 14.1175 20.1854 14.1621L17.0294 14.3726C16.8392 14.3853 16.6527 14.3152 16.5179 14.1803L14.2121 11.8746C13.9079 11.5704 13.9706 11.0615 14.3394 10.8402L20.6789 7.03643C21.0478 6.81515 21.1104 6.30619 20.8063 6.002L20.1058 5.30153C19.9447 5.14039 19.7118 5.07362 19.4896 5.12481L10.0745 7.29757C9.85244 7.34881 9.61956 7.28205 9.45837 7.12085L5.82162 3.48411C5.17613 2.83862 4.12957 2.83864 3.48411 3.48411C2.83864 4.12957 2.83862 5.17613 3.48411 5.82162Z" stroke-width="1.5" stroke-linecap="round" stroke-linejoin="round"></path></svg>